<?xml version="1.0" encoding="utf-8"?>
<!-- Generator: Adobe Illustrator 18.0.0, SVG Export Plug-In . SVG Version: 6.00 Build 0)  -->
<!DOCTYPE svg PUBLIC "-//W3C//DTD SVG 1.1//EN" "http://www.w3.org/Graphics/SVG/1.1/DTD/svg11.dtd">
<svg version="1.1"
	 id="svg2" xmlns:inkscape="http://www.inkscape.org/namespaces/inkscape" xmlns:cc="http://creativecommons.org/ns#" xmlns:dc="http://purl.org/dc/elements/1.1/" xmlns:rdf="http://www.w3.org/1999/02/22-rdf-syntax-ns#" xmlns:sodipodi="http://sodipodi.sourceforge.net/DTD/sodipodi-0.dtd" xmlns:svg="http://www.w3.org/2000/svg" sodipodi:docname="genomePretty.svg" inkscape:version="0.48.2 r9819"
	 xmlns="http://www.w3.org/2000/svg" xmlns:xlink="http://www.w3.org/1999/xlink" x="0px" y="0px" viewBox="1192 0 2200 3024"
	 enable-background="new 1192 0 2200 3024" xml:space="preserve">
<sodipodi:namedview  pagecolor="#ffffff" inkscape:cx="261.59989" showguides="false" units="in" inkscape:zoom="1.200431" showgrid="false" fit-margin-top="0" fit-margin-left="0" borderopacity="1.0" bordercolor="#666666" id="base" inkscape:cy="246.30581" fit-margin-bottom="0" fit-margin-right="0" inkscape:window-maximized="1" inkscape:window-y="-8" inkscape:window-x="-8" inkscape:current-layer="layer1" inkscape:document-units="in" inkscape:window-width="1366" inkscape:pageopacity="0.0" inkscape:window-height="746" inkscape:guide-bbox="true" inkscape:pageshadow="2">
	<sodipodi:guide  position="-373.91519,355.08062" orientation="1,0" id="guide3000"></sodipodi:guide>
	<sodipodi:guide  position="-358.91519,247.08062" orientation="0,1" id="guide3022"></sodipodi:guide>
	<sodipodi:guide  position="-353.20091,242.58062" orientation="0,1" id="guide3024"></sodipodi:guide>
	<sodipodi:guide  position="-350.34376,220.08062" orientation="0,1" id="guide3026"></sodipodi:guide>
	<sodipodi:guide  position="-329.62948,215.58062" orientation="0,1" id="guide3028"></sodipodi:guide>
	<sodipodi:guide  position="-393.20091,193.08062" orientation="0,1" id="guide3034"></sodipodi:guide>
	<sodipodi:guide  position="-395.34376,188.58062" orientation="0,1" id="guide3085"></sodipodi:guide>
	<sodipodi:guide  position="64.258329,165.46299" orientation="0,1" id="guide3087"></sodipodi:guide>
	<sodipodi:guide  position="-241.41519,161.58062" orientation="0,1" id="guide3115"></sodipodi:guide>
	<sodipodi:guide  position="-337.48662,134.58062" orientation="0,1" id="guide3119"></sodipodi:guide>
	<sodipodi:guide  position="404.46508,112.96031" orientation="0,1" id="guide3121"></sodipodi:guide>
	<sodipodi:guide  position="-366.91519,171.83062" orientation="0,1" id="guide3129"></sodipodi:guide>
	<sodipodi:guide  position="-355.17686,31.080619" orientation="0,1" id="guide3143"></sodipodi:guide>
	<sodipodi:guide  position="-18.947596,22.718619" orientation="0,1" id="guide3145"></sodipodi:guide>
	<sodipodi:guide  position="-173.45042,4.0806193" orientation="0,1" id="guide3195"></sodipodi:guide>
	<sodipodi:guide  position="-284.46619,-0.41938071" orientation="0,1" id="guide3197"></sodipodi:guide>
	<sodipodi:guide  position="-298.25477,-22.919381" orientation="0,1" id="guide3199"></sodipodi:guide>
	<sodipodi:guide  position="-325.12483,-27.419381" orientation="0,1" id="guide3201"></sodipodi:guide>
	<sodipodi:guide  position="-340.32762,-49.919381" orientation="0,1" id="guide3203"></sodipodi:guide>
	<sodipodi:guide  position="-317.34665,-54.419381" orientation="0,1" id="guide3205"></sodipodi:guide>
	<sodipodi:guide  position="-316.63954,-76.919381" orientation="0,1" id="guide3207"></sodipodi:guide>
	<sodipodi:guide  position="-303.91162,-81.419385" orientation="0,1" id="guide3209"></sodipodi:guide>
	<sodipodi:guide  position="-294.66519,-103.91938" orientation="0,1" id="guide3247"></sodipodi:guide>
	<sodipodi:guide  position="-346.66519,-108.41938" orientation="0,1" id="guide3249"></sodipodi:guide>
	<sodipodi:guide  position="-246.91519,-130.91938" orientation="0,1" id="guide3253"></sodipodi:guide>
	<sodipodi:guide  position="-277.41519,-135.41938" orientation="0,1" id="guide3255"></sodipodi:guide>
	<sodipodi:guide  position="-321.66519,-157.91938" orientation="0,1" id="guide3257"></sodipodi:guide>
	<sodipodi:guide  position="-330.66519,-162.41938" orientation="0,1" id="guide3259"></sodipodi:guide>
	<sodipodi:guide  position="-333.91519,-184.91938" orientation="0,1" id="guide3261"></sodipodi:guide>
	<sodipodi:guide  position="-350.16519,-189.41938" orientation="0,1" id="guide3263"></sodipodi:guide>
	<sodipodi:guide  position="-406.44211,-211.91938" orientation="0,1" id="guide3340"></sodipodi:guide>
	<sodipodi:guide  position="-413.51317,-216.41938" orientation="0,1" id="guide3342"></sodipodi:guide>
	<sodipodi:guide  position="-410.33119,-238.91938" orientation="0,1" id="guide3346"></sodipodi:guide>
	<sodipodi:guide  position="-401.41519,377.58062" orientation="1,0" id="guide3354"></sodipodi:guide>
	<sodipodi:guide  position="-299.16519,252.33062" orientation="0,1" id="guide3376"></sodipodi:guide>
	<sodipodi:guide  position="-283.91519,225.58062" orientation="0,1" id="guide3382"></sodipodi:guide>
	<sodipodi:guide  position="-362.91519,198.58062" orientation="0,1" id="guide3390"></sodipodi:guide>
	<sodipodi:guide  position="-384.91519,9.8306193" orientation="0,1" id="guide3430"></sodipodi:guide>
	<sodipodi:guide  position="-289.16519,-17.419381" orientation="0,1" id="guide3436"></sodipodi:guide>
	<sodipodi:guide  position="-373.91519,-43.919381" orientation="0,1" id="guide3446"></sodipodi:guide>
	<sodipodi:guide  position="-286.16519,-71.419381" orientation="0,1" id="guide3448"></sodipodi:guide>
	<sodipodi:guide  position="-387.66519,-98.169385" orientation="0,1" id="guide3454"></sodipodi:guide>
	<sodipodi:guide  position="-275.16519,-125.41938" orientation="0,1" id="guide3460"></sodipodi:guide>
	<sodipodi:guide  position="-360.41519,-152.16938" orientation="0,1" id="guide3466"></sodipodi:guide>
	<sodipodi:guide  position="-414.16519,-179.66938" orientation="0,1" id="guide3472"></sodipodi:guide>
	<sodipodi:guide  position="-292.91519,-206.66938" orientation="0,1" id="guide3478"></sodipodi:guide>
	<sodipodi:guide  position="-362.91519,-233.16938" orientation="0,1" id="guide3488"></sodipodi:guide>
	<sodipodi:guide  position="69.834804,258.83062" orientation="0,1" id="guide4064"></sodipodi:guide>
	<sodipodi:guide  position="14.849242,307.945" orientation="1,0" id="guide4081"></sodipodi:guide>
	<sodipodi:guide  position="47.641319,384.75448" orientation="1,0" id="guide4083"></sodipodi:guide>
	<sodipodi:guide  position="81.084804,242.58062" orientation="1,0" id="guide4085"></sodipodi:guide>
	<sodipodi:guide  position="114.90485,254.20489" orientation="1,0" id="guide4087"></sodipodi:guide>
	<sodipodi:guide  position="149.02275,252.33062" orientation="1,0" id="guide4089"></sodipodi:guide>
	<sodipodi:guide  position="182.625,252.33062" orientation="1,0" id="guide4091"></sodipodi:guide>
	<sodipodi:guide  position="217.875,252.33062" orientation="1,0" id="guide4093"></sodipodi:guide>
	<sodipodi:guide  position="251.03125,257.25" orientation="1,0" id="guide4095"></sodipodi:guide>
	<sodipodi:guide  position="285.5,347.75" orientation="1,0" id="guide4097"></sodipodi:guide>
	<sodipodi:guide  position="319.625,345.375" orientation="1,0" id="guide4099"></sodipodi:guide>
	<sodipodi:guide  position="353.25,134.58062" orientation="1,0" id="guide4101"></sodipodi:guide>
	<sodipodi:guide  position="388.20162,278.95363" orientation="1,0" id="guide4103"></sodipodi:guide>
	<sodipodi:guide  position="3.8890872,161.58062" orientation="1,0" id="guide12488"></sodipodi:guide>
	<sodipodi:guide  position="26.516504,181.37288" orientation="0,1" id="guide12492"></sodipodi:guide>
	<sodipodi:guide  position="26.516504,35.812499" orientation="0,1" id="guide12494"></sodipodi:guide>
	<sodipodi:guide  position="9.457553,183.14065" orientation="0,1" id="guide13008"></sodipodi:guide>
	<sodipodi:guide  position="26.140625,37.859375" orientation="1,0" id="guide13439"></sodipodi:guide>
	<sodipodi:guide  position="107.21507,150.1718" orientation="0,1" id="guide15391"></sodipodi:guide>
	<sodipodi:guide  position="371.76139,232.19619" orientation="0,1" id="guide17232"></sodipodi:guide>
	<sodipodi:guide  position="441.94174,303.17203" orientation="0,1" id="guide21930"></sodipodi:guide>
	<sodipodi:guide  position="340.64869,247.08062" orientation="1,0" id="guide22976"></sodipodi:guide>
</sodipodi:namedview>
<text transform="matrix(1 0 0 1 1264.1563 1739.7329)" font-family="'HelveticaNeueLTStd-Roman'" font-size="57.9613">chr1</text>
<text transform="matrix(1 0 0 1 1441.693 1734.55)" font-family="'HelveticaNeueLTStd-Roman'" font-size="57.9613">chr2</text>
<text transform="matrix(1 0 0 1 1613.5026 1734.2891)" font-family="'HelveticaNeueLTStd-Roman'" font-size="57.9613">chr3</text>
<text transform="matrix(1 0 0 1 1785.9053 1734.3207)" font-family="'HelveticaNeueLTStd-Roman'" font-size="57.9613">chr4</text>
<text transform="matrix(1 0 0 1 2147.3137 1735.1141)" font-family="'HelveticaNeueLTStd-Roman'" font-size="57.9613">chr6</text>
<text transform="matrix(1 0 0 1 1965.4866 1734.0438)" font-family="'HelveticaNeueLTStd-Roman'" font-size="57.9613">chr5</text>
<text transform="matrix(1 0 0 1 2326.6689 1734.2257)" font-family="'HelveticaNeueLTStd-Roman'" font-size="57.9613">chr7</text>
<text transform="matrix(1 0 0 1 2504.9221 1735.1141)" font-family="'HelveticaNeueLTStd-Roman'" font-size="57.9613">chr8</text>
<text transform="matrix(1 0 0 1 2687.2769 1735.1141)" font-family="'HelveticaNeueLTStd-Roman'" font-size="57.9613">chr9</text>
<text transform="matrix(1 0 0 1 2852.8042 1735.1141)" font-family="'HelveticaNeueLTStd-Roman'" font-size="57.9613">chr10</text>
<text transform="matrix(1 0 0 1 3028.2463 1735.1141)" font-family="'HelveticaNeueLTStd-Roman'" font-size="57.9613">chr11</text>
<text transform="matrix(1 0 0 1 3210.6294 1735.1141)" font-family="'HelveticaNeueLTStd-Roman'" font-size="57.9613">chr12</text>
<text transform="matrix(1 0 0 1 1239.786 2904.1479)" font-family="'HelveticaNeueLTStd-Roman'" font-size="57.9613">chr13</text>
<text transform="matrix(1 0 0 1 1415.0485 2904.1479)" font-family="'HelveticaNeueLTStd-Roman'" font-size="57.9613">chr14</text>
<text transform="matrix(1 0 0 1 1591.2256 2904.1479)" font-family="'HelveticaNeueLTStd-Roman'" font-size="57.9613">chr15</text>
<text transform="matrix(1 0 0 1 1772.1217 2904.1479)" font-family="'HelveticaNeueLTStd-Roman'" font-size="57.9613">chr16</text>
<text transform="matrix(1 0 0 1 1953.5588 2904.1479)" font-family="'HelveticaNeueLTStd-Roman'" font-size="57.9613">chr17</text>
<text transform="matrix(1 0 0 1 2127.3179 2904.1479)" font-family="'HelveticaNeueLTStd-Roman'" font-size="57.9613">chr18</text>
<text transform="matrix(1 0 0 1 2310.6108 2904.1479)" font-family="'HelveticaNeueLTStd-Roman'" font-size="57.9613">chr19</text>
<text transform="matrix(1 0 0 1 2486.3867 2904.1479)" font-family="'HelveticaNeueLTStd-Roman'" font-size="57.9613">chr20</text>
<text transform="matrix(1 0 0 1 2668.3025 2904.1479)" font-family="'HelveticaNeueLTStd-Roman'" font-size="57.9613">chr21</text>
<text transform="matrix(1 0 0 1 2848.5874 2904.1479)" font-family="'HelveticaNeueLTStd-Roman'" font-size="57.9613">chr22</text>
<text transform="matrix(1 0 0 1 3037.1143 2904.1479)" font-family="'HelveticaNeueLTStd-Roman'" font-size="57.9613">chrX</text>
<g id="g13248" transform="matrix(1,0,0,-1,0,482.82734)">
	
		<path id="path13242" sodipodi:nodetypes="cscccccc" inkscape:connector-curvature="0" fill="none" stroke="#000000" stroke-width="1.5" stroke-linecap="square" stroke-linejoin="round" d="
		M1262.8-1604.5c7.4,17.4,17.9,18.4,29,18.4c11.1,0,22.1-1.1,29.5-18.4v-85.9v-15.3l-22.7,1.1c-13.7,0-36.4,7.9-36.4,17.4
		L1262.8-1604.5z"/>
	
		<path id="path13310" sodipodi:nodetypes="csscccccc" inkscape:connector-curvature="0" fill="none" stroke="#000000" stroke-width="1.5" stroke-linecap="square" stroke-linejoin="round" d="
		M1380.3-1604.5c-1.6,4.2-3.7,7.4-5.8,9.5c-6.8,7.9-15.3,9-23.7,9c-11.1,0-22.1-1.1-29.5-18.4l0.5-85.9v-15.3l22.7,1.1
		c13.7,0,36.4,7.9,36.4,17.4L1380.3-1604.5z"/>
	
		<path id="path13314" sodipodi:nodetypes="cscccccc" inkscape:connector-curvature="0" fill="none" stroke="#000000" stroke-width="1.5" stroke-linecap="square" stroke-linejoin="round" d="
		M1379.8-2333.7c-7.4-17.4-17.9-18.4-29-18.4c-11.1,0-22.1,1.1-29.5,18.4v612.8v15.3l22.7-1.1c13.7,0,36.4-7.9,36.4-17.4
		L1379.8-2333.7z"/>
	
		<path id="path13318" sodipodi:nodetypes="cscccccc" inkscape:connector-curvature="0" fill="none" stroke="#000000" stroke-width="1.5" stroke-linecap="square" stroke-linejoin="round" d="
		M1262.8-2333.7c7.4-17.4,17.9-18.4,29-18.4c11.1,0,22.1,1.1,29.5,18.4v612.8v15.3l-22.7-1.1c-13.7,0-36.4-7.9-36.4-17.4
		L1262.8-2333.7z"/>
</g>
<g id="g13701" transform="matrix(1,0,0,-1,66.19018,498.82734)">
	
		<path id="path13703" sodipodi:nodetypes="cscccccc" inkscape:connector-curvature="0" fill="none" stroke="#000000" stroke-width="1.5" stroke-linecap="square" stroke-linejoin="round" d="
		M1545.4-1672.8c7.4,17.4,17.9,18.4,29,18.4s22.1-1.1,29.5-18.4l-0.5-77.5v-15.3l-22.7,1.1c-13.7,0-36.4,7.9-36.4,17.4
		L1545.4-1672.8z"/>
	
		<path id="path13705" sodipodi:nodetypes="csscccccc" inkscape:connector-curvature="0" fill="none" stroke="#000000" stroke-width="1.5" stroke-linecap="square" stroke-linejoin="round" d="
		M1662.9-1672.8c-1.6,4.2-3.7,7.4-5.8,9.5c-6.8,7.9-15.3,9-23.7,9c-11.1,0-22.1-1.1-29.5-18.4l-0.5-77.5v-15.3l22.7,1.1
		c13.7,0,36.4,7.9,36.4,17.4L1662.9-1672.8z"/>
	
		<path id="path13707" sodipodi:nodetypes="cscccccc" inkscape:connector-curvature="0" fill="none" stroke="#000000" stroke-width="1.5" stroke-linecap="square" stroke-linejoin="round" d="
		M1662.4-2317.7c-7.4-17.4-17.9-18.4-29-18.4c-11.1,0-22.1,1.1-29.5,18.4v536.9v15.3l22.7-1.1c13.7,0,36.4-7.9,36.4-17.4
		L1662.4-2317.7z"/>
	
		<path id="path13709" sodipodi:nodetypes="cscccccc" inkscape:connector-curvature="0" fill="none" stroke="#000000" stroke-width="1.5" stroke-linecap="square" stroke-linejoin="round" d="
		M1545.4-2317.7c7.4-17.4,17.9-18.4,29-18.4s22.1,1.1,29.5,18.4l-0.5,536.9v15.3l-22.7-1.1c-13.7,0-36.4-7.9-36.4-17.4
		L1545.4-2317.7z"/>
</g>
<g id="g13795" transform="matrix(1,0,0,-1,32.80018,492.82734)">
	
		<path id="path13797" sodipodi:nodetypes="cscccccc" inkscape:connector-curvature="0" fill="none" stroke="#000000" stroke-width="1.5" stroke-linecap="square" stroke-linejoin="round" d="
		M1402.8-1647.1c7.4,17.4,17.9,18.4,29,18.4c11.1,0,22.1-1.1,29.5-18.4l-0.5-73.2v-15.3l-22.7,1.1c-13.7,0-36.4,7.9-36.4,17.4
		L1402.8-1647.1z"/>
	
		<path id="path13799" sodipodi:nodetypes="csscccccc" inkscape:connector-curvature="0" fill="none" stroke="#000000" stroke-width="1.5" stroke-linecap="square" stroke-linejoin="round" d="
		M1520.3-1647.1c-1.6,4.2-3.7,7.4-5.8,9.5c-6.8,7.9-15.3,9-23.7,9c-11.1,0-22.1-1.1-29.5-18.4v-73.2v-15.3l22.7,1.1
		c13.7,0,36.4,7.9,36.4,17.4L1520.3-1647.1z"/>
	
		<path id="path13801" sodipodi:nodetypes="cscccccc" inkscape:connector-curvature="0" fill="none" stroke="#000000" stroke-width="1.5" stroke-linecap="square" stroke-linejoin="round" d="
		M1519.8-2323.7c-7.4-17.4-17.9-18.4-29-18.4c-11.1,0-22.1,1.1-29.5,18.4v572.8v15.3l22.7-1.1c13.7,0,36.4-7.9,36.4-17.4
		L1519.8-2323.7z"/>
	
		<path id="path13803" sodipodi:nodetypes="cscccccc" inkscape:connector-curvature="0" fill="none" stroke="#000000" stroke-width="1.5" stroke-linecap="square" stroke-linejoin="round" d="
		M1402.8-2323.7c7.4-17.4,17.9-18.4,29-18.4c11.1,0,22.1,1.1,29.5,18.4l-0.5,572.8v15.3l-22.7-1.1c-13.7,0-36.4-7.9-36.4-17.4
		L1402.8-2323.7z"/>
</g>
<g id="g15121" transform="matrix(1,0,0,-1,100.19018,513.82314)">
	
		<path id="path15123" sodipodi:nodetypes="cscccccc" inkscape:connector-curvature="0" fill="none" stroke="#000000" stroke-width="1.5" stroke-linecap="square" stroke-linejoin="round" d="
		M1690.5-1736.8c7.4,17.4,17.9,18.4,29,18.4c11.1,0,22.1-1.1,29.5-18.4l-0.5-219.7v-15.3l-22.7,1.1c-13.7,0-36.4,7.9-36.4,17.4
		L1690.5-1736.8z"/>
	
		<path id="path15125" sodipodi:nodetypes="csscccccc" inkscape:connector-curvature="0" fill="none" stroke="#000000" stroke-width="1.5" stroke-linecap="square" stroke-linejoin="round" d="
		M1808-1736.8c-1.6,4.2-3.7,7.4-5.8,9.5c-6.8,7.9-15.3,9-23.7,9c-11.1,0-22.1-1.1-29.5-18.4l-0.5-219.7v-15.3l22.7,1.1
		c13.7,0,36.4,7.9,36.4,17.4L1808-1736.8z"/>
	
		<path id="path15127" sodipodi:nodetypes="cscccccc" inkscape:connector-curvature="0" fill="none" stroke="#000000" stroke-width="1.5" stroke-linecap="square" stroke-linejoin="round" d="
		M1807.5-2302.7c-7.4-17.4-17.9-18.4-29-18.4s-22.1,1.1-29.5,18.4v316.2v15.3l22.7-1.1c13.7,0,36.4-7.9,36.4-17.4L1807.5-2302.7z"/>
	
		<path id="path15129" sodipodi:nodetypes="cscccccc" inkscape:connector-curvature="0" fill="none" stroke="#000000" stroke-width="1.5" stroke-linecap="square" stroke-linejoin="round" d="
		M1690.5-2302.7c7.4-17.4,17.9-18.4,29-18.4c11.1,0,22.1,1.1,29.5,18.4l-1.1,316.2v15.3l-22.7-1.1c-13.7,0-36.4-7.9-36.4-17.4
		L1690.5-2302.7z"/>
</g>
<g id="g15153" transform="matrix(1,0,0,-1,135.20629,525.16314)">
	
		<path id="path15155" sodipodi:nodetypes="cscccccc" inkscape:connector-curvature="0" fill="none" stroke="#000000" stroke-width="1.5" stroke-linecap="square" stroke-linejoin="round" d="
		M1840-1785.2c7.4,17.4,17.9,18.4,29,18.4s22.1-1.1,29.5-18.4l-1.1-123.8v-15.3l-22.7,1.1c-13.7,0-36.4,7.9-36.4,17.4L1840-1785.2z"
		/>
	
		<path id="path15157" sodipodi:nodetypes="csscccccc" inkscape:connector-curvature="0" fill="none" stroke="#000000" stroke-width="1.5" stroke-linecap="square" stroke-linejoin="round" d="
		M1957.5-1785.2c-1.6,4.2-3.7,7.4-5.8,9.5c-6.8,7.9-15.3,9-23.7,9c-11.1,0-22.1-1.1-29.5-18.4V-1909v-15.3l22.7,1.1
		c13.7,0,36.4,7.9,36.4,17.4V-1785.2z"/>
	
		<path id="path15159" sodipodi:nodetypes="cscccccc" inkscape:connector-curvature="0" fill="none" stroke="#000000" stroke-width="1.5" stroke-linecap="square" stroke-linejoin="round" d="
		M1957-2292.6c-7.4-17.4-17.9-18.4-29-18.4s-22.1,1.1-29.5,18.4v353v15.3l22.7-1.1c13.7,0,36.4-7.9,36.4-17.4L1957-2292.6z"/>
	
		<path id="path15161" sodipodi:nodetypes="cscccccc" inkscape:connector-curvature="0" fill="none" stroke="#000000" stroke-width="1.5" stroke-linecap="square" stroke-linejoin="round" d="
		M1840-2292.6c7.4-17.4,17.9-18.4,29-18.4s22.1,1.1,29.5,18.4l-0.5,353v15.3l-22.7-1.1c-13.7,0-36.4-7.9-36.4-17.4L1840-2292.6z"/>
</g>
<g id="g15163" transform="matrix(1,0,0,-1,168.32629,529.48314)">
	
		<path id="path15165" sodipodi:nodetypes="cscccccc" inkscape:connector-curvature="0" fill="none" stroke="#000000" stroke-width="1.5" stroke-linecap="square" stroke-linejoin="round" d="
		M1981.4-1803.6c7.4,17.4,17.9,18.4,29,18.4c11.1,0,22.1-1.1,29.5-18.4l-1.1-79v-15.3l-22.1,1.1c-13.7,0-36.4,7.9-36.4,17.4
		L1981.4-1803.6z"/>
	
		<path id="path15167" sodipodi:nodetypes="csscccccc" inkscape:connector-curvature="0" fill="none" stroke="#000000" stroke-width="1.5" stroke-linecap="square" stroke-linejoin="round" d="
		M2098.9-1803.6c-1.6,4.2-3.7,7.4-5.8,9.5c-6.8,7.9-15.3,9-23.7,9c-11.1,0-22.1-1.1-29.5-18.4l-0.5-79v-15.3l22.7,1.1
		c13.7,0,36.4,7.9,36.4,17.4L2098.9-1803.6z"/>
	
		<path id="path15169" sodipodi:nodetypes="cscccccc" inkscape:connector-curvature="0" fill="none" stroke="#000000" stroke-width="1.5" stroke-linecap="square" stroke-linejoin="round" d="
		M2098.4-2287.9c-7.4-17.4-17.9-18.4-29-18.4c-11.1,0-22.1,1.1-29.5,18.4v375.2v15.3l22.7-1.1c13.7,0,36.4-7.9,36.4-17.4
		L2098.4-2287.9z"/>
	
		<path id="path15171" sodipodi:nodetypes="cscccccc" inkscape:connector-curvature="0" fill="none" stroke="#000000" stroke-width="1.5" stroke-linecap="square" stroke-linejoin="round" d="
		M1981.4-2287.9c7.4-17.4,17.9-18.4,29-18.4c11.1,0,22.1,1.1,29.5,18.4l-0.5,375.2v15.3l-22.7-1.1c-13.7,0-36.4-7.9-36.4-17.4
		L1981.4-2287.9z"/>
</g>
<g id="g15909" transform="matrix(0,-0.29019973,-1.25,0,234.22665,321.12444)" inkscape:label="chr19">
	<g id="g15911" transform="scale(0.1,0.1)">
	</g>
</g>
<g id="g16094" transform="matrix(1,0,0,-1,203.20127,552.97313)">
	
		<path id="path16096" sodipodi:nodetypes="cscccccc" inkscape:connector-curvature="0" fill="none" stroke="#000000" stroke-width="1.5" stroke-linecap="square" stroke-linejoin="round" d="
		M2130.3-1903.9c7.4,17.4,17.9,18.4,29,18.4c11.1,0,22.1-1.1,29.5-18.4l-1.1-142.3v-15.3l-22.7,1.1c-13.7,0-36.4,7.9-36.4,17.4
		L2130.3-1903.9z"/>
	
		<path id="path16098" sodipodi:nodetypes="csscccccc" inkscape:connector-curvature="0" fill="none" stroke="#000000" stroke-width="1.5" stroke-linecap="square" stroke-linejoin="round" d="
		M2247.8-1903.9c-1.6,4.2-3.7,7.4-5.8,9.5c-6.8,7.9-15.3,9-23.7,9c-11.1,0-22.1-1.1-29.5-18.4l-0.5-142.3v-15.3l22.7,1.1
		c13.7,0,36.4,7.9,36.4,17.4L2247.8-1903.9z"/>
	
		<path id="path16100" sodipodi:nodetypes="cscccccc" inkscape:connector-curvature="0" fill="none" stroke="#000000" stroke-width="1.5" stroke-linecap="square" stroke-linejoin="round" d="
		M2247.3-2264.9c-7.4-17.4-17.9-18.4-29-18.4s-22.1,1.1-29.5,18.4l-0.5,188.6v15.3l22.7-1.1c13.7,0,36.4-7.9,36.4-17.4V-2264.9z"/>
	
		<path id="path16102" sodipodi:nodetypes="cscccccc" inkscape:connector-curvature="0" fill="none" stroke="#000000" stroke-width="1.5" stroke-linecap="square" stroke-linejoin="round" d="
		M2130.3-2264.9c7.4-17.4,17.9-18.4,29-18.4c11.1,0,22.1,1.1,29.5,18.4l-1.1,188.6v15.3l-22.7-1.1c-13.7,0-36.4-7.9-36.4-17.4
		L2130.3-2264.9z"/>
</g>
<g id="g16104" transform="matrix(1,0,0,-1,236.39218,548.97313)">
	
		<path id="path16106" sodipodi:nodetypes="cscccccc" inkscape:connector-curvature="0" fill="none" stroke="#000000" stroke-width="1.5" stroke-linecap="square" stroke-linejoin="round" d="
		M2272-1886.8c7.4,17.4,17.9,18.4,29,18.4s22.1-1.1,29.5-18.4l-1.1-148.6v-15.3l-22.7,1.1c-13.7,0-36.4,7.9-36.4,17.4L2272-1886.8z"
		/>
	
		<path id="path16108" sodipodi:nodetypes="csscccccc" inkscape:connector-curvature="0" fill="none" stroke="#000000" stroke-width="1.5" stroke-linecap="square" stroke-linejoin="round" d="
		M2389.5-1886.8c-1.6,4.2-3.7,7.4-5.8,9.5c-6.8,7.9-15.3,9-23.7,9c-11.1,0-22.1-1.1-29.5-18.4l-0.5-148.6v-15.3l22.7,1.1
		c13.7,0,36.4,7.9,36.4,17.4L2389.5-1886.8z"/>
	
		<path id="path16110" sodipodi:nodetypes="cscccccc" inkscape:connector-curvature="0" fill="none" stroke="#000000" stroke-width="1.5" stroke-linecap="square" stroke-linejoin="round" d="
		M2389-2268.9c-7.4-17.4-17.9-18.4-29-18.4s-22.1,1.1-29.5,18.4v202.9v15.3l22.7-1.1c13.7,0,36.4-7.9,36.4-17.4L2389-2268.9z"/>
	
		<path id="path16112" sodipodi:nodetypes="cscccccc" inkscape:connector-curvature="0" fill="none" stroke="#000000" stroke-width="1.5" stroke-linecap="square" stroke-linejoin="round" d="
		M2272-2268.9c7.4-17.4,17.9-18.4,29-18.4s22.1,1.1,29.5,18.4l-1.1,202.9v15.3l-22.7-1.1c-13.7,0-36.4-7.9-36.4-17.4L2272-2268.9z"
		/>
</g>
<g id="g16204" transform="matrix(1.25,0,0,-1.25,282.87896,312.69013)" inkscape:label="chr20">
	<g id="g16206" transform="scale(0.1,0.1)">
	</g>
</g>
<g id="g16409" transform="matrix(1,0,0,-1,270.29502,566.97313)">
	<g id="g16871">
		
			<path id="path16411" sodipodi:nodetypes="cscccccc" inkscape:connector-curvature="0" fill="none" stroke="#000000" stroke-width="1.5" stroke-linecap="square" stroke-linejoin="round" d="
			M2416.8-1963.7c7.4,17.4,17.9,18.4,29,18.4c11.1,0,22.1-1.1,29.5-18.4l-1.1-46.9v-15.3l-22.7,1.1c-13.7,0-36.4,7.9-36.4,17.4
			L2416.8-1963.7z"/>
		
			<path id="path16413" sodipodi:nodetypes="csscccccc" inkscape:connector-curvature="0" fill="none" stroke="#000000" stroke-width="1.5" stroke-linecap="square" stroke-linejoin="round" d="
			M2534.3-1963.7c-1.6,4.2-3.7,7.4-5.8,9.5c-6.8,7.9-15.3,9-23.7,9c-11.1,0-22.1-1.1-29.5-18.4v-46.9v-15.3l22.7,1.1
			c13.7,0,36.4,7.9,36.4,17.4V-1963.7z"/>
		
			<path id="path16415" sodipodi:nodetypes="cscccccc" inkscape:connector-curvature="0" fill="none" stroke="#000000" stroke-width="1.5" stroke-linecap="square" stroke-linejoin="round" d="
			M2533.7-2250.9c-7.4-17.4-17.9-18.4-29-18.4c-11.1,0-22.1,1.1-29.5,18.4v209.7v15.3l22.7-1.1c13.7,0,36.4-7.9,36.4-17.4
			L2533.7-2250.9z"/>
		
			<path id="path16417" sodipodi:nodetypes="cscccccc" inkscape:connector-curvature="0" fill="none" stroke="#000000" stroke-width="1.5" stroke-linecap="square" stroke-linejoin="round" d="
			M2416.8-2250.9c7.4-17.4,17.9-18.4,29-18.4c11.1,0,22.1,1.1,29.5,18.4l-0.5,209.7v15.3l-22.7-1.1c-13.7,0-36.4-7.9-36.4-17.4
			L2416.8-2250.9z"/>
	</g>
	<g id="g16877">
		
			<path id="path16879" sodipodi:nodetypes="cscccccc" inkscape:connector-curvature="0" fill="none" stroke="#000000" stroke-width="1.5" stroke-linecap="square" stroke-linejoin="round" d="
			M2416.8-1963.7c7.4,17.4,17.9,18.4,29,18.4c11.1,0,22.1-1.1,29.5-18.4l-1.1-46.9v-15.3l-22.7,1.1c-13.7,0-36.4,7.9-36.4,17.4
			L2416.8-1963.7z"/>
		
			<path id="path16881" sodipodi:nodetypes="csscccccc" inkscape:connector-curvature="0" fill="none" stroke="#000000" stroke-width="1.5" stroke-linecap="square" stroke-linejoin="round" d="
			M2534.3-1963.7c-1.6,4.2-3.7,7.4-5.8,9.5c-6.8,7.9-15.3,9-23.7,9c-11.1,0-22.1-1.1-29.5-18.4v-46.9v-15.3l22.7,1.1
			c13.7,0,36.4,7.9,36.4,17.4V-1963.7z"/>
		
			<path id="path16883" sodipodi:nodetypes="cscccccc" inkscape:connector-curvature="0" fill="none" stroke="#000000" stroke-width="1.5" stroke-linecap="square" stroke-linejoin="round" d="
			M2533.7-2250.9c-7.4-17.4-17.9-18.4-29-18.4c-11.1,0-22.1,1.1-29.5,18.4v209.7v15.3l22.7-1.1c13.7,0,36.4-7.9,36.4-17.4
			L2533.7-2250.9z"/>
		
			<path id="path16885" sodipodi:nodetypes="cscccccc" inkscape:connector-curvature="0" fill="none" stroke="#000000" stroke-width="1.5" stroke-linecap="square" stroke-linejoin="round" d="
			M2416.8-2250.9c7.4-17.4,17.9-18.4,29-18.4c11.1,0,22.1,1.1,29.5,18.4l-0.5,209.7v15.3l-22.7-1.1c-13.7,0-36.4-7.9-36.4-17.4
			L2416.8-2250.9z"/>
	</g>
</g>
<g id="g16664" transform="matrix(1.25,0,0,-1.25,293.35186,285.99343)" inkscape:label="chr21">
	<g id="g16666" transform="scale(0.1,0.1)">
	</g>
</g>
<g id="g16861" transform="matrix(1,0,0,-1,305.19082,562.97313)">
	
		<path id="path16863" sodipodi:nodetypes="cscccccc" inkscape:connector-curvature="0" fill="none" stroke="#000000" stroke-width="1.5" stroke-linecap="square" stroke-linejoin="round" d="
		M2565.7-1946.6c7.4,17.4,17.9,18.4,29,18.4c11.1,0,22.1-1.1,29.5-18.4l-0.5-56.4v-15.3l-22.7,1.1c-13.7,0-36.4,7.9-36.4,17.4
		L2565.7-1946.6z"/>
	
		<path id="path16865" sodipodi:nodetypes="csscccccc" inkscape:connector-curvature="0" fill="none" stroke="#000000" stroke-width="1.5" stroke-linecap="square" stroke-linejoin="round" d="
		M2683.2-1946.6c-1.6,4.2-3.7,7.4-5.8,9.5c-6.8,7.9-15.3,9-23.7,9c-11.1,0-22.1-1.1-29.5-18.4v-56.4v-15.3l22.7,1.1
		c13.7,0,36.4,7.9,36.4,17.4V-1946.6z"/>
	
		<path id="path16867" sodipodi:nodetypes="cscccccc" inkscape:connector-curvature="0" fill="none" stroke="#000000" stroke-width="1.5" stroke-linecap="square" stroke-linejoin="round" d="
		M2682.7-2254.9c-7.4-17.4-17.9-18.4-29-18.4c-11.1,0-22.1,1.1-29.5,18.4v221.3v15.3l22.7-1.1c13.7,0,36.4-7.9,36.4-17.4
		L2682.7-2254.9z"/>
	
		<path id="path16869" sodipodi:nodetypes="cscccccc" inkscape:connector-curvature="0" fill="none" stroke="#000000" stroke-width="1.5" stroke-linecap="square" stroke-linejoin="round" d="
		M2565.7-2254.9c7.4-17.4,17.9-18.4,29-18.4c11.1,0,22.1,1.1,29.5,18.4l-0.5,221.3v15.3l-22.7-0.5c-13.7,0-36.4-7.9-36.4-17.4
		L2565.7-2254.9z"/>
</g>
<g id="g16977" transform="matrix(1.25,0,0,-1.25,337.89958,315.51514)" inkscape:label="chr22">
	<g id="g16979" transform="scale(0.1,0.1)">
	</g>
</g>
<g id="g17200" transform="matrix(1,0,0,-1,343.78671,431.92314)">
	
		<path id="path17202" sodipodi:nodetypes="csccccc" inkscape:connector-curvature="0" fill="none" stroke="#000000" stroke-width="1.5" stroke-linecap="square" stroke-linejoin="round" d="
		M2730.5-1387.1c7.4,17.4,17.9,18.4,29,18.4c11.1,0,22.1-1.1,29.5-18.4l-0.5-369.9c0-7.9-13.2-19-29-19c-13.7,0-29.5,9-29.5,18.4
		L2730.5-1387.1z"/>
	
		<path id="path17208" sodipodi:nodetypes="csccccc" inkscape:connector-curvature="0" fill="none" stroke="#000000" stroke-width="1.5" stroke-linecap="square" stroke-linejoin="round" d="
		M2730.5-2385.6c7.4-17.4,17.9-18.4,29-18.4c11.1,0,22.1,1.1,29.5,18.4l-0.5,592.3c0,6.3-13.7,17.4-29,17.4
		c-13.7,0-29.5-9-29.5-18.4L2730.5-2385.6z"/>
</g>
<g id="g17756" transform="matrix(1.25,0,0,-1.25,293.06109,251.19013)" inkscape:label="chrX">
	<g id="g17758" transform="scale(0.1,0.1)">
	</g>
</g>
<g id="g19367" transform="matrix(1,0,0,-1,-0.07261999,90.283139)">
	
		<path id="path19369" sodipodi:nodetypes="cscccccc" inkscape:connector-curvature="0" fill="none" stroke="#000000" stroke-width="1.5" stroke-linecap="square" stroke-linejoin="round" d="
		M1262.5,71.4c7.4,17.4,17.9,18.4,29,18.4c11.1,0,22.1-1.1,29.5-18.4l-0.5-794.6v-15.3l-22.7,1.1c-13.7,0-36.4,7.9-36.4,17.4
		L1262.5,71.4z"/>
	
		<path id="path19371" sodipodi:nodetypes="csscccccc" inkscape:connector-curvature="0" fill="none" stroke="#000000" stroke-width="1.5" stroke-linecap="square" stroke-linejoin="round" d="
		M1380,71.4c-1.6,4.2-3.7,7.4-5.8,9.5c-6.8,7.9-15.3,9-23.7,9c-11.1,0-22.1-1.1-29.5-18.4v-794.6v-15.3l22.7,1.1
		c13.7,0,36.4,7.9,36.4,17.4V71.4z"/>
	
		<path id="path19373" sodipodi:nodetypes="cscccccc" inkscape:connector-curvature="0" fill="none" stroke="#000000" stroke-width="1.5" stroke-linecap="square" stroke-linejoin="round" d="
		M1379.5-1546.2c-7.4-17.4-17.9-18.4-29-18.4s-22.1,1.1-29.5,18.4v792.5v15.3l22.7-1.1c13.7,0,36.4-7.9,36.4-17.4L1379.5-1546.2z"/>
	
		<path id="path19375" sodipodi:nodetypes="cscccccc" inkscape:connector-curvature="0" fill="none" stroke="#000000" stroke-width="1.5" stroke-linecap="square" stroke-linejoin="round" d="
		M1262.5-1546.2c7.4-17.4,17.9-18.4,29-18.4c11.1,0,22.1,1.1,29.5,18.4l-0.5,792.5v15.3l-22.7-1.1c-13.7,0-36.4-7.9-36.4-17.4
		L1262.5-1546.2z"/>
</g>
<g id="g19387" transform="matrix(1,0,0,-1,32.719419,98.283139)">
	
		<path id="path19389" sodipodi:nodetypes="cscccccc" inkscape:connector-curvature="0" fill="none" stroke="#000000" stroke-width="1.5" stroke-linecap="square" stroke-linejoin="round" d="
		M1402.5,37.2c7.4,17.4,17.9,18.4,29,18.4s22.1-1.1,29.5-18.4l-0.5-582.8v-15.3l-22.7,1.1c-13.7,0-36.4,7.9-36.4,17.4L1402.5,37.2z"
		/>
	
		<path id="path19391" sodipodi:nodetypes="csscccccc" inkscape:connector-curvature="0" fill="none" stroke="#000000" stroke-width="1.5" stroke-linecap="square" stroke-linejoin="round" d="
		M1520,37.2c-1.6,4.2-3.7,7.4-5.8,9.5c-6.8,7.9-15.3,9-23.7,9c-11.1,0-22.1-1.1-29.5-18.4v-582.8v-15.3l22.7,1.1
		c13.7,0,36.4,7.9,36.4,17.4V37.2z"/>
	
		<path id="path19393" sodipodi:nodetypes="cscccccc" inkscape:connector-curvature="0" fill="none" stroke="#000000" stroke-width="1.5" stroke-linecap="square" stroke-linejoin="round" d="
		M1519.5-1538.2c-7.4-17.4-17.9-18.4-29-18.4s-22.1,1.1-29.5,18.4v962.7v15.3l22.7-1.1c13.7,0,36.4-7.9,36.4-17.4L1519.5-1538.2z"/>
	
		<path id="path19395" sodipodi:nodetypes="cscccccc" inkscape:connector-curvature="0" fill="none" stroke="#000000" stroke-width="1.5" stroke-linecap="square" stroke-linejoin="round" d="
		M1402.5-1538.2c7.4-17.4,17.9-18.4,29-18.4s22.1,1.1,29.5,18.4l-0.5,962.7v15.3l-22.7-1.1c-13.7,0-36.4-7.9-36.4-17.4
		L1402.5-1538.2z"/>
</g>
<g id="g19690" transform="matrix(1,0,0,-1,66.162904,154.72314)">
	
		<path id="path19692" sodipodi:nodetypes="cscccccc" inkscape:connector-curvature="0" fill="none" stroke="#000000" stroke-width="1.5" stroke-linecap="square" stroke-linejoin="round" d="
		M1545.3-203.7c7.4,17.4,17.9,18.4,29,18.4c11.1,0,22.1-1.1,29.5-18.4l-0.5-562.8v-15.3l-22.7,1.1c-13.7,0-36.4,7.9-36.4,17.4
		L1545.3-203.7z"/>
	
		<path id="path19694" sodipodi:nodetypes="csscccccc" inkscape:connector-curvature="0" fill="none" stroke="#000000" stroke-width="1.5" stroke-linecap="square" stroke-linejoin="round" d="
		M1662.8-203.7c-1.6,4.2-3.7,7.4-5.8,9.5c-6.8,7.9-15.3,9-23.7,9c-11.1,0-22.1-1.1-29.5-18.4v-562.8v-15.3l22.7,1.1
		c13.7,0,36.4,7.9,36.4,17.4L1662.8-203.7z"/>
	
		<path id="path19696" sodipodi:nodetypes="cscccccc" inkscape:connector-curvature="0" fill="none" stroke="#000000" stroke-width="1.5" stroke-linecap="square" stroke-linejoin="round" d="
		M1662.2-1481.5c-7.4-17.4-17.9-18.4-29-18.4c-11.1,0-22.1,1.1-29.5,18.4v685v15.3l22.7-1.1c13.7,0,36.4-7.9,36.4-17.4
		L1662.2-1481.5z"/>
	
		<path id="path19698" sodipodi:nodetypes="cscccccc" inkscape:connector-curvature="0" fill="none" stroke="#000000" stroke-width="1.5" stroke-linecap="square" stroke-linejoin="round" d="
		M1545.3-1481.5c7.4-17.4,17.9-18.4,29-18.4c11.1,0,22.1,1.1,29.5,18.4l-0.5,685v15.3l-22.7-1.1c-13.7,0-36.4-7.9-36.4-17.4
		L1545.3-1481.5z"/>
</g>
<g id="g19722" transform="matrix(1,0,0,-1,99.98292,188.03314)">
	
		<path id="path19724" sodipodi:nodetypes="cscccccc" inkscape:connector-curvature="0" fill="none" stroke="#000000" stroke-width="1.5" stroke-linecap="square" stroke-linejoin="round" d="
		M1689.7-345.9c7.4,17.4,17.9,18.4,29,18.4s22.1-1.1,29.5-18.4l-1.1-258.7v-15.3l-22.1,1.6c-13.7,0-36.4,7.9-36.4,17.4L1689.7-345.9
		z"/>
	
		<path id="path19726" sodipodi:nodetypes="csscccccc" inkscape:connector-curvature="0" fill="none" stroke="#000000" stroke-width="1.5" stroke-linecap="square" stroke-linejoin="round" d="
		M1807.2-345.9c-1.6,4.2-3.7,7.4-5.8,9.5c-6.8,7.9-15.3,9-23.7,9c-11.1,0-22.1-1.1-29.5-18.4v-258.7v-15.3l22.7,1.1
		c13.7,0,36.4,7.9,36.4,17.4V-345.9z"/>
	
		<path id="path19728" sodipodi:nodetypes="cscccccc" inkscape:connector-curvature="0" fill="none" stroke="#000000" stroke-width="1.5" stroke-linecap="square" stroke-linejoin="round" d="
		M1806.6-1447.2c-7.4-17.4-17.9-18.4-29-18.4c-11.1,0-22.1,1.1-29.5,18.4v812.5v15.3l22.7-1.1c13.7,0,36.4-7.9,36.4-17.4
		L1806.6-1447.2z"/>
	
		<path id="path19730" sodipodi:nodetypes="cscccccc" inkscape:connector-curvature="0" fill="none" stroke="#000000" stroke-width="1.5" stroke-linecap="square" stroke-linejoin="round" d="
		M1689.7-1447.2c7.4-17.4,17.9-18.4,29-18.4s22.1,1.1,29.5,18.4l-0.5,812.5v15.3l-22.7-1.1c-13.7,0-36.4-7.9-36.4-17.4
		L1689.7-1447.2z"/>
</g>
<g id="g19740" transform="matrix(1.25,0,0,-1.25,-0.23686154,-15.941161)" inkscape:label="chr3">
	<g id="g19742" transform="scale(0.1,0.1)">
	</g>
</g>
<g id="g20330" transform="matrix(1,0,0,-1,134.10085,177.22314)">
	<g id="g3728">
		
			<path id="path20332" sodipodi:nodetypes="cscccccc" inkscape:connector-curvature="0" fill="none" stroke="#000000" stroke-width="1.5" stroke-linecap="square" stroke-linejoin="round" d="
			M1835.3-299.8c7.4,17.4,17.9,18.4,29,18.4s22.1-1.1,29.5-18.4l-1.1-277.2v-15.3l-22.7,1.1c-13.7,0-36.4,7.9-36.4,17.4
			L1835.3-299.8z"/>
		
			<path id="path20334" sodipodi:nodetypes="csscccccc" inkscape:connector-curvature="0" fill="none" stroke="#000000" stroke-width="1.5" stroke-linecap="square" stroke-linejoin="round" d="
			M1952.8-299.8c-1.6,4.2-3.7,7.4-5.8,9.5c-6.8,7.9-15.3,9-23.7,9c-11.1,0-22.1-1.1-29.5-18.4v-277.2v-15.3l22.7,1.1
			c13.7,0,36.4,7.9,36.4,17.4V-299.8z"/>
		
			<path id="path20336" sodipodi:nodetypes="cscccccc" inkscape:connector-curvature="0" fill="none" stroke="#000000" stroke-width="1.5" stroke-linecap="square" stroke-linejoin="round" d="
			M1952.3-1457.9c-7.4-17.4-17.9-18.4-29-18.4c-11.1,0-22.1,1.1-29.5,18.4v851v15.3l22.7-1.1c13.7,0,36.4-7.9,36.4-17.4
			L1952.3-1457.9z"/>
		
			<path id="path20338" sodipodi:nodetypes="cscccccc" inkscape:connector-curvature="0" fill="none" stroke="#000000" stroke-width="1.5" stroke-linecap="square" stroke-linejoin="round" d="
			M1835.3-1457.9c7.4-17.4,17.9-18.4,29-18.4s22.1,1.1,29.5,18.4l-0.5,851v15.3l-22.7-1.1c-13.7,0-36.4-7.9-36.4-17.4L1835.3-1457.9
			z"/>
	</g>
</g>
<g id="g20598" transform="matrix(1,0,0,-1,167.7031,189.1412)">
	
		<path id="path20600" sodipodi:nodetypes="cscccccc" inkscape:connector-curvature="0" fill="none" stroke="#000000" stroke-width="1.5" stroke-linecap="square" stroke-linejoin="round" d="
		M1978.8-350.6c7.4,17.4,17.9,18.4,29,18.4s22.1-1.1,29.5-18.4l-1.1-363.6v-15.3l-22.7,1.1c-13.7,0-36.4,7.9-36.4,17.4L1978.8-350.6
		z"/>
	
		<path id="path20602" sodipodi:nodetypes="csscccccc" inkscape:connector-curvature="0" fill="none" stroke="#000000" stroke-width="1.5" stroke-linecap="square" stroke-linejoin="round" d="
		M2096.3-350.6c-1.6,4.2-3.7,7.4-5.8,9.5c-6.9,7.9-15.3,9-23.7,9c-11.1,0-22.1-1.1-29.5-18.4l-0.5-363.6v-15.3l22.7,1.1
		c13.7,0,36.4,7.9,36.4,17.4L2096.3-350.6z"/>
	
		<path id="path20604" sodipodi:nodetypes="cscccccc" inkscape:connector-curvature="0" fill="none" stroke="#000000" stroke-width="1.5" stroke-linecap="square" stroke-linejoin="round" d="
		M2095.7-1445.6c-7.4-17.4-17.9-18.4-29-18.4c-11.1,0-22.1,1.1-29.5,18.4v701.3v15.3l22.7-1.1c13.7,0,36.4-7.9,36.4-17.4
		L2095.7-1445.6z"/>
	
		<path id="path20606" sodipodi:nodetypes="cscccccc" inkscape:connector-curvature="0" fill="none" stroke="#000000" stroke-width="1.5" stroke-linecap="square" stroke-linejoin="round" d="
		M1978.8-1445.6c7.4-17.4,17.9-18.4,29-18.4s22.1,1.1,29.5,18.4l-0.5,701.3v15.3l-22.7-1.1c-13.7,0-36.4-7.9-36.4-17.4
		L1978.8-1445.6z"/>
</g>
<g id="g20933" transform="matrix(1,0,0,-1,236.10935,221.1412)">
	
		<path id="path20935" sodipodi:nodetypes="cscccccc" inkscape:connector-curvature="0" fill="none" stroke="#000000" stroke-width="1.5" stroke-linecap="square" stroke-linejoin="round" d="
		M2270.8-487.3c7.4,17.4,17.9,18.4,29,18.4s22.1-1.1,29.5-18.4l-0.5-267.1v-15.3l-22.7,1.1c-13.7,0-36.4,7.9-36.4,17.4L2270.8-487.3
		z"/>
	
		<path id="path20937" sodipodi:nodetypes="csscccccc" inkscape:connector-curvature="0" fill="none" stroke="#000000" stroke-width="1.5" stroke-linecap="square" stroke-linejoin="round" d="
		M2388.3-487.3c-1.6,4.2-3.7,7.4-5.8,9.5c-6.8,7.9-15.3,9-23.7,9c-11.1,0-22.1-1.1-29.5-18.4v-267.1v-15.3l22.7,1.1
		c13.7,0,36.4,7.9,36.4,17.4V-487.3z"/>
	
		<path id="path20939" sodipodi:nodetypes="cscccccc" inkscape:connector-curvature="0" fill="none" stroke="#000000" stroke-width="1.5" stroke-linecap="square" stroke-linejoin="round" d="
		M2387.8-1413.6c-7.4-17.4-17.9-18.4-29-18.4c-11.1,0-22.1,1.1-29.5,18.4V-785v15.3l22.7-1.1c13.7,0,36.4-7.9,36.4-17.4
		L2387.8-1413.6z"/>
	
		<path id="path20941" sodipodi:nodetypes="cscccccc" inkscape:connector-curvature="0" fill="none" stroke="#000000" stroke-width="1.5" stroke-linecap="square" stroke-linejoin="round" d="
		M2270.8-1413.6c7.4-17.4,17.9-18.4,29-18.4s22.1,1.1,29.5,18.4l-0.5,628.6v15.3l-22.7-1.1c-13.7,0-36.4-7.9-36.4-17.4
		L2270.8-1413.6z"/>
</g>
<g id="g21432" transform="matrix(1,0,0,-1,275.9531,227.1412)">
	<g id="g21922" transform="translate(-5.375,-1.0546876e-6)">
		
			<path id="path21434" sodipodi:nodetypes="cscccccc" inkscape:connector-curvature="0" fill="none" stroke="#000000" stroke-width="1.5" stroke-linecap="square" stroke-linejoin="round" d="
			M2418-512.9c7.4,17.4,17.9,18.4,29,18.4c11.1,0,22.1-1.1,29.5-18.4l-1.1-316.7v-15.3l-22.7,1.1c-13.7,0-36.4,7.9-36.4,17.4
			L2418-512.9z"/>
		
			<path id="path21436" sodipodi:nodetypes="csscccccc" inkscape:connector-curvature="0" fill="none" stroke="#000000" stroke-width="1.5" stroke-linecap="square" stroke-linejoin="round" d="
			M2535.5-512.9c-1.6,4.2-3.7,7.4-5.8,9.5c-6.8,7.9-15.3,9-23.7,9c-11.1,0-22.1-1.1-29.5-18.4v-316.7v-15.3l22.7,1.1
			c13.7,0,36.4,7.9,36.4,17.4V-512.9z"/>
		
			<path id="path21438" sodipodi:nodetypes="cscccccc" inkscape:connector-curvature="0" fill="none" stroke="#000000" stroke-width="1.5" stroke-linecap="square" stroke-linejoin="round" d="
			M2534.9-1407.6c-7.4-17.4-17.9-18.4-29-18.4c-11.1,0-22.1,1.1-29.5,18.4v547.5v15.3l22.7-1.1c13.7,0,36.4-7.9,36.4-17.4
			L2534.9-1407.6z"/>
		
			<path id="path21440" sodipodi:nodetypes="cscccccc" inkscape:connector-curvature="0" fill="none" stroke="#000000" stroke-width="1.5" stroke-linecap="square" stroke-linejoin="round" d="
			M2418-1407.6c7.4-17.4,17.9-18.4,29-18.4c11.1,0,22.1,1.1,29.5,18.4l-0.5,547.5v15.3l-22.7-1.1c-13.7,0-36.4-7.9-36.4-17.4
			L2418-1407.6z"/>
	</g>
</g>
<g id="g21934" transform="matrix(1,0,0,-1,304.7031,235.1412)">
	
		<path id="path21936" sodipodi:nodetypes="cscccccc" inkscape:connector-curvature="0" fill="none" stroke="#000000" stroke-width="1.5" stroke-linecap="square" stroke-linejoin="round" d="
		M2563.6-547c7.4,17.4,17.9,18.4,29,18.4c11.1,0,22.1-1.1,29.5-18.4l-1.1-229.2v-15.3l-22.7,1.1c-13.7,0-36.4,7.9-36.4,17.4
		L2563.6-547z"/>
	
		<path id="path21938" sodipodi:nodetypes="csscccccc" inkscape:connector-curvature="0" fill="none" stroke="#000000" stroke-width="1.5" stroke-linecap="square" stroke-linejoin="round" d="
		M2681.1-547c-1.6,4.2-3.7,7.4-5.8,9.5c-6.9,7.9-15.3,9-23.7,9c-11.1,0-22.1-1.1-29.5-18.4v-229.2v-15.3l22.7,1.1
		c13.7,0,36.4,7.9,36.4,17.4V-547z"/>
	
		<path id="path21940" sodipodi:nodetypes="cscccccc" inkscape:connector-curvature="0" fill="none" stroke="#000000" stroke-width="1.5" stroke-linecap="square" stroke-linejoin="round" d="
		M2680.6-1399.6c-7.4-17.4-17.9-18.4-29-18.4c-11.1,0-22.1,1.1-29.5,18.4v593.3v15.3l22.7-1.1c13.7,0,36.4-7.9,36.4-17.4
		L2680.6-1399.6z"/>
	
		<path id="path21942" sodipodi:nodetypes="cscccccc" inkscape:connector-curvature="0" fill="none" stroke="#000000" stroke-width="1.5" stroke-linecap="square" stroke-linejoin="round" d="
		M2563.6-1399.6c7.4-17.4,17.9-18.4,29-18.4c11.1,0,22.1,1.1,29.5,18.4l-0.5,593.3v15.3l-22.7-1.1c-13.7,0-36.4-7.9-36.4-17.4
		L2563.6-1399.6z"/>
</g>
<g id="g22276" transform="matrix(1,0,0,-1,338.3281,235.1412)">
	
		<path id="path22278" sodipodi:nodetypes="cscccccc" inkscape:connector-curvature="0" fill="none" stroke="#000000" stroke-width="1.5" stroke-linecap="square" stroke-linejoin="round" d="
		M2707.2-547c7.4,17.4,17.9,18.4,29,18.4c11.1,0,22.1-1.1,29.5-18.4l-1.1-319.3v-15.3l-22.7,1.1c-13.7,0-36.4,7.9-36.4,17.4
		L2707.2-547z"/>
	
		<path id="path22280" sodipodi:nodetypes="csscccccc" inkscape:connector-curvature="0" fill="none" stroke="#000000" stroke-width="1.5" stroke-linecap="square" stroke-linejoin="round" d="
		M2824.7-547c-1.6,4.2-3.7,7.4-5.8,9.5c-6.8,7.9-15.3,9-23.7,9c-11.1,0-22.1-1.1-29.5-18.4v-319.3v-15.3l22.7,1.1
		c13.7,0,36.4,7.9,36.4,17.4V-547z"/>
	
		<path id="path22282" sodipodi:nodetypes="cscccccc" inkscape:connector-curvature="0" fill="none" stroke="#000000" stroke-width="1.5" stroke-linecap="square" stroke-linejoin="round" d="
		M2824.2-1399.6c-7.4-17.4-17.9-18.4-29-18.4c-11.1,0-22.1,1.1-29.5,18.4v502.7v15.3l22.7-1.1c13.7,0,36.4-7.9,36.4-17.4
		L2824.2-1399.6z"/>
	
		<path id="path22284" sodipodi:nodetypes="cscccccc" inkscape:connector-curvature="0" fill="none" stroke="#000000" stroke-width="1.5" stroke-linecap="square" stroke-linejoin="round" d="
		M2707.2-1399.6c7.4-17.4,17.9-18.4,29-18.4c11.1,0,22.1,1.1,29.5,18.4l-0.5,502.7v15.3l-22.7-1.1c-13.7,0-36.4-7.9-36.4-17.4
		L2707.2-1399.6z"/>
</g>
<g id="g22328" transform="matrix(1,0,0,-1,373.27969,235.72314)">
	
		<path id="path22330" sodipodi:nodetypes="cscccccc" inkscape:connector-curvature="0" fill="none" stroke="#000000" stroke-width="1.5" stroke-linecap="square" stroke-linejoin="round" d="
		M2856.4-549.5c7.4,17.4,17.9,18.4,29,18.4s22.1-1.1,29.5-18.4l-1.1-192.9v-15.3l-22.7,1.1c-13.7,0-36.4,7.9-36.4,17.4L2856.4-549.5
		z"/>
	
		<path id="path22332" sodipodi:nodetypes="csscccccc" inkscape:connector-curvature="0" fill="none" stroke="#000000" stroke-width="1.5" stroke-linecap="square" stroke-linejoin="round" d="
		M2973.9-549.5c-1.6,4.2-3.7,7.4-5.8,9.5c-6.8,7.9-15.3,9-23.7,9c-11.1,0-22.1-1.1-29.5-18.4v-192.9v-15.3l22.7,1.1
		c13.7,0,36.4,7.9,36.4,17.4V-549.5z"/>
	
		<path id="path22334" sodipodi:nodetypes="cscccccc" inkscape:connector-curvature="0" fill="none" stroke="#000000" stroke-width="1.5" stroke-linecap="square" stroke-linejoin="round" d="
		M2973.4-1398.9c-7.4-17.4-17.9-18.4-29-18.4s-22.1,1.1-29.5,18.4v626v15.3l22.7-1.1c13.7,0,36.4-7.9,36.4-17.4L2973.4-1398.9z"/>
	
		<path id="path22336" sodipodi:nodetypes="cscccccc" inkscape:connector-curvature="0" fill="none" stroke="#000000" stroke-width="1.5" stroke-linecap="square" stroke-linejoin="round" d="
		M2856.4-1398.9c7.4-17.4,17.9-18.4,29-18.4s22.1,1.1,29.5,18.4l-0.5,626v15.3l-22.7-1.1c-13.7,0-36.4-7.9-36.4-17.4L2856.4-1398.9z
		"/>
</g>
<g id="g3794" transform="matrix(1,0,0,-1,202.9531,205.1412)">
	
		<path id="path3796" sodipodi:nodetypes="cscccccc" inkscape:connector-curvature="0" fill="none" stroke="#000000" stroke-width="1.5" stroke-linecap="square" stroke-linejoin="round" d="
		M2129.3-419c7.4,17.4,17.9,18.4,29,18.4c11.1,0,22.1-1.1,29.5-18.4l-1.1-356.2v-15.3l-22.7,1.1c-13.7,0-36.4,7.9-36.4,17.4
		L2129.3-419z"/>
	
		<path id="path3798" sodipodi:nodetypes="csscccccc" inkscape:connector-curvature="0" fill="none" stroke="#000000" stroke-width="1.5" stroke-linecap="square" stroke-linejoin="round" d="
		M2246.8-419c-1.6,4.2-3.7,7.4-5.8,9.5c-6.8,7.9-15.3,9-23.7,9c-11.1,0-22.1-1.1-29.5-18.4v-356.2v-15.3l22.7,1.1
		c13.7,0,36.4,7.9,36.4,17.4V-419z"/>
	
		<path id="path3800" sodipodi:nodetypes="cscccccc" inkscape:connector-curvature="0" fill="none" stroke="#000000" stroke-width="1.5" stroke-linecap="square" stroke-linejoin="round" d="
		M2246.2-1429.6c-7.4-17.4-17.9-18.4-29-18.4c-11.1,0-22.1,1.1-29.5,18.4v623.9v15.3l22.7-1.1c13.7,0,36.4-7.9,36.4-17.4
		L2246.2-1429.6z"/>
	
		<path id="path3802" sodipodi:nodetypes="cscccccc" inkscape:connector-curvature="0" fill="none" stroke="#000000" stroke-width="1.5" stroke-linecap="square" stroke-linejoin="round" d="
		M2129.3-1429.6c7.4-17.4,17.9-18.4,29-18.4c11.1,0,22.1,1.1,29.5,18.4l-0.5,624.4v15.3l-22.7-1.6c-13.7,0-36.4-7.9-36.4-17.4
		L2129.3-1429.6z"/>
</g>
<g id="g3967" transform="matrix(1,0,0,-1,203.20127,552.97313)">
	
		<path id="path3969" sodipodi:nodetypes="cscccccc" inkscape:connector-curvature="0" fill="none" stroke="#000000" stroke-width="1.5" stroke-linecap="square" stroke-linejoin="round" d="
		M2130.3-1903.9c7.4,17.4,17.9,18.4,29,18.4c11.1,0,22.1-1.1,29.5-18.4l-1.1-142.3v-15.3l-22.7,1.1c-13.7,0-36.4,7.9-36.4,17.4
		L2130.3-1903.9z"/>
	
		<path id="path3971" sodipodi:nodetypes="csscccccc" inkscape:connector-curvature="0" fill="none" stroke="#000000" stroke-width="1.5" stroke-linecap="square" stroke-linejoin="round" d="
		M2247.8-1903.9c-1.6,4.2-3.7,7.4-5.8,9.5c-6.8,7.9-15.3,9-23.7,9c-11.1,0-22.1-1.1-29.5-18.4l-0.5-142.3v-15.3l22.7,1.1
		c13.7,0,36.4,7.9,36.4,17.4L2247.8-1903.9z"/>
	
		<path id="path3973" sodipodi:nodetypes="cscccccc" inkscape:connector-curvature="0" fill="none" stroke="#000000" stroke-width="1.5" stroke-linecap="square" stroke-linejoin="round" d="
		M2247.3-2264.9c-7.4-17.4-17.9-18.4-29-18.4s-22.1,1.1-29.5,18.4l-0.5,188.6v15.3l22.7-1.1c13.7,0,36.4-7.9,36.4-17.4V-2264.9z"/>
	
		<path id="path3975" sodipodi:nodetypes="cscccccc" inkscape:connector-curvature="0" fill="none" stroke="#000000" stroke-width="1.5" stroke-linecap="square" stroke-linejoin="round" d="
		M2130.3-2264.9c7.4-17.4,17.9-18.4,29-18.4c11.1,0,22.1,1.1,29.5,18.4l-1.1,188.6v15.3l-22.7-1.1c-13.7,0-36.4-7.9-36.4-17.4
		L2130.3-2264.9z"/>
</g><rect x="1269.08687477409" y="8.34725648085747" fill="1.39899970547" width="103.626250451819" height="3.14447147355352"/>
<rect x="1221.08033495166" y="12.8253146919943" fill="5.86089396759" width="199.639330096678" height="11.2786901020399"/>
<rect x="961.58037370602" y="24.5557070608061" fill="8.00476815279" width="718.63925258796" height="4.09072363354312"/>
<rect x="846.120429271222" y="28.6599520909519" fill="10.55211955" width="949.559141457556" height="6.04524582709064"/>
<rect x="694.76003500267" y="34.7074946304748" fill="14.0148206645" width="1252.27992999466" height="6.04651366545642"/>
<rect x="488.05294267245" y="40.8358801200339" fill="69.1366370943" width="1665.6941146551" height="235.614690261895"/>
<rect x="-2779.16961428103" y="276.480626780464" fill="69.3355006488" width="8200.13922856206" height="2.76217505993696"/>
<rect x="-2790.70283947251" y="279.245218034983" fill="71.6170533344" width="8223.20567894502" height="17.6000193496008"/>
<rect x="-2926.6543665732" y="296.881394010649" fill="71.9746411807" width="8495.1087331464" height="2.57630066245656"/>
<rect x="-2947.44883447689" y="299.471946238401" fill="96.9819293249" width="8536.69766895378" height="141.589911892336"/>
<rect x="-4430.18059354178" y="441.074383842759" fill="98.5709171195" width="11502.1611870836" height="10.6235827512742"/>
<rect x="-4524.48000352556" y="451.812111874337" fill="100.036229337" width="11690.7600070511" height="5.94577029960539"/>
<rect x="-4613.0143864177" y="457.785900738037" fill="100.235508359" width="11867.8287728354" height="0.960058986171987"/>
<rect x="-4623.0675727015" y="458.761499041561" fill="101.148545085" width="11887.935145403" height="8.31042160974192"/>
<rect x="-4677.5495377189" y="467.138850568802" fill="102.299984419" width="11996.8990754378" height="5.68909609055697"/>
<rect x="-4745.4905281851" y="472.858454434904" fill="175.612577865" width="12132.7810563702" height="589.23047591725"/>
<rect x="-9093.3534890639" y="1062.13886061492" fill="177.228636522" width="20828.5069781278" height="4.82095870485296"/>
<rect x="-9188.7652741483" y="1066.96364274856" fill="227.259042635" width="21019.3305482966" height="307.228135441637"/>
<rect x="-12155.9584245774" y="1374.2316387629" fill="228.883859291" width="26953.7168491548" height="9.96925203448131"/>
<rect x="-12252.180447147" y="1384.23887284518" fill="233.710233257" width="27146.160894294" height="18.4261919491867"/>
<rect x="-12538.2846944291" y="1402.72590112223" fill="234.209329395" width="27718.3693888582" height="5.25321857071708"/>
<rect x="-12568.1194600645" y="1408.02829987332" fill="235.325439812" width="27778.038920129" height="10.6868485495168"/>
<rect x="-12633.9365751325" y="1418.72694396617" fill="237.077698733" width="27909.673150265" height="5.72261083353533"/>
<rect x="-12738.0532708647" y="1424.59734758093" fill="237.585076256" width="28117.9065417294" height="1.54685573682082"/>
<rect x="-12767.929732287" y="1426.16452192109" fill="238.276781328" width="28177.659464574" height="3.76633623512612"/>
<rect x="-12809.0151216344" y="1430.06528885037" fill="242.673168626" width="28259.8302432688" height="22.770708944392"/>
<rect x="-13070.3561698395" y="1453.15046153686" fill="243.241633095" width="28782.512339679" height="2.18647687341149"/>
<rect x="-13103.7488531072" y="1455.50354963007" fill="255.992336955" width="28849.2977062144" height="85.885826920367"/>
<rect x="-13859.4914256685" y="1541.39678444372" fill="256.574799487" width="30360.782851337" height="1.72829601896956"/>
<rect x="-13893.9902821226" y="1543.12784846582" fill="293.390546561" width="30429.7805642452" height="112.607206505215"/>
<rect x="1491.38771896289" y="43.8438960185971" fill="0.682753193532" width="4.6245620742181" height="3.63683326765814"/>
<rect x="1449.8842320715" y="47.5617738109876" fill="12.5377954669" width="87.6315358569946" height="36.9635034050849"/>
<rect x="748.91291666959" y="84.6738477948296" fill="13.8029275386" width="1489.57416666082" height="4.22823818382131"/>
<rect x="669.97657407151" y="88.9215249958724" fill="29.9468631423" width="1647.44685185698" height="42.1359925134346"/>
<rect x="-282.28922315152" y="131.100274065263" fill="30.8127882332" width="3551.97844630304" height="4.86599971949764"/>
<rect x="-333.67499603926" y="136.058622376465" fill="33.2791907485" width="3654.74999207852" height="13.398349249856"/>
<rect x="-481.55283006353" y="149.543432821268" fill="34.723457568" width="3950.50566012706" height="2.53253531866629"/>
<rect x="-566.32635071555" y="152.106644924615" fill="43.0551605915" width="4120.0527014311" height="40.5138423280392"/>
<rect x="-1059.53404603076" y="192.723510065957" fill="43.7328858229" width="5106.46809206152" height="4.53726021407138"/>
<rect x="-1101.12235652557" y="197.299250517393" fill="94.3093782774" width="5189.64471305114" height="297.159363360694"/>
<rect x="-4099.08035275421" y="494.476819724367" fill="95.1215710742" width="11185.5607055084" height="1.8279173540468"/>
<rect x="-4147.0228355323" y="496.330474549373" fill="103.852434575" width="11281.4456710646" height="46.0385409694292"/>
<rect x="-4664.7997337875" y="542.435049833784" fill="105.083752916" width="12316.999467575" height="2.84309549761878"/>
<rect x="-4738.0585329354" y="545.305964607072" fill="109.505918912" width="12463.5170658708" height="23.5802439243953"/>
<rect x="-5000.035292855" y="568.89492028748" fill="110.042950538" width="12987.47058571" height="2.84328776620657"/>
<rect x="-5032.0557881175" y="571.790001233268" fill="118.329012196" width="13051.511576235" height="57.6042191901538"/>
<rect x="-5524.1922196997" y="629.479501487037" fill="121.031418284" width="14035.7844393994" height="61.605646739887"/>
<rect x="-5685.1233396244" y="693.45642986999" fill="121.630968072" width="14357.6466792488" height="9.05663281952627"/>
<rect x="-5719.0184714363" y="702.51354004601" fill="121.829919969" width="14425.4369428726" height="4.58416711954271"/>
<rect x="-5731.8674959902" y="707.592560100885" fill="124.344322149" width="14451.1349919804" height="20.983630126382"/>
<rect x="-5880.1677653118" y="728.705812405199" fill="124.354114829" width="14747.7355306236" height="0.1111643935036"/>
<rect x="-5880.5055601121" y="728.836966101882" fill="140.933377623" width="14748.4111202242" height="112.680265569599"/>
<rect x="-6863.8466707219" y="841.547835526698" fill="143.47567106" width="16715.0933414438" height="9.81686944562966"/>
<rect x="-7014.5442996292" y="851.376817893359" fill="169.756584936" width="17016.4885992584" height="190.619785208081"/>
<rect x="-8573.5962116071" y="1042.05854010652" fill="171.910456951" width="20134.5924232142" height="10.2124521200965"/>
<rect x="-8701.2676038453" y="1052.54021465919" fill="181.922310891" width="20389.9352076906" height="92.3819933993004"/>
<rect x="-9294.4946876804" y="1145.0021122316" fill="182.308021418" width="21576.3893753608" height="4.02246438521865"/>
<rect x="-9317.8913039661" y="1149.17456600515" fill="193.630846132" width="21623.1826079322" height="51.8725334690728"/>
<rect x="-9988.8863706905" y="1201.14274978168" fill="194.641999376" width="22965.172741381" height="6.43836560055593"/>
<rect x="-10048.9551721228" y="1207.59106030919" fill="209.445746501" width="23085.3103442456" height="117.609296236138"/>
<rect x="-10926.8262052193" y="1325.30028980132" fill="210.204252714" width="24841.0524104386" height="13.8150416892727"/>
<rect x="-10971.4206370797" y="1339.12814718646" fill="217.264240205" width="24930.2412741594" height="65.9102553327718"/>
<rect x="-11393.0236437289" y="1405.15064096485" fill="218.03333745" width="25773.4472874578" height="5.50427839137546"/>
<rect x="-11435.8810837093" y="1410.71051812786" fill="264.119222451" width="25859.1621674186" height="211.277665937075"/>
<rect x="-14168.6075899554" y="1621.99403831193" fill="266.831826421" width="31324.6151799108" height="8.90363343329841"/>
<rect x="-14329.4334998201" y="1630.89998559824" fill="274.789360682" width="31646.2669996402" height="22.2104760952654"/>
<rect x="1669.63026195101" y="341.844119091963" fill="3.22698025299" width="0.539476097988912" height="11.3093020669426"/>
<rect x="1478.01602546821" y="353.228470075334" fill="3.84786922785" width="383.767949063578" height="2.36654382586861"/>
<rect x="1428.08246628613" y="355.695676646327" fill="9.59484117553" width="483.635067427732" height="9.31916467392103"/>
<rect x="1087.82178660129" y="365.061859758513" fill="9.84404595362" width="1164.15642679742" height="0.0976884073183051"/>
<rect x="1075.7586715202" y="365.317951571446" fill="15.4417540959" width="1188.2826569596" height="12.8792611316809"/>
<rect x="735.71064661774" y="378.400204619244" fill="16.1480479294" width="1868.37870676452" height="1.45125775751767"/>
<rect x="692.53584223477" y="379.977513219588" fill="28.9851275455" width="1954.72831553046" height="40.3720945410073"/>
<rect x="-67.01366807365" y="420.492581788841" fill="29.7234028694" width="3473.8273361473" height="2.48834561468618"/>
<rect x="-93.0777654370997" y="423.070535969082" fill="40.7932530207" width="3525.9555308742" height="61.3854791010291"/>
<rect x="-749.43798307303" y="484.48350113823" fill="41.6705578261" width="4838.67596614606" height="2.12868311029209"/>
<rect x="-801.60257930655" y="486.684391610082" fill="43.7280651229" width="4943.0051586131" height="11.9141748225188"/>
<rect x="-927.20139046865" y="498.644217206606" fill="45.6545295504" width="5194.2027809373" height="6.94306711567978"/>
<rect x="-1038.19122059583" y="505.682396740612" fill="48.0256801406" width="5416.18244119166" height="12.8868164808401"/>
<rect x="-1178.11150020597" y="518.579689795242" fill="48.9337620998" width="5696.02300041194" height="6.29717107147911"/>
<rect x="-1232.06300938998" y="524.900323611825" fill="58.3310532414" width="5803.92601877996" height="41.5794632375737"/>
<rect x="-1789.1357637945" y="566.504033013836" fill="59.2345233824" width="6918.071527589" height="6.1611747866138"/>
<rect x="-1842.72516524937" y="572.674011309224" fill="61.653324274" width="7025.25033049874" height="20.6988350587355"/>
<rect x="-1986.26079142856" y="593.433189574029" fill="62.1451158492" width="7312.32158285712" height="4.4150658766282"/>
<rect x="-2015.37910363174" y="597.85580416067" fill="80.9501918382" width="7370.55820726348" height="150.761661236558"/>
<rect x="-3130.49806773817" y="748.629933715085" fill="81.5213964935" width="9600.79613547634" height="2.30936749286428"/>
<rect x="-3164.41831247742" y="750.959948954772" fill="89.6428669871" width="9668.63662495484" height="32.3997007308718"/>
<rect x="-3645.99881780177" y="783.362126087434" fill="90.6952878455" width="10631.7976356035" height="2.30822555959946"/>
<rect x="-3708.33339540499" y="785.676008200182" fill="112.135129425" width="10756.46679081" height="206.603027780237"/>
<rect x="-4979.7176894708" y="992.299438078807" fill="112.365391908" width="13299.2353789416" height="1.51152793297206"/>
<rect x="-4993.639170002" y="993.855149534323" fill="163.030282506" width="13327.078340004" height="337.176218457677"/>
<rect x="-7997.8784511998" y="1331.04793266349" fill="164.344642942" width="19335.5569023996" height="6.70313498627399"/>
<rect x="-8076.1510421021" y="1337.79543706842" fill="184.76838734" width="19492.1020842042" height="152.513127938082"/>
<rect x="-9287.7692128053" y="1490.73038320406" fill="185.358312966" width="21915.3384256106" height="1.33055142793683"/>
<rect x="-9321.9784611054" y="1492.07564034236" fill="190.115467983" width="21983.7569222108" height="18.7405390141914"/>
<rect x="-9603.9854599237" y="1510.88143553132" fill="190.569634141" width="22547.7709198474" height="1.77786394955342"/>
<rect x="-9630.8804864696" y="1512.69902813585" fill="227.665249642" width="22601.5609729392" height="141.886277058109"/>
<rect x="1835.61516532173" y="518.337654111384" fill="11.4818743865" width="24.5696693565496" height="33.7582201828433"/>
<rect x="1164.41721174391" y="552.101810262408" fill="12.0699663719" width="1366.96557651218" height="0.630135470785909"/>
<rect x="1132.0588504796" y="552.737899562864" fill="17.1517287652" width="1431.6822990408" height="7.5578985520575"/>
<rect x="828.33535859711" y="560.348162046869" fill="18.9831012505" width="2039.12928280578" height="1.60781979472957"/>
<rect x="722.10077598988" y="561.967079780104" fill="114.671221326" width="2251.59844802024" height="562.771412736799"/>
<rect x="-4954.1604045895" y="1124.84817992091" fill="114.936782879" width="13604.120809179" height="3.02346782919994"/>
<rect x="-4968.0159642164" y="1127.87593450748" fill="161.020586705" width="13631.8319284328" height="306.967192897113"/>
<rect x="-7700.9156001926" y="1434.86533518926" fill="161.28099989" width="19097.6312003852" height="0.627986138275105"/>
<rect x="-7716.4556679973" y="1435.50569338559" fill="167.298048761" width="19128.7113359946" height="30.8908855829101"/>
<rect x="-8072.9669734542" y="1466.42896184807" fill="168.787662788" width="19841.7339469084" height="11.263329939321"/>
<rect x="-8161.4991025431" y="1477.72421622208" fill="179.50718749" width="20018.7982050862" height="52.2849484434238"/>
<rect x="-8797.3119676623" y="1530.03852895344" fill="179.565627682" width="21290.4239353246" height="0.272036431452989"/>
<rect x="-8800.6229009132" y="1530.49920652416" fill="180.674409647" width="21297.0458018264" height="8.64395448365485"/>
<rect x="-8869.7249764251" y="1539.40757653729" fill="181.385152274" width="21435.2499528502" height="5.67813758714965"/>
<rect x="-8908.3575961482" y="1545.13977489784" fill="210.972168158" width="21512.5151922964" height="85.7982221198129"/>
<rect x="-10665.5860187388" y="1630.99115876278" fill="211.956280833" width="25026.9720374776" height="2.23525818067492"/>
<rect x="-10722.3505043851" y="1633.33502670429" fill="219.995743698" width="25140.5010087702" height="20.9889821512547"/>
<rect x="2027.61199719739" y="461.251940709147" fill="0.780951254159" width="0.176005605223114" height="5.81568917072004"/>
<rect x="1981.08059821724" y="467.184520486553" fill="4.45528786293" width="93.238803565529" height="9.0161401094634"/>
<rect x="1760.06149225262" y="476.229732964483" fill="5.17813242876" width="535.27701549476" height="1.08727090904327"/>
<rect x="1718.69997327415" y="477.476806115195" fill="50.4599431693" width="618.000053451694" height="197.890307652323"/>
<rect x="-972.38210332973" y="675.407752988333" fill="50.9951624045" width="6000.16420665946" height="1.55277230898045"/>
<rect x="-998.41248229808" y="677.120690861014" fill="56.6155599413" width="6052.22496459616" height="24.7260394722921"/>
<rect x="-1329.63784113299" y="701.84997380818" fill="57.2870840978" width="6714.67568226598" height="1.81682155059775"/>
<rect x="-1369.60126393092" y="703.695808274548" fill="59.7254892088" width="6794.60252786184" height="13.2010352161559"/>
<rect x="-1514.0799677965" y="716.934397777169" fill="60.4866159099" width="7083.559935593" height="5.1690816462912"/>
<rect x="-1559.4283469136" y="722.155824219582" fill="65.2988336742" width="7174.2566938272" height="93.8388872563873"/>
<rect x="-1844.5226612327" y="815.995550419572" fill="66.7144226036" width="7744.4453224654" height="4.92039101787219"/>
<rect x="-1929.10371937617" y="821.080156390345" fill="74.0431912136" width="7913.60743875234" height="56.5295458995553"/>
<rect x="-2363.06749768417" y="877.61893066953" fill="75.0503434461" width="8781.53499536834" height="8.91576414062581"/>
<rect x="-2422.78587322641" y="886.540237122618" fill="76.5481859506" width="8900.97174645282" height="10.0538406815434"/>
<rect x="-2511.60946020828" y="896.594566637441" fill="79.7328800992" width="9078.61892041656" height="14.4643984056403"/>
<rect x="-2700.67748503923" y="911.144061668982" fill="87.8005164435" width="9456.75497007846" height="50.6635267185311"/>
<rect x="-3179.30814728347" y="961.87227952689" fill="87.9788777843" width="10414.0162945669" height="0.4800078578225"/>
<rect x="-3190.68763546967" y="962.431075418956" fill="91.7390938491" width="10436.7752709393" height="14.3062674453222"/>
<rect x="-3416.22865787392" y="976.782725089083" fill="92.5935332436" width="10887.8573157478" height="5.11485418145492"/>
<rect x="-3463.26761107256" y="981.929115622972" fill="100.767687276" width="10981.9352221451" height="46.9639241537724"/>
<rect x="-3948.2407693352" y="1028.9483836311" fill="101.355085359" width="11951.8815386704" height="7.58868747832548"/>
<rect x="-3982.6570527334" y="1036.53894717228" fill="134.257060069" width="12020.7141054668" height="250.027640287503"/>
<rect x="-5933.7542224136" y="1286.57078878365" fill="134.999008732" width="15922.9084448272" height="1.69435560217539"/>
<rect x="-5977.7449325968" y="1288.28738630008" fill="140.110832017" width="16010.8898651936" height="50.042232830995"/>
<rect x="-6282.0562977393" y="1338.33668739608" fill="141.189813231" width="16619.5125954786" height="3.00051152125036"/>
<rect x="-6345.7166716887" y="1341.47767903271" fill="155.177432342" width="16746.8333433774" height="88.7925886395652"/>
<rect x="-7174.694145913" y="1430.33962254538" fill="156.612453319" width="18404.788291826" height="8.40448416457525"/>
<rect x="-7260.1079982595" y="1438.82973180427" fill="179.384943768" width="18575.615996519" height="126.732703286058"/>
<rect x="-8609.9358769895" y="1565.62626086268" fill="180.596553059" width="21275.271753979" height="3.92011261515472"/>
<rect x="-8681.8334191977" y="1569.57992461609" fill="199.514066091" width="21419.0668383954" height="55.1411140547236"/>
<rect x="-9809.4427851128" y="1625.01386301741" fill="200.164473667" width="23674.2855702256" height="3.96486067786645"/>
<rect x="-9858.9657173597" y="1630.51243811219" fill="204.99227918" width="23773.3314347194" height="11.7922243082203"/>
<rect x="-10128.3763450855" y="1642.3175042028" fill="205.301626256" width="24312.152690171" height="1.29934528242666"/>
<rect x="-10147.0742281448" y="1643.74065642224" fill="208.922619664" width="24349.5484562896" height="10.5804198180958"/>
<rect x="2186.19218252273" y="525.564608374317" fill="3.93681641743" width="37.0156349545356" height="7.72522068556359"/>
<rect x="1962.52638553028" y="533.371978202247" fill="4.38872794652" width="484.347228939432" height="0.380968301289332"/>
<rect x="1936.94907505208" y="533.894829052079" fill="36.007762693" width="535.501849895844" height="103.280898043888"/>
<rect x="68.9818361530697" y="637.182923413752" fill="36.6442024597" width="4271.43632769386" height="4.29048038066688"/>
<rect x="31.20799006381" y="641.565652915883" fill="38.3006047815" width="4346.98401987238" height="12.0094836593203"/>
<rect x="-67.7843768579" y="653.588120372825" fill="38.8217820799" width="4544.9687537158" height="0.739329052771268"/>
<rect x="-99.4614594575105" y="654.354296717775" fill="58.0950251326" width="4608.32291891502" height="118.558250775193"/>
<rect x="-1240.41599071785" y="772.920795478519" fill="58.5153367281" width="6890.2319814357" height="0.80470442500544"/>
<rect x="-1265.49313290171" y="773.739647811376" fill="81.2560985913" width="6940.38626580342" height="176.699789126109"/>
<rect x="-2613.78944040731" y="950.451772537365" fill="81.6964011841" width="9636.97888081462" height="7.01328129451048"/>
<rect x="-2639.90833630183" y="957.469974843302" fill="147.851236263" width="9689.21667260366" height="485.061907016055"/>
<rect x="-6563.0423691236" y="1442.56594531211" fill="149.559145252" width="17535.4847382472" height="5.18446412319724"/>
<rect x="-6664.1688188889" y="1447.75252599936" fill="170.473039092" width="17737.7376377778" height="105.335215272422"/>
<rect x="-7904.3879655354" y="1553.09266228321" fill="171.732864605" width="20218.1759310708" height="6.0796119759575"/>
<rect x="-7979.5760334332" y="1559.1797285332" fill="180.125654889" width="20368.5520668664" height="38.1468537975093"/>
<rect x="-8479.396929166" y="1597.37009756482" fill="180.852212005" width="21368.193858332" height="1.74043077924875"/>
<rect x="-8519.8708842782" y="1599.11297562125" fill="190.944038402" width="21449.1417685564" height="29.7065916317001"/>
<rect x="-9119.0960939695" y="1628.92056704393" fill="198.115134105" width="22647.592187939" height="24.5755509080914"/>
<rect x="-9543.5789735711" y="1653.50040399423" fill="198.254989534" width="23496.5579471422" height="1.13662796859376"/>
<rect x="2382.01352420064" y="609.060226979537" fill="0.150344995643" width="16.9729515987122" height="0.0900723289349239"/>
<rect x="2338.14409293088" y="613.988843430839" fill="1.8023496699" width="104.711814138241" height="3.65659822402806"/>
<rect x="2270.46019469718" y="618.790789910055" fill="3.38493502695" width="240.079610605642" height="6.78183289751529"/>
<rect x="2171.78467508441" y="625.675280513071" fill="5.13425149423" width="437.430649831178" height="3.20493986429935"/>
<rect x="2081.50249868681" y="628.919885376943" fill="5.58295414501" width="617.995002626378" height="1.06956612108775"/>
<rect x="2056.53743378996" y="630.037304891144" fill="7.34503240696" width="667.925132420074" height="8.61295252932972"/>
<rect x="1954.24580894944" y="638.758378443207" fill="8.10279301088" width="872.508382101112" height="1.79583186833736"/>
<rect x="1905.75036528822" y="640.62795192957" fill="40.2588772782" width="969.499269423552" height="118.127759641288"/>
<rect x="2.74743017089986" y="758.794343147774" fill="41.4930578656" width="4775.5051396582" height="9.72864747833151"/>
<rect x="-70.1695360957597" y="768.59108462222" fill="46.1262778804" width="4921.33907219152" height="24.5250548573479"/>
<rect x="-344.97234124405" y="793.230540025965" fill="46.9732530177" width="5470.9446824881" height="2.82774059437713"/>
<rect x="-395.07939405127" y="796.058945433644" fill="53.9185752393" width="5571.15878810254" height="22.7675057035009"/>
<rect x="-806.890995132449" y="818.85449835971" fill="55.218845074" width="6394.7819902649" height="7.85684917121617"/>
<rect x="-885.7099027917" y="826.725045317869" fill="126.468519326" width="6552.4198055834" height="503.216408510357"/>
<rect x="-5109.1886765591" y="1330.02830740761" fill="128.722580971" width="14999.3773531182" height="14.9333589191962"/>
<rect x="-5242.9618965366" y="1345.12983118062" fill="143.127111391" width="15266.9237930732" height="130.888824640936"/>
<rect x="-6097.7217622587" y="1476.13705841239" fill="144.434060462" width="16976.4435245174" height="4.71798911619612"/>
<rect x="-6175.4447138547" y="1481.33603666131" fill="147.81630251" width="17131.8894277094" height="24.798911861538"/>
<rect x="-6375.3138857429" y="1506.25493086806" fill="147.830825362" width="17531.6277714858" height="0.414961981928968"/>
<rect x="-6376.1439654232" y="1507.03093254906" fill="171.562959018" width="17533.2879308464" height="100.233105059454"/>
<rect x="-7783.248458535" y="1607.50355470185" fill="173.829555188" width="20347.49691707" height="6.1654653966774"/>
<rect x="-7921.779367621" y="1613.69914733103" fill="190.383636378" width="20624.558735242" height="41.7157972164188"/>
<rect x="2564.63372076744" y="694.0439784963" fill="5.31636912808" width="1.13255846512793" height="13.8251135842659"/>
<rect x="2249.92324410695" y="707.870408251011" fill="5.96817298386" width="630.55351178609" height="1.7265721325969"/>
<rect x="2210.98822090815" y="709.598882249902" fill="38.6423521803" width="708.423558183696" height="87.6712123584579"/>
<rect x="273.29477197037" y="797.337666799017" fill="38.9818007071" width="4583.81045605926" height="0.812794477593684"/>
<rect x="253.4902421015" y="798.173875948831" fill="45.2224346414" width="4623.419515797" height="19.2626414488664"/>
<rect x="-116.88321787762" y="817.447494259211" fill="45.6846069209" width="5364.16643575524" height="0.734021676447227"/>
<rect x="-146.11737252406" y="818.279215267807" fill="54.7707884886" width="5422.63474504812" height="30.7696959024534"/>
<rect x="-682.70894857459" y="849.050345796045" fill="55.5951703429" width="6495.81789714918" height="6.59413238589465"/>
<rect x="-735.67589774752" y="856.117963918756" fill="83.5206314762" width="6601.75179549504" height="234.630684658283"/>
<rect x="-2395.43587338122" y="1091.06221302391" fill="84.1718644044" width="9921.27174676244" height="7.82720641005614"/>
<rect x="-2426.19908751754" y="1098.95135841512" fill="99.589739104" width="9982.79817503508" height="87.8251121686175"/>
<rect x="-3340.66994623431" y="1186.8121519645" fill="100.095322869" width="11811.7398924686" height="2.92862401936446"/>
<rect x="-3371.0929739954" y="1190.02147565472" fill="119.569494173" width="11872.5859479908" height="171.713584858989"/>
<rect x="-4526.1917455965" y="1361.85828039079" fill="120.077984564" width="14182.783491193" height="1.9077166709726"/>
<rect x="-4555.771483695" y="1363.96944410833" fill="134.905251453" width="14241.94296739" height="115.285165869519"/>
<rect x="-5435.7416280946" y="1479.43858428269" fill="135.470350109" width="16001.8832561892" height="3.24709778199463"/>
<rect x="-5468.2485504052" y="1482.79728015673" fill="136.105784823" width="16066.8971008104" height="4.43294102972936"/>
<rect x="-5505.9108494467" y="1487.40071790593" fill="136.511145565" width="16142.2216988934" height="5.01482656441351"/>
<rect x="-5529.9120541384" y="1492.51304637693" fill="149.896366407" width="16190.2241082768" height="46.9406727180535"/>
<rect x="-6325.5212076105" y="1539.47452774972" fill="150.904589863" width="17781.442415221" height="2.56684824908666"/>
<rect x="-6388.8242286708" y="1542.10578279955" fill="178.142966143" width="17908.0484573416" height="113.306454964732"/>
<rect x="2746.15632027405" y="724.707339386152" fill="69.4491809986" width="1.28735945190644" height="295.67861172922"/>
<rect x="-2080.74415787689" y="1192.69144003448" fill="81.4088390873" width="9655.08831575378" height="0"/>
<rect x="-2082.47122935315" y="1193.01775929515" fill="97.8628075291" width="9658.5424587063" height="87.4414561685709"/>
<rect x="-3057.74231866911" y="1280.46542993775" fill="99.3678114451" width="11609.0846373382" height="9.40578457016602"/>
<rect x="-3145.74444593135" y="1289.87717829191" fill="160.165469354" width="11785.0888918627" height="313.806608517287"/>
<rect x="-6753.2373151241" y="1603.70303056796" fill="160.607609963" width="19000.0746302482" height="0.850446153383359"/>
<rect x="-6777.6946933678" y="1604.5836914677" fill="179.910645754" width="19048.9893867356" height="46.8841493554532"/>
<rect x="-7922.9092925208" y="1651.9721763973" fill="180.323984821" width="21339.4185850416" height="2.65241932121887"/>
<rect x="2925.4049929671" y="767.597427853685" fill="5.27044138219" width="1.39001406579092" height="18.7485095641194"/>
<rect x="2613.51178963583" y="786.392600901081" fill="7.06093707005" width="625.17642072835" height="2.09258587984084"/>
<rect x="2506.86665560307" y="788.53580068143" fill="8.81029881108" width="838.466688793854" height="4.31222820226315"/>
<rect x="2403.62369859503" y="792.853265483279" fill="10.5440840881" width="1044.95260280993" height="6.37876232727243"/>
<rect x="2300.80006040781" y="799.253919159195" fill="35.2473868722" width="1250.59987918438" height="67.781291666852"/>
<rect x="835.43637359429" y="867.147417112159" fill="37.6777446972" width="4181.32725281142" height="9.33273602820094"/>
<rect x="691.09233811332" y="876.503809708665" fill="42.9159916123" width="4470.01532377336" height="12.0193019182011"/>
<rect x="380.66315060425" y="888.556283319731" fill="43.6122330522" width="5090.8736987915" height="5.01732518082613"/>
<rect x="339.30656309621" y="893.640949333827" fill="50.9479492562" width="5173.58687380758" height="43.6689948312664"/>
<rect x="-95.6343887021999" y="937.342046226714" fill="51.3954903428" width="6043.4687774044" height="1.01162179466792"/>
<rect x="-121.72813294647" y="938.371300531516" fill="55.1412024283" width="6095.65626589294" height="20.5625122832892"/>
<rect x="-343.95689002613" y="958.95569103914" fill="56.0819179407" width="6540.11378005226" height="2.09400986744748"/>
<rect x="-399.61932451798" y="961.066755947093" fill="66.3714512875" width="6651.43864903596" height="92.5687161197121"/>
<rect x="-1009.84408199406" y="1053.65872834366" fill="66.6131000007" width="7871.88816398812" height="1.59913152012598"/>
<rect x="-1024.07882889459" y="1055.26876616518" fill="74.2306754375" width="7900.35765778918" height="61.2300102880629"/>
<rect x="-1475.88131604469" y="1116.53495361304" fill="75.1246736534" width="8803.96263208938" height="3.44472445283719"/>
<rect x="-1529.3884665494" y="1120.02353950902" fill="84.401820218" width="8910.9769330988" height="53.0422324793213"/>
<rect x="-2080.13754642344" y="1173.08685619194" fill="84.5625766674" width="10012.4750928469" height="1.90998735844465"/>
<rect x="-2088.85424847893" y="1175.13538376399" fill="87.3551989134" width="10029.9084969579" height="22.6748764979065"/>
<rect x="-2254.08312537195" y="1197.85387234316" fill="87.9901066599" width="10360.3662507439" height="4.28908348203879"/>
<rect x="-2291.79443493837" y="1202.16931600131" fill="100.541727393" width="10435.7888698767" height="71.1980350913261"/>
<rect x="-3036.310135104" y="1273.40489974279" fill="100.842969682" width="11924.820270208" height="2.8558957342504"/>
<rect x="-3053.9860142702" y="1276.28427486717" fill="109.569925425" width="11960.1720285404" height="35.0929211945922"/>
<rect x="-3571.4645481334" y="1311.38304294175" fill="110.073845416" width="12995.1290962668" height="4.31451183215768"/>
<rect x="-3601.296233964" y="1315.70892042614" fill="116.523598269" width="13054.792467928" height="41.41740793894"/>
<rect x="-3985.0039372839" y="1357.17750004875" fill="117.326977139" width="13822.2078745678" height="5.49369168926103"/>
<rect x="-4031.422308997" y="1362.69249249272" fill="127.063608925" width="13915.044617994" height="59.1516380356692"/>
<rect x="-4609.2943487364" y="1421.87436893803" fill="127.415468988" width="15070.7886974728" height="1.6056083669821"/>
<rect x="-4630.104077418" y="1423.48747128587" fill="129.141153612" width="15112.408154836" height="14.4713101445491"/>
<rect x="-4731.9724400387" y="1437.96234468051" fill="129.946273432" width="15316.1448800774" height="3.83972024089144"/>
<rect x="-4780.5422505609" y="1441.82642364028" fill="154.203093513" width="15413.2845011218" height="135.655687186991"/>
<rect x="-6219.2769915059" y="1577.52799341412" fill="155.556396666" width="18290.7539830118" height="2.82890559127247"/>
<rect x="-6298.4399610563" y="1580.35927450545" fill="175.205255474" width="18449.0799221126" height="51.976912571357"/>
<rect x="-7463.7576769104" y="1632.41004412986" fill="175.690138169" width="20779.7153538208" height="2.51586455538222"/>
<rect x="-7492.3456732104" y="1634.93819960132" fill="178.311390817" width="20836.8913464208" height="5.406762823706"/>
<rect x="-7649.7017627681" y="1640.4061807678" fill="179.031585877" width="21151.6035255362" height="2.12264054914272"/>
<rect x="-7690.6507628864" y="1642.53352638198" fill="182.469723979" width="21233.5015257728" height="12.8073445343134"/>
<rect x="3103.8" y="767.907750168147" fill="1.35911499777" width="0" height="5.70016617420155"/>
<rect x="2884.03292718599" y="775.284815574383" fill="35.9732208623" width="439.534145628028" height="125.144602586441"/>
<rect x="970.52380798862" y="900.469274533386" fill="36.6819684057" width="4266.55238402276" height="2.86388788523362"/>
<rect x="928.55783827444" y="903.337108528895" fill="64.9414451472" width="4350.48432345112" height="159.34369574873"/>
<rect x="-750.33040120429" y="1062.78634131704" fill="65.5933386391" width="7708.26080240858" height="1.56421439688143"/>
<rect x="-786.72005986219" y="1064.55326324842" fill="66.0028343193" width="7781.04011972438" height="3.31336895028085"/>
<rect x="-810.2921203985" y="1067.95494865003" fill="66.4296727767" width="7828.184240797" height="4.60052556129961"/>
<rect x="-835.51153319139" y="1072.61961991375" fill="80.111254565" width="7878.62306638278" height="167.077149591802"/>
<rect x="-1652.39574922308" y="1240.08564912082" fill="80.6925955186" width="9512.39149844616" height="3.0868266462042"/>
<rect x="-1681.49311079556" y="1243.28759809934" fill="95.5186137146" width="9570.58622159112" height="98.4228416056601"/>
<rect x="-2560.45404819462" y="1341.7673322064" fill="95.8037476786" width="11328.5080963892" height="1.49147157608297"/>
<rect x="-2577.71120329469" y="1343.45834257067" fill="110.370407438" width="11363.0224065894" height="95.3944621887732"/>
<rect x="-3441.2084817989" y="1438.91325468913" fill="110.827229244" width="13090.0169635978" height="2.59845761963072"/>
<rect x="-3474.8817450921" y="1441.53789893371" fill="128.364464268" width="13157.3634901842" height="102.230574507974"/>
<rect x="-4509.5369468208" y="1543.79052290928" fill="128.722741997" width="15226.6738936416" height="1.11329718485592"/>
<rect x="-4529.4645961265" y="1544.9399214035" fill="161.854678719" width="15266.529192253" height="110.624623021899"/>
<rect x="3276.25084161159" y="771.076516647747" fill="22.8382852337" width="23.2983167768176" height="64.8959338394126"/>
<rect x="1927.63056526768" y="836.12606923122" fill="23.8864108136" width="2720.53886946464" height="3.22351718516947"/>
<rect x="1870.55123507743" y="839.385435204335" fill="27.836442192" width="2834.69752984514" height="14.6795224580123"/>
<rect x="1635.99328962571" y="854.101481843048" fill="28.5181914782" width="3303.81342074858" height="1.85050330964683"/>
<rect x="1596.08236486872" y="855.990621591125" fill="49.7266850457" width="3383.63527026256" height="110.112750358895"/>
<rect x="336.21976570832" y="966.139240602458" fill="50.7395411147" width="5903.36046858336" height="3.75147567391556"/>
<rect x="279.02621793632" y="969.893682707294" fill="146.248372148" width="6017.74756412736" height="607.870873326821"/>
<rect x="-5384.9285516975" y="1578.02539006713" fill="146.555776434" width="17345.657103395" height="2.75905223680252"/>
<rect x="-5402.880140936" y="1580.7990824351" fill="171.967412072" width="17381.560281872" height="61.8624801210323"/>
<rect x="-6914.9020628984" y="1642.78411985501" fill="175.005937738" width="20405.6041257968" height="10.4524510982828"/>
<rect x="-7090.4700058959" y="1653.42830303747" fill="175.135313436" width="20756.7400117918" height="2.03588537764074"/>
<rect x="1295.0299319819" y="2197.26027898024" fill="48.676025747" width="53.140136036208" height="179.614959443649"/>
<rect x="-1564.89487287073" y="2376.8782317847" fill="49.8426611538" width="5772.98974574146" height="3.04441424779486"/>
<rect x="-1635.17117955638" y="2380.12262914267" fill="54.340395447" width="5913.54235911276" height="30.4203153258529"/>
<rect x="-1900.8036399856" y="2410.54848551198" fill="55.0684676162" width="6444.8072799712" height="2.33112297297043"/>
<rect x="-1944.15782912197" y="2412.89152871292" fill="64.1437970606" width="6531.51565824394" height="101.682597735321"/>
<rect x="-2484.86167274892" y="2514.81156648008" fill="64.6816744236" width="7612.92334549784" height="4.59513479644392"/>
<rect x="-2514.0926741653" y="2519.45725581475" fill="76.1889037947" width="7671.3853483306" height="60.6026983783034"/>
<rect x="-3196.54415849743" y="2580.11702760595" fill="76.9420303229" width="9036.28831699486" height="4.24957457192062"/>
<rect x="-3241.40788575937" y="2584.39391493234" fill="84.4927153036" width="9126.01577151874" height="71.8464933139896"/>
<rect x="-3688.81838250684" y="2656.24593598597" fill="84.7192041906" width="10020.8367650137" height="3.7788852133715"/>
<rect x="-3702.32478800927" y="2660.10717853326" fill="90.308480646" width="10047.8495760185" height="39.5076731738832"/>
<rect x="-4033.82834098755" y="2699.62390496064" fill="90.7093316626" width="10710.8566819751" height="0.819382634059934"/>
<rect x="-4057.50233291058" y="2700.45713022549" fill="105.628779031" width="10758.2046658212" height="65.8483503473017"/>
<rect x="-4942.8403983701" y="2766.43291126869" fill="106.151836712" width="12528.8807967402" height="2.27703626897994"/>
<rect x="-4973.4312871571" y="2768.73274364326" fill="129.788289886" width="12590.0625743142" height="65.6371986753342"/>
<rect x="1451.19284937838" y="2257.23631879" fill="23.1344432501" width="85.4143012432304" height="72.0825705093846"/>
<rect x="114.90208806936" y="2329.47306676489" fill="24.0833761522" width="2757.99582386128" height="7.17998475820204"/>
<rect x="50.6517684791302" y="2336.73255924711" fill="33.2460377045" width="2886.49646304174" height="26.9950188272814"/>
<rect x="-485.60815039226" y="2363.85022890643" fill="33.7443365484" width="3959.01630078452" height="2.61025107326961"/>
<rect x="-513.56459175951" y="2366.6526170005" fill="44.1059598289" width="4014.92918351902" height="95.9797919022289"/>
<rect x="-1129.96410939852" y="2462.74006065978" fill="45.2570408435" width="5247.72821879704" height="4.76928052789043"/>
<rect x="-1199.87997059926" y="2467.59063657283" fill="69.1449245884" width="5387.55994119852" height="158.126349128278"/>
<rect x="-2609.87267284398" y="2625.74567467173" fill="69.9332084322" width="8207.54534568796" height="3.51187690417675"/>
<rect x="-2653.20567931468" y="2629.26304082533" fill="73.3202314715" width="8294.21135862936" height="14.3575903986174"/>
<rect x="-2854.04266845196" y="2643.66279078606" fill="73.9500176062" width="8695.88533690392" height="3.85092112551206"/>
<rect x="-2891.36357751206" y="2647.53386131138" fill="116.743601482" width="8770.52715502412" height="186.598301682522"/>
<rect x="-5430.073967914" y="2834.4154507956" fill="116.767566264" width="13847.947935828" height="0.0585475634082968"/>
<rect x="1665.92386173385" y="2287.26575228004" fill="24.5728953036" width="7.75227653230546" height="17.2185444375904"/>
<rect x="196.40322977369" y="2305.20313277713" fill="31.0240782345" width="2946.79354045262" height="8.68665776233684"/>
<rect x="-179.13358730499" y="2314.03990020734" fill="32.3064617243" width="3697.86717460998" height="6.64230293098916"/>
<rect x="-246.28174223272" y="2320.80145168418" fill="62.0887475105" width="3832.16348446544" height="100.839730294503"/>
<rect x="-2016.77901848106" y="2421.66671006476" fill="62.8048388436" width="7373.15803696212" height="1.67305051510471"/>
<rect x="-2054.78830082228" y="2423.34682253022" fill="84.6511224225" width="7449.17660164456" height="140.449797548833"/>
<rect x="-3351.00480397243" y="2563.83515492114" fill="85.4797875342" width="10041.6096079449" height="2.33811733678601"/>
<rect x="-3399.36119587013" y="2566.18824066682" fill="92.965526041" width="10138.3223917403" height="45.9529887080827"/>
<rect x="-3843.06432478888" y="2612.14224012486" fill="94.2293877891" width="11025.7286495778" height="6.48340904803086"/>
<rect x="-3918.21036070436" y="2618.76868359107" fill="95.8137319248" width="11176.0207214087" height="3.35541721895288"/>
<rect x="-4012.54038940108" y="2622.20793985904" fill="96.5206263378" width="11364.6807788022" height="3.61142289378063"/>
<rect x="-4053.96513175709" y="2625.86859026551" fill="102.6542829" width="11447.5302635142" height="54.4254472756988"/>
<rect x="-4418.1211749722" y="2680.3576615911" fill="103.751995565" width="12175.8423499444" height="1.72073530416901"/>
<rect x="-4483.0421046175" y="2682.09702927275" fill="104.63133317" width="12305.684209235" height="4.96145235207575"/>
<rect x="-4537.2576224598" y="2687.30304986594" fill="104.842827134" width="12414.1152449196" height="0.789176276861667"/>
<rect x="-4547.3815990081" y="2688.09241898325" fill="107.960199122" width="12434.3631980162" height="11.6580165965171"/>
<rect x="-4732.3182683576" y="2699.76477226994" fill="110.230275787" width="12804.2365367152" height="29.7248861324344"/>
<rect x="-4867.0609161959" y="2729.51786630576" fill="130.52678855" width="13073.7218323918" height="55.0143953161195"/>
<rect x="-6070.4635444015" y="2784.5361250806" fill="132.377756663" width="15480.527088803" height="5.16019106226508"/>
<rect x="-6180.2743482917" y="2789.7147556799" fill="142.196075248" width="15700.1486965834" height="22.6076570656527"/>
<rect x="-6763.7164344219" y="2812.48106059069" fill="143.018288015" width="16867.0328688438" height="2.19412536601465"/>
<rect x="-6811.1881758736" y="2814.67531230045" fill="150.834484606" width="16961.9763517472" height="19.2757796812122"/>
<rect x="1843.85164563643" y="2233.15737750951" fill="0.235488877665" width="10.2967087271439" height="1.0160131542831"/>
<rect x="1826.27142673375" y="2234.5988443375" fill="6.66236456723" width="45.457146532509" height="20.6725973297719"/>
<rect x="1453.67937983039" y="2255.45317947579" fill="7.06367442145" width="790.641240339212" height="3.40793916618864"/>
<rect x="1430.07617112821" y="2258.86610890962" fill="131.103734122" width="837.84765774358" height="574.607416254018"/>
<rect x="2026.43317183225" y="2291.09537817563" fill="0.695404867071" width="14.1336563355074" height="0.465289993091957"/>
<rect x="1950.04647479382" y="2292.03199139949" fill="3.65723966891" width="166.907050412364" height="5.03963716948327"/>
<rect x="1816.57544030937" y="2297.07793665414" fill="17.0660820114" width="433.849119381256" height="36.991020350831"/>
<rect x="1021.18456510626" y="2334.12607835856" fill="18.4757202863" width="2024.63086978748" height="2.67723581107802"/>
<rect x="935.47410922789" y="2336.87843468229" fill="24.0823165052" width="2196.05178154422" height="17.6115034322837"/>
<rect x="605.38910443739" y="2354.50432403463" fill="25.504399829" width="2856.22179112522" height="2.05451183265613"/>
<rect x="521.03555838769" y="2356.56262339983" fill="32.3101959484" width="3024.92888322462" height="17.0429311137935"/>
<rect x="117.44008484012" y="2373.62640270159" fill="32.8219917418" width="3832.11983031976" height="1.28583042768163"/>
<rect x="86.9876362320199" y="2374.91352021997" fill="37.6959677177" width="3893.02472753596" height="8.98389311389182"/>
<rect x="-201.87376161473" y="2383.89935737712" fill="40.2608809667" width="4470.74752322946" height="5.30797547047419"/>
<rect x="-355.91965831761" y="2389.3518422971" fill="49.5743667243" width="4778.83931663522" height="88.1918103284664"/>
<rect x="-906.285490148899" y="2477.56420585525" fill="50.8854509648" width="5879.5709802978" height="13.7650529741841"/>
<rect x="-984.45886833228" y="2491.34951039723" fill="53.1953129869" width="6035.91773666456" height="11.9002797628087"/>
<rect x="-1120.98823187148" y="2503.25000467515" fill="54.4354985679" width="6308.97646374296" height="2.4010006723303"/>
<rect x="-1194.55679943589" y="2505.6512198626" fill="126.186729204" width="6456.11359887178" height="315.940318324197"/>
<rect x="-5451.5480933326" y="2822.05501820859" fill="128.442126787" width="14970.0961866652" height="11.6436057213227"/>
<rect x="2206.37652838112" y="2314.36609659705" fill="0.574376735812" width="3.24694323776232" height="1.99076159677144"/>
<rect x="2168.07413676629" y="2316.53055986681" fill="8.9151142534" width="79.8517264674144" height="18.4404555255329"/>
<rect x="1676.88863246746" y="2335.06525452332" fill="11.4008803687" width="1062.22273506508" height="3.59329401440993"/>
<rect x="1530.67896836564" y="2338.71559257826" fill="13.9983421947" width="1354.64206326872" height="4.8295886081948"/>
<rect x="1364.62596862557" y="2343.59389587604" fill="15.4155186065" width="1686.74806274886" height="3.07182859083353"/>
<rect x="1280.66054219071" y="2346.82257388734" fill="22.0467670934" width="1854.67891561858" height="14.0252721497049"/>
<rect x="891.18857489308" y="2360.8879310385" fill="23.7531230631" width="2633.62285021384" height="2.54282804127522"/>
<rect x="797.01598826564" y="2363.53040427987" fill="39.5493844068" width="2821.96802346872" height="40.8037283383759"/>
<rect x="-138.22047026683" y="2404.35412839986" fill="41.0127962091" width="4692.44094053366" height="7.8861066773255"/>
<rect x="-224.05886271672" y="2412.24830413592" fill="65.6863559807" width="4864.11772543344" height="205.216092677857"/>
<rect x="-1687.7528487522" y="2617.52770789001" fill="66.7244996484" width="7791.5056975044" height="2.18634116432997"/>
<rect x="-1749.21571867405" y="2619.72026269676" fill="120.142569671" width="7914.4314373481" height="214.865485576541"/>
<rect x="2391.53620197727" y="2438.98978767824" fill="4.75110456857" width="0.52759604545434" height="7.04876991035006"/>
<rect x="2102.07955012311" y="2446.20873387929" fill="34.1121464479" width="579.440899753786" height="78.3806766235097"/>
<rect x="368.70098454105" y="2524.70982225417" fill="34.8014021639" width="4046.1980309179" height="2.52885533647687"/>
<rect x="327.44202136585" y="2527.27924541168" fill="80.4301842464" width="4128.7159572683" height="251.492294738098"/>
<rect x="-2377.72213462005" y="2778.77245511224" fill="81.0673051769" width="9539.0442692401" height="1.71429654726171"/>
<rect x="-2415.57983826844" y="2780.51007647468" fill="88.0560982569" width="9614.75967653688" height="13.2299670298743"/>
<rect x="-2830.32250619364" y="2793.80394959609" fill="88.3800768184" width="10444.2450123873" height="1.05923051644572"/>
<rect x="-2850.76435822269" y="2794.99439649419" fill="101.924318126" width="10485.1287164454" height="23.562120109524"/>
<rect x="-3656.6804936588" y="2818.62164713031" fill="103.491197173" width="12096.9609873176" height="3.8811025821297"/>
<rect x="-3745.3264764943" y="2822.57127098229" fill="106.856026418" width="12274.2529529886" height="12.1495040021236"/>
<rect x="2564.56402101257" y="2416.55694118985" fill="6.40184773798" width="4.27195797485026" height="10.1590570470501"/>
<rect x="2186.93860906619" y="2426.73969970577" fill="7.8500358667" width="759.522781867612" height="2.8265895878368"/>
<rect x="2100.0770948927" y="2429.63080700484" fill="25.5376746427" width="933.24581021459" height="43.8833294227481"/>
<rect x="1052.12169474488" y="2473.58956771479" fill="28.101989016" width="3029.15661051024" height="7.31074000500116"/>
<rect x="899.95107095156" y="2480.91551494379" fill="28.8855908606" width="3333.49785809688" height="1.97268535031523"/>
<rect x="853.00706231283" y="2482.99403273626" fill="29.7021300632" width="3427.38587537434" height="1.69929429063019"/>
<rect x="805.35218916014" y="2484.69507506007" fill="94.9647990542" width="3522.69562167972" height="313.673839552613"/>
<rect x="-3075.088557876" y="2798.65319930879" fill="96.1733299175" width="11283.577115752" height="2.73129851685474"/>
<rect x="-3136.66882260244" y="2801.39765792333" fill="98.7739536534" width="11406.7376452049" height="4.66937546885771"/>
<rect x="-3290.891667991" y="2806.13327919706" fill="99.6768226875" width="11715.183335982" height="3.18780768330038"/>
<rect x="-3344.24217723142" y="2809.36139798767" fill="105.168283941" width="11821.8843544628" height="9.09419910220493"/>
<rect x="-3670.0425562084" y="2818.46851126655" fill="107.893828764" width="12473.4851124168" height="8.56234505324193"/>
<rect x="-3832.368447298" y="2827.20436356733" fill="110.205396294" width="12798.136894596" height="7.04420150123315"/>
<rect x="2667.02369517369" y="2613.36116924627" fill="2.27508273204" width="156.552609652626" height="4.32815518296893"/>
<rect x="2609.65196970335" y="2617.70882568931" fill="11.5924115852" width="271.29606059331" height="24.9146105554562"/>
<rect x="2057.72246390774" y="2642.63110611191" fill="12.344629831" width="1375.15507218452" height="1.08119537971149"/>
<rect x="2011.08575929019" y="2643.74478563479" fill="29.1198235876" width="1468.42848141962" height="73.7875157300883"/>
<rect x="1018.39775665362" y="2717.5659369982" fill="30.0250147387" width="3453.80448669276" height="5.53096408375711"/>
<rect x="963.67359976222" y="2723.18299348877" fill="36.2591100519" width="3563.25280047556" height="27.3873986157668"/>
<rect x="594.34301558022" y="2750.57693741696" fill="36.9039937355" width="4301.91396883956" height="1.57277393187744"/>
<rect x="556.350420810491" y="2752.23751415622" fill="40.4098821949" width="4377.89915837902" height="13.7914648619117"/>
<rect x="346.057198855181" y="2766.07351003778" fill="41.5195841239" width="4798.48560228964" height="2.29074487488492"/>
<rect x="282.36836132681" y="2768.4806564257" fill="64.6258009484" width="4925.86327734638" height="66.2153232393297"/>
<rect x="2768.28562248624" y="2606.07388096217" fill="2.74693416846" width="321.828755027512" height="0.223366779869067"/>
<rect x="2750.55750463299" y="2606.81825527966" fill="75.0832072698" width="357.284990734018" height="227.214430220499"/>
</svg>
