<?xml version="1.0" encoding="utf-8"?>
<!-- Generator: Adobe Illustrator 21.0.2, SVG Export Plug-In . SVG Version: 6.00 Build 0)  -->
<svg version="1.1"
	 id="svg2" inkscape:version="0.48.2 r9819" sodipodi:docname="genomePretty.svg" xmlns:cc="http://creativecommons.org/ns#" xmlns:dc="http://purl.org/dc/elements/1.1/" xmlns:inkscape="http://www.inkscape.org/namespaces/inkscape" xmlns:rdf="http://www.w3.org/1999/02/22-rdf-syntax-ns#" xmlns:sodipodi="http://sodipodi.sourceforge.net/DTD/sodipodi-0.dtd" xmlns:svg="http://www.w3.org/2000/svg"
	 xmlns="http://www.w3.org/2000/svg" xmlns:xlink="http://www.w3.org/1999/xlink" x="0px" y="0px" viewBox="0 0 2200 3024"
	 style="enable-background:new 0 0 2200 3024;" xml:space="preserve">
<style type="text/css">
	.st0{font-family:'HelveticaNeueLTStd-Roman';}
	.st1{font-size:57.9613px;}
	.st2{clip-path:url(#SVGID_2_);}
</style>
<sodipodi:namedview  bordercolor="#666666" borderopacity="1.0" fit-margin-bottom="0" fit-margin-left="0" fit-margin-right="0" fit-margin-top="0" id="base" inkscape:current-layer="layer1" inkscape:cx="261.59989" inkscape:cy="246.30581" inkscape:document-units="in" inkscape:guide-bbox="true" inkscape:pageopacity="0.0" inkscape:pageshadow="2" inkscape:window-height="746" inkscape:window-maximized="1" inkscape:window-width="1366" inkscape:window-x="-8" inkscape:window-y="-8" inkscape:zoom="1.200431" pagecolor="#ffffff" showgrid="false" showguides="false" units="in">
	<sodipodi:guide  id="guide3000" orientation="1,0" position="-373.91519,355.08062"></sodipodi:guide>
	<sodipodi:guide  id="guide3022" orientation="0,1" position="-358.91519,247.08062"></sodipodi:guide>
	<sodipodi:guide  id="guide3024" orientation="0,1" position="-353.20091,242.58062"></sodipodi:guide>
	<sodipodi:guide  id="guide3026" orientation="0,1" position="-350.34376,220.08062"></sodipodi:guide>
	<sodipodi:guide  id="guide3028" orientation="0,1" position="-329.62948,215.58062"></sodipodi:guide>
	<sodipodi:guide  id="guide3034" orientation="0,1" position="-393.20091,193.08062"></sodipodi:guide>
	<sodipodi:guide  id="guide3085" orientation="0,1" position="-395.34376,188.58062"></sodipodi:guide>
	<sodipodi:guide  id="guide3087" orientation="0,1" position="64.258329,165.46299"></sodipodi:guide>
	<sodipodi:guide  id="guide3115" orientation="0,1" position="-241.41519,161.58062"></sodipodi:guide>
	<sodipodi:guide  id="guide3119" orientation="0,1" position="-337.48662,134.58062"></sodipodi:guide>
	<sodipodi:guide  id="guide3121" orientation="0,1" position="404.46508,112.96031"></sodipodi:guide>
	<sodipodi:guide  id="guide3129" orientation="0,1" position="-366.91519,171.83062"></sodipodi:guide>
	<sodipodi:guide  id="guide3143" orientation="0,1" position="-355.17686,31.080619"></sodipodi:guide>
	<sodipodi:guide  id="guide3145" orientation="0,1" position="-18.947596,22.718619"></sodipodi:guide>
	<sodipodi:guide  id="guide3195" orientation="0,1" position="-173.45042,4.0806193"></sodipodi:guide>
	<sodipodi:guide  id="guide3197" orientation="0,1" position="-284.46619,-0.41938071"></sodipodi:guide>
	<sodipodi:guide  id="guide3199" orientation="0,1" position="-298.25477,-22.919381"></sodipodi:guide>
	<sodipodi:guide  id="guide3201" orientation="0,1" position="-325.12483,-27.419381"></sodipodi:guide>
	<sodipodi:guide  id="guide3203" orientation="0,1" position="-340.32762,-49.919381"></sodipodi:guide>
	<sodipodi:guide  id="guide3205" orientation="0,1" position="-317.34665,-54.419381"></sodipodi:guide>
	<sodipodi:guide  id="guide3207" orientation="0,1" position="-316.63954,-76.919381"></sodipodi:guide>
	<sodipodi:guide  id="guide3209" orientation="0,1" position="-303.91162,-81.419385"></sodipodi:guide>
	<sodipodi:guide  id="guide3247" orientation="0,1" position="-294.66519,-103.91938"></sodipodi:guide>
	<sodipodi:guide  id="guide3249" orientation="0,1" position="-346.66519,-108.41938"></sodipodi:guide>
	<sodipodi:guide  id="guide3253" orientation="0,1" position="-246.91519,-130.91938"></sodipodi:guide>
	<sodipodi:guide  id="guide3255" orientation="0,1" position="-277.41519,-135.41938"></sodipodi:guide>
	<sodipodi:guide  id="guide3257" orientation="0,1" position="-321.66519,-157.91938"></sodipodi:guide>
	<sodipodi:guide  id="guide3259" orientation="0,1" position="-330.66519,-162.41938"></sodipodi:guide>
	<sodipodi:guide  id="guide3261" orientation="0,1" position="-333.91519,-184.91938"></sodipodi:guide>
	<sodipodi:guide  id="guide3263" orientation="0,1" position="-350.16519,-189.41938"></sodipodi:guide>
	<sodipodi:guide  id="guide3340" orientation="0,1" position="-406.44211,-211.91938"></sodipodi:guide>
	<sodipodi:guide  id="guide3342" orientation="0,1" position="-413.51317,-216.41938"></sodipodi:guide>
	<sodipodi:guide  id="guide3346" orientation="0,1" position="-410.33119,-238.91938"></sodipodi:guide>
	<sodipodi:guide  id="guide3354" orientation="1,0" position="-401.41519,377.58062"></sodipodi:guide>
	<sodipodi:guide  id="guide3376" orientation="0,1" position="-299.16519,252.33062"></sodipodi:guide>
	<sodipodi:guide  id="guide3382" orientation="0,1" position="-283.91519,225.58062"></sodipodi:guide>
	<sodipodi:guide  id="guide3390" orientation="0,1" position="-362.91519,198.58062"></sodipodi:guide>
	<sodipodi:guide  id="guide3430" orientation="0,1" position="-384.91519,9.8306193"></sodipodi:guide>
	<sodipodi:guide  id="guide3436" orientation="0,1" position="-289.16519,-17.419381"></sodipodi:guide>
	<sodipodi:guide  id="guide3446" orientation="0,1" position="-373.91519,-43.919381"></sodipodi:guide>
	<sodipodi:guide  id="guide3448" orientation="0,1" position="-286.16519,-71.419381"></sodipodi:guide>
	<sodipodi:guide  id="guide3454" orientation="0,1" position="-387.66519,-98.169385"></sodipodi:guide>
	<sodipodi:guide  id="guide3460" orientation="0,1" position="-275.16519,-125.41938"></sodipodi:guide>
	<sodipodi:guide  id="guide3466" orientation="0,1" position="-360.41519,-152.16938"></sodipodi:guide>
	<sodipodi:guide  id="guide3472" orientation="0,1" position="-414.16519,-179.66938"></sodipodi:guide>
	<sodipodi:guide  id="guide3478" orientation="0,1" position="-292.91519,-206.66938"></sodipodi:guide>
	<sodipodi:guide  id="guide3488" orientation="0,1" position="-362.91519,-233.16938"></sodipodi:guide>
	<sodipodi:guide  id="guide4064" orientation="0,1" position="69.834804,258.83062"></sodipodi:guide>
	<sodipodi:guide  id="guide4081" orientation="1,0" position="14.849242,307.945"></sodipodi:guide>
	<sodipodi:guide  id="guide4083" orientation="1,0" position="47.641319,384.75448"></sodipodi:guide>
	<sodipodi:guide  id="guide4085" orientation="1,0" position="81.084804,242.58062"></sodipodi:guide>
	<sodipodi:guide  id="guide4087" orientation="1,0" position="114.90485,254.20489"></sodipodi:guide>
	<sodipodi:guide  id="guide4089" orientation="1,0" position="149.02275,252.33062"></sodipodi:guide>
	<sodipodi:guide  id="guide4091" orientation="1,0" position="182.625,252.33062"></sodipodi:guide>
	<sodipodi:guide  id="guide4093" orientation="1,0" position="217.875,252.33062"></sodipodi:guide>
	<sodipodi:guide  id="guide4095" orientation="1,0" position="251.03125,257.25"></sodipodi:guide>
	<sodipodi:guide  id="guide4097" orientation="1,0" position="285.5,347.75"></sodipodi:guide>
	<sodipodi:guide  id="guide4099" orientation="1,0" position="319.625,345.375"></sodipodi:guide>
	<sodipodi:guide  id="guide4101" orientation="1,0" position="353.25,134.58062"></sodipodi:guide>
	<sodipodi:guide  id="guide4103" orientation="1,0" position="388.20162,278.95363"></sodipodi:guide>
	<sodipodi:guide  id="guide12488" orientation="1,0" position="3.8890872,161.58062"></sodipodi:guide>
	<sodipodi:guide  id="guide12492" orientation="0,1" position="26.516504,181.37288"></sodipodi:guide>
	<sodipodi:guide  id="guide12494" orientation="0,1" position="26.516504,35.812499"></sodipodi:guide>
	<sodipodi:guide  id="guide13008" orientation="0,1" position="9.457553,183.14065"></sodipodi:guide>
	<sodipodi:guide  id="guide13439" orientation="1,0" position="26.140625,37.859375"></sodipodi:guide>
	<sodipodi:guide  id="guide15391" orientation="0,1" position="107.21507,150.1718"></sodipodi:guide>
	<sodipodi:guide  id="guide17232" orientation="0,1" position="371.76139,232.19619"></sodipodi:guide>
	<sodipodi:guide  id="guide21930" orientation="0,1" position="441.94174,303.17203"></sodipodi:guide>
	<sodipodi:guide  id="guide22976" orientation="1,0" position="340.64869,247.08062"></sodipodi:guide>
</sodipodi:namedview>
<text transform="matrix(1 0 0 1 72.1563 1739.7329)" class="st0 st1">chr1</text>
<text transform="matrix(1 0 0 1 249.693 1734.55)" class="st0 st1">chr2</text>
<text transform="matrix(1 0 0 1 421.5026 1734.2891)" class="st0 st1">chr3</text>
<text transform="matrix(1 0 0 1 593.9053 1734.3207)" class="st0 st1">chr4</text>
<text transform="matrix(1 0 0 1 955.3137 1735.1141)" class="st0 st1">chr6</text>
<text transform="matrix(1 0 0 1 773.4866 1734.0438)" class="st0 st1">chr5</text>
<text transform="matrix(1 0 0 1 1134.6689 1734.2257)" class="st0 st1">chr7</text>
<text transform="matrix(1 0 0 1 1312.9221 1735.1141)" class="st0 st1">chr8</text>
<text transform="matrix(1 0 0 1 1495.2769 1735.1141)" class="st0 st1">chr9</text>
<text transform="matrix(1 0 0 1 1660.8042 1735.1141)" class="st0 st1">chr10</text>
<text transform="matrix(1 0 0 1 1836.2463 1735.1141)" class="st0 st1">chr11</text>
<text transform="matrix(1 0 0 1 2018.6294 1735.1141)" class="st0 st1">chr12</text>
<text transform="matrix(1 0 0 1 47.786 2904.1479)" class="st0 st1">chr13</text>
<text transform="matrix(1 0 0 1 223.0485 2904.1479)" class="st0 st1">chr14</text>
<text transform="matrix(1 0 0 1 399.2256 2904.1479)" class="st0 st1">chr15</text>
<text transform="matrix(1 0 0 1 580.1217 2904.1479)" class="st0 st1">chr16</text>
<text transform="matrix(1 0 0 1 761.5588 2904.1479)" class="st0 st1">chr17</text>
<text transform="matrix(1 0 0 1 935.3179 2904.1479)" class="st0 st1">chr18</text>
<text transform="matrix(1 0 0 1 1118.6108 2904.1479)" class="st0 st1">chr19</text>
<text transform="matrix(1 0 0 1 1294.3867 2904.1479)" class="st0 st1">chr20</text>
<text transform="matrix(1 0 0 1 1476.3025 2904.1479)" class="st0 st1">chr21</text>
<text transform="matrix(1 0 0 1 1656.5874 2904.1479)" class="st0 st1">chr22</text>
<text transform="matrix(1 0 0 1 1845.1143 2904.1479)" class="st0 st1">chrX</text>
<g>
	<defs>
		<path id="SVGID_1_" d="M70.8,2087.3c7.4-17.4,17.9-18.4,29-18.4s22.1,1.1,29.5,18.4v85.9v15.3l-22.7-1.1
			c-13.7,0-36.4-7.9-36.4-17.4L70.8,2087.3z M188.3,2087.3c-1.6-4.2-3.7-7.4-5.8-9.5c-6.8-7.9-15.3-9-23.7-9
			c-11.1,0-22.1,1.1-29.5,18.4l0.5,85.9v15.3l22.7-1.1c13.7,0,36.4-7.9,36.4-17.4L188.3,2087.3z M187.8,2816.5
			c-7.4,17.4-17.9,18.4-29,18.4s-22.1-1.1-29.5-18.4v-612.8v-15.3l22.7,1.1c13.7,0,36.4,7.9,36.4,17.4L187.8,2816.5z M70.8,2816.5
			c7.4,17.4,17.9,18.4,29,18.4s22.1-1.1,29.5-18.4v-612.8v-15.3l-22.7,1.1c-13.7,0-36.4,7.9-36.4,17.4L70.8,2816.5z M419.6,2171.6
			c7.4-17.4,17.9-18.4,29-18.4s22.1,1.1,29.5,18.4l-0.5,77.5v15.3l-22.7-1.1c-13.7,0-36.4-7.9-36.4-17.4L419.6,2171.6z
			 M537.1,2171.6c-1.6-4.2-3.7-7.4-5.8-9.5c-6.8-7.9-15.3-9-23.7-9c-11.1,0-22.1,1.1-29.5,18.4l-0.5,77.5v15.3l22.7-1.1
			c13.7,0,36.4-7.9,36.4-17.4L537.1,2171.6z M536.6,2816.5c-7.4,17.4-17.9,18.4-29,18.4s-22.1-1.1-29.5-18.4v-536.9v-15.3l22.7,1.1
			c13.7,0,36.4,7.9,36.4,17.4L536.6,2816.5z M419.6,2816.5c7.4,17.4,17.9,18.4,29,18.4s22.1-1.1,29.5-18.4l-0.5-536.9v-15.3
			l-22.7,1.1c-13.7,0-36.4,7.9-36.4,17.4L419.6,2816.5z M243.6,2139.9c7.4-17.4,17.9-18.4,29-18.4s22.1,1.1,29.5,18.4l-0.5,73.2
			v15.3l-22.7-1.1c-13.7,0-36.4-7.9-36.4-17.4L243.6,2139.9z M361.1,2139.9c-1.6-4.2-3.7-7.4-5.8-9.5c-6.8-7.9-15.3-9-23.7-9
			c-11.1,0-22.1,1.1-29.5,18.4v73.2v15.3l22.7-1.1c13.7,0,36.4-7.9,36.4-17.4L361.1,2139.9z M360.6,2816.5
			c-7.4,17.4-17.9,18.4-29,18.4s-22.1-1.1-29.5-18.4v-572.8v-15.3l22.7,1.1c13.7,0,36.4,7.9,36.4,17.4L360.6,2816.5z M243.6,2816.5
			c7.4,17.4,17.9,18.4,29,18.4s22.1-1.1,29.5-18.4l-0.5-572.8v-15.3l-22.7,1.1c-13.7,0-36.4,7.9-36.4,17.4L243.6,2816.5z
			 M598.7,2250.6c7.4-17.4,17.9-18.4,29-18.4s22.1,1.1,29.5,18.4l-0.5,219.7v15.3l-22.7-1.1c-13.7,0-36.4-7.9-36.4-17.4
			L598.7,2250.6z M716.2,2250.6c-1.6-4.2-3.7-7.4-5.8-9.5c-6.8-7.9-15.3-9-23.7-9c-11.1,0-22.1,1.1-29.5,18.4l-0.5,219.7v15.3
			l22.7-1.1c13.7,0,36.4-7.9,36.4-17.4L716.2,2250.6z M715.7,2816.5c-7.4,17.4-17.9,18.4-29,18.4s-22.1-1.1-29.5-18.4v-316.2V2485
			l22.7,1.1c13.7,0,36.4,7.9,36.4,17.4L715.7,2816.5z M598.7,2816.5c7.4,17.4,17.9,18.4,29,18.4s22.1-1.1,29.5-18.4l-1.1-316.2V2485
			l-22.7,1.1c-13.7,0-36.4,7.9-36.4,17.4L598.7,2816.5z M783.2,2310.4c7.4-17.4,17.9-18.4,29-18.4s22.1,1.1,29.5,18.4l-1.1,123.8
			v15.3l-22.7-1.1c-13.7,0-36.4-7.9-36.4-17.4L783.2,2310.4z M900.7,2310.4c-1.6-4.2-3.7-7.4-5.8-9.5c-6.8-7.9-15.3-9-23.7-9
			c-11.1,0-22.1,1.1-29.5,18.4v123.9v15.3l22.7-1.1c13.7,0,36.4-7.9,36.4-17.4L900.7,2310.4L900.7,2310.4z M900.2,2817.8
			c-7.4,17.4-17.9,18.4-29,18.4s-22.1-1.1-29.5-18.4v-353v-15.3l22.7,1.1c13.7,0,36.4,7.9,36.4,17.4L900.2,2817.8z M783.2,2817.8
			c7.4,17.4,17.9,18.4,29,18.4s22.1-1.1,29.5-18.4l-0.5-353v-15.3l-22.7,1.1c-13.7,0-36.4,7.9-36.4,17.4L783.2,2817.8z
			 M957.7,2333.1c7.4-17.4,17.9-18.4,29-18.4s22.1,1.1,29.5,18.4l-1.1,79v15.3l-22.1-1.1c-13.7,0-36.4-7.9-36.4-17.4L957.7,2333.1z
			 M1075.2,2333.1c-1.6-4.2-3.7-7.4-5.8-9.5c-6.8-7.9-15.3-9-23.7-9c-11.1,0-22.1,1.1-29.5,18.4l-0.5,79v15.3l22.7-1.1
			c13.7,0,36.4-7.9,36.4-17.4L1075.2,2333.1z M1074.7,2817.4c-7.4,17.4-17.9,18.4-29,18.4s-22.1-1.1-29.5-18.4v-375.2v-15.3
			l22.7,1.1c13.7,0,36.4,7.9,36.4,17.4L1074.7,2817.4z M957.7,2817.4c7.4,17.4,17.9,18.4,29,18.4s22.1-1.1,29.5-18.4l-0.5-375.2
			v-15.3L993,2428c-13.7,0-36.4,7.9-36.4,17.4L957.7,2817.4z M1141.5,2456.9c7.4-17.4,17.9-18.4,29-18.4s22.1,1.1,29.5,18.4
			l-1.1,142.3v15.3l-22.7-1.1c-13.7,0-36.4-7.9-36.4-17.4L1141.5,2456.9z M1259,2456.9c-1.6-4.2-3.7-7.4-5.8-9.5
			c-6.8-7.9-15.3-9-23.7-9c-11.1,0-22.1,1.1-29.5,18.4l-0.5,142.3v15.3l22.7-1.1c13.7,0,36.4-7.9,36.4-17.4L1259,2456.9z
			 M1258.5,2817.9c-7.4,17.4-17.9,18.4-29,18.4s-22.1-1.1-29.5-18.4l-0.5-188.6V2614l22.7,1.1c13.7,0,36.4,7.9,36.4,17.4
			L1258.5,2817.9L1258.5,2817.9z M1141.5,2817.9c7.4,17.4,17.9,18.4,29,18.4s22.1-1.1,29.5-18.4l-1.1-188.6V2614l-22.7,1.1
			c-13.7,0-36.4,7.9-36.4,17.4L1141.5,2817.9z M1316.4,2435.8c7.4-17.4,17.9-18.4,29-18.4s22.1,1.1,29.5,18.4l-1.1,148.6v15.3
			l-22.7-1.1c-13.7,0-36.4-7.9-36.4-17.4L1316.4,2435.8z M1433.9,2435.8c-1.6-4.2-3.7-7.4-5.8-9.5c-6.8-7.9-15.3-9-23.7-9
			c-11.1,0-22.1,1.1-29.5,18.4l-0.5,148.6v15.3l22.7-1.1c13.7,0,36.4-7.9,36.4-17.4L1433.9,2435.8z M1433.4,2817.9
			c-7.4,17.4-17.9,18.4-29,18.4s-22.1-1.1-29.5-18.4V2615v-15.3l22.7,1.1c13.7,0,36.4,7.9,36.4,17.4L1433.4,2817.9z M1316.4,2817.9
			c7.4,17.4,17.9,18.4,29,18.4s22.1-1.1,29.5-18.4l-1.1-202.9v-15.3l-22.7,1.1c-13.7,0-36.4,7.9-36.4,17.4L1316.4,2817.9z
			 M1495.1,2530.7c7.4-17.4,17.9-18.4,29-18.4s22.1,1.1,29.5,18.4l-1.1,46.9v15.3l-22.7-1.1c-13.7,0-36.4-7.9-36.4-17.4
			L1495.1,2530.7z M1612.6,2530.7c-1.6-4.2-3.7-7.4-5.8-9.5c-6.8-7.9-15.3-9-23.7-9c-11.1,0-22.1,1.1-29.5,18.4v46.9v15.3l22.7-1.1
			c13.7,0,36.4-7.9,36.4-17.4L1612.6,2530.7L1612.6,2530.7z M1612,2817.9c-7.4,17.4-17.9,18.4-29,18.4s-22.1-1.1-29.5-18.4v-209.7
			v-15.3l22.7,1.1c13.7,0,36.4,7.9,36.4,17.4L1612,2817.9z M1495.1,2817.9c7.4,17.4,17.9,18.4,29,18.4s22.1-1.1,29.5-18.4
			l-0.5-209.7v-15.3l-22.7,1.1c-13.7,0-36.4,7.9-36.4,17.4L1495.1,2817.9z M1495.1,2530.7c7.4-17.4,17.9-18.4,29-18.4
			s22.1,1.1,29.5,18.4l-1.1,46.9v15.3l-22.7-1.1c-13.7,0-36.4-7.9-36.4-17.4L1495.1,2530.7z M1612.6,2530.7
			c-1.6-4.2-3.7-7.4-5.8-9.5c-6.8-7.9-15.3-9-23.7-9c-11.1,0-22.1,1.1-29.5,18.4v46.9v15.3l22.7-1.1c13.7,0,36.4-7.9,36.4-17.4
			L1612.6,2530.7L1612.6,2530.7z M1612,2817.9c-7.4,17.4-17.9,18.4-29,18.4s-22.1-1.1-29.5-18.4v-209.7v-15.3l22.7,1.1
			c13.7,0,36.4,7.9,36.4,17.4L1612,2817.9z M1495.1,2817.9c7.4,17.4,17.9,18.4,29,18.4s22.1-1.1,29.5-18.4l-0.5-209.7v-15.3
			l-22.7,1.1c-13.7,0-36.4,7.9-36.4,17.4L1495.1,2817.9z M1678.9,2509.6c7.4-17.4,17.9-18.4,29-18.4s22.1,1.1,29.5,18.4l-0.5,56.4
			v15.3l-22.7-1.1c-13.7,0-36.4-7.9-36.4-17.4L1678.9,2509.6z M1796.4,2509.6c-1.6-4.2-3.7-7.4-5.8-9.5c-6.8-7.9-15.3-9-23.7-9
			c-11.1,0-22.1,1.1-29.5,18.4v56.4v15.3l22.7-1.1c13.7,0,36.4-7.9,36.4-17.4L1796.4,2509.6L1796.4,2509.6z M1795.9,2817.9
			c-7.4,17.4-17.9,18.4-29,18.4s-22.1-1.1-29.5-18.4v-221.3v-15.3l22.7,1.1c13.7,0,36.4,7.9,36.4,17.4L1795.9,2817.9z
			 M1678.9,2817.9c7.4,17.4,17.9,18.4,29,18.4s22.1-1.1,29.5-18.4l-0.5-221.3v-15.3l-22.7,0.5c-13.7,0-36.4,7.9-36.4,17.4
			L1678.9,2817.9z M1882.3,1819c7.4-17.4,17.9-18.4,29-18.4s22.1,1.1,29.5,18.4l-0.5,369.9c0,7.9-13.2,19-29,19
			c-13.7,0-29.5-9-29.5-18.4L1882.3,1819z M1882.3,2817.5c7.4,17.4,17.9,18.4,29,18.4s22.1-1.1,29.5-18.4l-0.5-592.3
			c0-6.3-13.7-17.4-29-17.4c-13.7,0-29.5,9-29.5,18.4L1882.3,2817.5z M70.4,18.9c7.4-17.4,17.9-18.4,29-18.4s22.1,1.1,29.5,18.4
			l-0.5,794.6v15.3l-22.7-1.1c-13.7,0-36.4-7.9-36.4-17.4L70.4,18.9z M187.9,18.9c-1.6-4.2-3.7-7.4-5.8-9.5c-6.8-7.9-15.3-9-23.7-9
			c-11.1,0-22.1,1.1-29.5,18.4v794.6v15.3l22.7-1.1c13.7,0,36.4-7.9,36.4-17.4L187.9,18.9L187.9,18.9z M187.4,1636.5
			c-7.4,17.4-17.9,18.4-29,18.4s-22.1-1.1-29.5-18.4V844v-15.3l22.7,1.1c13.7,0,36.4,7.9,36.4,17.4L187.4,1636.5z M70.4,1636.5
			c7.4,17.4,17.9,18.4,29,18.4s22.1-1.1,29.5-18.4L128.4,844v-15.3l-22.7,1.1c-13.7,0-36.4,7.9-36.4,17.4L70.4,1636.5z M243.2,61.1
			c7.4-17.4,17.9-18.4,29-18.4s22.1,1.1,29.5,18.4l-0.5,582.8v15.3l-22.7-1.1c-13.7,0-36.4-7.9-36.4-17.4L243.2,61.1z M360.7,61.1
			c-1.6-4.2-3.7-7.4-5.8-9.5c-6.8-7.9-15.3-9-23.7-9c-11.1,0-22.1,1.1-29.5,18.4v582.8v15.3l22.7-1.1c13.7,0,36.4-7.9,36.4-17.4
			L360.7,61.1L360.7,61.1z M360.2,1636.5c-7.4,17.4-17.9,18.4-29,18.4s-22.1-1.1-29.5-18.4V673.8v-15.3l22.7,1.1
			c13.7,0,36.4,7.9,36.4,17.4L360.2,1636.5z M243.2,1636.5c7.4,17.4,17.9,18.4,29,18.4s22.1-1.1,29.5-18.4l-0.5-962.7v-15.3
			l-22.7,1.1c-13.7,0-36.4,7.9-36.4,17.4L243.2,1636.5z M419.5,358.4c7.4-17.4,17.9-18.4,29-18.4s22.1,1.1,29.5,18.4l-0.5,562.8
			v15.3l-22.7-1.1c-13.7,0-36.4-7.9-36.4-17.4L419.5,358.4z M537,358.4c-1.6-4.2-3.7-7.4-5.8-9.5c-6.8-7.9-15.3-9-23.7-9
			c-11.1,0-22.1,1.1-29.5,18.4v562.8v15.3l22.7-1.1c13.7,0,36.4-7.9,36.4-17.4L537,358.4z M536.4,1636.2
			c-7.4,17.4-17.9,18.4-29,18.4s-22.1-1.1-29.5-18.4v-685v-15.3l22.7,1.1c13.7,0,36.4,7.9,36.4,17.4L536.4,1636.2z M419.5,1636.2
			c7.4,17.4,17.9,18.4,29,18.4s22.1-1.1,29.5-18.4l-0.5-685v-15.3l-22.7,1.1c-13.7,0-36.4,7.9-36.4,17.4L419.5,1636.2z M597.7,533.9
			c7.4-17.4,17.9-18.4,29-18.4s22.1,1.1,29.5,18.4l-1.1,258.7v15.3l-22.1-1.6c-13.7,0-36.4-7.9-36.4-17.4L597.7,533.9z M715.2,533.9
			c-1.6-4.2-3.7-7.4-5.8-9.5c-6.8-7.9-15.3-9-23.7-9c-11.1,0-22.1,1.1-29.5,18.4v258.7v15.3l22.7-1.1c13.7,0,36.4-7.9,36.4-17.4
			L715.2,533.9L715.2,533.9z M714.6,1635.2c-7.4,17.4-17.9,18.4-29,18.4s-22.1-1.1-29.5-18.4V822.7v-15.3l22.7,1.1
			c13.7,0,36.4,7.9,36.4,17.4L714.6,1635.2z M597.7,1635.2c7.4,17.4,17.9,18.4,29,18.4s22.1-1.1,29.5-18.4l-0.5-812.5v-15.3
			l-22.7,1.1c-13.7,0-36.4,7.9-36.4,17.4L597.7,1635.2z M777.4,477c7.4-17.4,17.9-18.4,29-18.4s22.1,1.1,29.5,18.4l-1.1,277.2v15.3
			l-22.7-1.1c-13.7,0-36.4-7.9-36.4-17.4L777.4,477z M894.9,477c-1.6-4.2-3.7-7.4-5.8-9.5c-6.8-7.9-15.3-9-23.7-9
			c-11.1,0-22.1,1.1-29.5,18.4v277.2v15.3l22.7-1.1c13.7,0,36.4-7.9,36.4-17.4L894.9,477L894.9,477z M894.4,1635.1
			c-7.4,17.4-17.9,18.4-29,18.4s-22.1-1.1-29.5-18.4v-851v-15.3l22.7,1.1c13.7,0,36.4,7.9,36.4,17.4L894.4,1635.1z M777.4,1635.1
			c7.4,17.4,17.9,18.4,29,18.4s22.1-1.1,29.5-18.4l-0.5-851v-15.3l-22.7,1.1c-13.7,0-36.4,7.9-36.4,17.4L777.4,1635.1z M954.5,539.7
			c7.4-17.4,17.9-18.4,29-18.4s22.1,1.1,29.5,18.4l-1.1,363.6v15.3l-22.7-1.1c-13.7,0-36.4-7.9-36.4-17.4L954.5,539.7z M1072,539.7
			c-1.6-4.2-3.7-7.4-5.8-9.5c-6.9-7.9-15.3-9-23.7-9c-11.1,0-22.1,1.1-29.5,18.4l-0.5,363.6v15.3l22.7-1.1
			c13.7,0,36.4-7.9,36.4-17.4L1072,539.7z M1071.4,1634.7c-7.4,17.4-17.9,18.4-29,18.4s-22.1-1.1-29.5-18.4V933.4v-15.3l22.7,1.1
			c13.7,0,36.4,7.9,36.4,17.4L1071.4,1634.7z M954.5,1634.7c7.4,17.4,17.9,18.4,29,18.4s22.1-1.1,29.5-18.4l-0.5-701.3v-15.3
			l-22.7,1.1c-13.7,0-36.4,7.9-36.4,17.4L954.5,1634.7z M1314.9,708.4c7.4-17.4,17.9-18.4,29-18.4s22.1,1.1,29.5,18.4l-0.5,267.1
			v15.3l-22.7-1.1c-13.7,0-36.4-7.9-36.4-17.4L1314.9,708.4z M1432.4,708.4c-1.6-4.2-3.7-7.4-5.8-9.5c-6.8-7.9-15.3-9-23.7-9
			c-11.1,0-22.1,1.1-29.5,18.4v267.1v15.3l22.7-1.1c13.7,0,36.4-7.9,36.4-17.4L1432.4,708.4L1432.4,708.4z M1431.9,1634.7
			c-7.4,17.4-17.9,18.4-29,18.4s-22.1-1.1-29.5-18.4v-628.6v-15.3l22.7,1.1c13.7,0,36.4,7.9,36.4,17.4L1431.9,1634.7z
			 M1314.9,1634.7c7.4,17.4,17.9,18.4,29,18.4s22.1-1.1,29.5-18.4l-0.5-628.6v-15.3l-22.7,1.1c-13.7,0-36.4,7.9-36.4,17.4
			L1314.9,1634.7z M1496.6,740c7.4-17.4,17.9-18.4,29-18.4s22.1,1.1,29.5,18.4l-1.1,316.7v15.3l-22.7-1.1
			c-13.7,0-36.4-7.9-36.4-17.4L1496.6,740z M1614.1,740c-1.6-4.2-3.7-7.4-5.8-9.5c-6.8-7.9-15.3-9-23.7-9
			c-11.1,0-22.1,1.1-29.5,18.4v316.7v15.3l22.7-1.1c13.7,0,36.4-7.9,36.4-17.4L1614.1,740L1614.1,740z M1613.5,1634.7
			c-7.4,17.4-17.9,18.4-29,18.4s-22.1-1.1-29.5-18.4v-547.5v-15.3l22.7,1.1c13.7,0,36.4,7.9,36.4,17.4L1613.5,1634.7z
			 M1496.6,1634.7c7.4,17.4,17.9,18.4,29,18.4s22.1-1.1,29.5-18.4l-0.5-547.5v-15.3l-22.7,1.1c-13.7,0-36.4,7.9-36.4,17.4
			L1496.6,1634.7z M1676.3,782.1c7.4-17.4,17.9-18.4,29-18.4s22.1,1.1,29.5,18.4l-1.1,229.2v15.3l-22.7-1.1
			c-13.7,0-36.4-7.9-36.4-17.4L1676.3,782.1z M1793.8,782.1c-1.6-4.2-3.7-7.4-5.8-9.5c-6.9-7.9-15.3-9-23.7-9
			c-11.1,0-22.1,1.1-29.5,18.4v229.2v15.3l22.7-1.1c13.7,0,36.4-7.9,36.4-17.4L1793.8,782.1L1793.8,782.1z M1793.3,1634.7
			c-7.4,17.4-17.9,18.4-29,18.4s-22.1-1.1-29.5-18.4v-593.3v-15.3l22.7,1.1c13.7,0,36.4,7.9,36.4,17.4L1793.3,1634.7z
			 M1676.3,1634.7c7.4,17.4,17.9,18.4,29,18.4s22.1-1.1,29.5-18.4l-0.5-593.3v-15.3l-22.7,1.1c-13.7,0-36.4,7.9-36.4,17.4
			L1676.3,1634.7z M1853.5,782.1c7.4-17.4,17.9-18.4,29-18.4s22.1,1.1,29.5,18.4l-1.1,319.3v15.3l-22.7-1.1
			c-13.7,0-36.4-7.9-36.4-17.4L1853.5,782.1z M1971,782.1c-1.6-4.2-3.7-7.4-5.8-9.5c-6.8-7.9-15.3-9-23.7-9
			c-11.1,0-22.1,1.1-29.5,18.4v319.3v15.3l22.7-1.1c13.7,0,36.4-7.9,36.4-17.4L1971,782.1L1971,782.1z M1970.5,1634.7
			c-7.4,17.4-17.9,18.4-29,18.4s-22.1-1.1-29.5-18.4V1132v-15.3l22.7,1.1c13.7,0,36.4,7.9,36.4,17.4L1970.5,1634.7z M1853.5,1634.7
			c7.4,17.4,17.9,18.4,29,18.4s22.1-1.1,29.5-18.4l-0.5-502.7v-15.3l-22.7,1.1c-13.7,0-36.4,7.9-36.4,17.4L1853.5,1634.7z
			 M2037.7,785.2c7.4-17.4,17.9-18.4,29-18.4s22.1,1.1,29.5,18.4l-1.1,192.9v15.3l-22.7-1.1c-13.7,0-36.4-7.9-36.4-17.4
			L2037.7,785.2z M2155.2,785.2c-1.6-4.2-3.7-7.4-5.8-9.5c-6.8-7.9-15.3-9-23.7-9c-11.1,0-22.1,1.1-29.5,18.4V978v15.3l22.7-1.1
			c13.7,0,36.4-7.9,36.4-17.4L2155.2,785.2L2155.2,785.2z M2154.7,1634.6c-7.4,17.4-17.9,18.4-29,18.4s-22.1-1.1-29.5-18.4v-626
			v-15.3l22.7,1.1c13.7,0,36.4,7.9,36.4,17.4L2154.7,1634.6z M2037.7,1634.6c7.4,17.4,17.9,18.4,29,18.4s22.1-1.1,29.5-18.4
			l-0.5-626v-15.3l-22.7,1.1c-13.7,0-36.4,7.9-36.4,17.4L2037.7,1634.6z M1140.3,624.1c7.4-17.4,17.9-18.4,29-18.4
			s22.1,1.1,29.5,18.4l-1.1,356.2v15.3l-22.7-1.1c-13.7,0-36.4-7.9-36.4-17.4L1140.3,624.1z M1257.8,624.1c-1.6-4.2-3.7-7.4-5.8-9.5
			c-6.8-7.9-15.3-9-23.7-9c-11.1,0-22.1,1.1-29.5,18.4v356.2v15.3l22.7-1.1c13.7,0,36.4-7.9,36.4-17.4L1257.8,624.1L1257.8,624.1z
			 M1257.2,1634.7c-7.4,17.4-17.9,18.4-29,18.4s-22.1-1.1-29.5-18.4v-623.9v-15.3l22.7,1.1c13.7,0,36.4,7.9,36.4,17.4L1257.2,1634.7
			z M1140.3,1634.7c7.4,17.4,17.9,18.4,29,18.4s22.1-1.1,29.5-18.4l-0.5-624.4V995l-22.7,1.6c-13.7,0-36.4,7.9-36.4,17.4
			L1140.3,1634.7z M1141.5,2456.9c7.4-17.4,17.9-18.4,29-18.4s22.1,1.1,29.5,18.4l-1.1,142.3v15.3l-22.7-1.1
			c-13.7,0-36.4-7.9-36.4-17.4L1141.5,2456.9z M1259,2456.9c-1.6-4.2-3.7-7.4-5.8-9.5c-6.8-7.9-15.3-9-23.7-9
			c-11.1,0-22.1,1.1-29.5,18.4l-0.5,142.3v15.3l22.7-1.1c13.7,0,36.4-7.9,36.4-17.4L1259,2456.9z M1258.5,2817.9
			c-7.4,17.4-17.9,18.4-29,18.4s-22.1-1.1-29.5-18.4l-0.5-188.6V2614l22.7,1.1c13.7,0,36.4,7.9,36.4,17.4L1258.5,2817.9
			L1258.5,2817.9z M1141.5,2817.9c7.4,17.4,17.9,18.4,29,18.4s22.1-1.1,29.5-18.4l-1.1-188.6V2614l-22.7,1.1
			c-13.7,0-36.4,7.9-36.4,17.4L1141.5,2817.9z"/>
	</defs>
	<clipPath id="SVGID_2_">
		<use xlink:href="#SVGID_1_"  style="overflow:visible;"/>
	</clipPath>
	<g class="st2">
<rect x="69.3" y="8.347256480857475" fill="#808080 " width="59.3" height="3.14447147355352"/>
<rect x="69.3" y="12.825314691994288" fill="#D92414" width="59.3" height="11.278690102039905"/>
<rect x="69.3" y="24.55570706080608" fill="#808080 " width="59.3" height="4.090723633543124"/>
<rect x="69.3" y="28.65995209095186" fill="#F4A500" width="59.3" height="6.045245827090639"/>
<rect x="69.3" y="34.70749463047476" fill="#808080 " width="59.3" height="6.046513665456423"/>
<rect x="69.3" y="40.835880120033885" fill="#D92414" width="59.3" height="235.61469026189508"/>
<rect x="69.3" y="276.4806267804645" fill="#808080 " width="59.3" height="2.7621750599369648"/>
<rect x="69.3" y="279.24521803498334" fill="#0000ff " width="59.3" height="17.600019349600757"/>
<rect x="69.3" y="296.8813940106492" fill="#808080 " width="59.3" height="2.5763006624565605"/>
<rect x="69.3" y="299.47194623840073" fill="#F4A500" width="59.3" height="141.58991189233586"/>
<rect x="69.3" y="441.07438384275883" fill="#808080 " width="59.3" height="10.623582751274228"/>
<rect x="69.3" y="451.8121118743371" fill="#0000ff " width="59.3" height="5.945770299605385"/>
<rect x="69.3" y="457.7859007380367" fill="#808080 " width="59.3" height="0.9600589861719868"/>
<rect x="69.3" y="458.7614990415611" fill="#F4A500" width="59.3" height="8.310421609741923"/>
<rect x="69.3" y="467.1388505688016" fill="#808080 " width="59.3" height="5.689096090556973"/>
<rect x="69.3" y="472.8584544349039" fill="#D92414" width="59.3" height="589.2304759172496"/>
<rect x="69.3" y="1062.138860614915" fill="#808080 " width="59.3" height="4.820958704852956"/>
<rect x="69.3" y="1066.963642748557" fill="#F4A500" width="59.3" height="307.2281354416366"/>
<rect x="69.3" y="1374.231638762898" fill="#808080 " width="59.3" height="9.969252034481315"/>
<rect x="69.3" y="1384.2388728451754" fill="#F4A500" width="59.3" height="18.42619194918666"/>
<rect x="69.3" y="1402.7259011222284" fill="#808080 " width="59.3" height="5.253218570717081"/>
<rect x="69.3" y="1408.028299873323" fill="#D92414" width="59.3" height="10.686848549516753"/>
<rect x="69.3" y="1418.7269439661698" fill="#808080 " width="59.3" height="5.722610833535327"/>
<rect x="69.3" y="1424.5973475809315" fill="#F4A500" width="59.3" height="1.5468557368208167"/>
<rect x="69.3" y="1426.164521921091" fill="#808080 " width="59.3" height="3.7663362351261185"/>
<rect x="69.3" y="1430.0652888503737" fill="#D92414" width="59.3" height="22.770708944392027"/>
<rect x="69.3" y="1453.1504615368642" fill="#808080 " width="59.3" height="2.186476873411493"/>
<rect x="69.3" y="1455.503549630073" fill="#F4A500" width="59.3" height="85.88582692036698"/>
<rect x="69.3" y="1541.3967844437186" fill="#808080 " width="59.3" height="1.7282960189695586"/>
<rect x="69.3" y="1543.127848465822" fill="#D92414" width="59.3" height="112.60720650521466"/>
<rect x="242.09999999999997" y="43.84389601859706" fill="#808080 " width="59.3" height="3.6368332676581367"/>
<rect x="242.09999999999997" y="47.56177381098758" fill="#F4A500" width="59.3" height="36.96350340508485"/>
<rect x="242.09999999999997" y="84.67384779482964" fill="#808080 " width="59.3" height="4.228238183821311"/>
<rect x="242.09999999999997" y="88.92152499587243" fill="#F4A500" width="59.3" height="42.135992513434644"/>
<rect x="242.09999999999997" y="131.1002740652625" fill="#808080 " width="59.3" height="4.865999719497637"/>
<rect x="242.09999999999997" y="136.05862237646477" fill="#F4A500" width="59.3" height="13.398349249855997"/>
<rect x="242.09999999999997" y="149.54343282126803" fill="#808080 " width="59.3" height="2.532535318666291"/>
<rect x="242.09999999999997" y="152.106644924615" fill="#D92414" width="59.3" height="40.51384232803922"/>
<rect x="242.09999999999997" y="192.72351006595727" fill="#808080 " width="59.3" height="4.537260214071381"/>
<rect x="242.09999999999997" y="197.2992505173934" fill="#F4A500" width="59.3" height="297.1593633606942"/>
<rect x="242.09999999999997" y="494.4768197243667" fill="#808080 " width="59.3" height="1.8279173540468037"/>
<rect x="242.09999999999997" y="496.3304745493732" fill="#0000ff " width="59.3" height="46.038540969429164"/>
<rect x="242.09999999999997" y="542.4350498337839" fill="#808080 " width="59.3" height="2.8430954976187763"/>
<rect x="242.09999999999997" y="545.3059646070716" fill="#F4A500" width="59.3" height="23.580243924395347"/>
<rect x="242.09999999999997" y="568.8949202874795" fill="#808080 " width="59.3" height="2.843287766206572"/>
<rect x="242.09999999999997" y="571.7900012332681" fill="#F4A500" width="59.3" height="57.6042191901538"/>
<rect x="242.09999999999997" y="629.4795014870372" fill="#808080 " width="59.3" height="61.60564673988699"/>
<rect x="242.09999999999997" y="693.4564298699898" fill="#F4A500" width="59.3" height="9.056632819526271"/>
<rect x="242.09999999999997" y="702.5135400460099" fill="#808080 " width="59.3" height="4.5841671195427125"/>
<rect x="242.09999999999997" y="707.5925601008848" fill="#D92414" width="59.3" height="20.983630126381968"/>
<rect x="242.09999999999997" y="728.705812405199" fill="#808080 " width="59.3" height="0.11116439350359997"/>
<rect x="242.09999999999997" y="728.8369661018824" fill="#F4A500" width="59.3" height="112.6802655695991"/>
<rect x="242.09999999999997" y="841.5478355266978" fill="#808080 " width="59.3" height="9.816869445629663"/>
<rect x="242.09999999999997" y="851.3768178933586" fill="#F4A500" width="59.3" height="190.6197852080811"/>
<rect x="242.09999999999997" y="1042.058540106516" fill="#808080 " width="59.3" height="10.212452120096486"/>
<rect x="242.09999999999997" y="1052.5402146591882" fill="#D92414" width="59.3" height="92.38199339930043"/>
<rect x="242.09999999999997" y="1145.0021122315968" fill="#808080 " width="59.3" height="4.022464385218655"/>
<rect x="242.09999999999997" y="1149.1745660051515" fill="#F4A500" width="59.3" height="51.87253346907278"/>
<rect x="242.09999999999997" y="1201.142749781678" fill="#808080 " width="59.3" height="6.438365600555926"/>
<rect x="242.09999999999997" y="1207.591060309189" fill="#D92414" width="59.3" height="117.6092962361381"/>
<rect x="242.09999999999997" y="1325.3002898013228" fill="#808080 " width="59.3" height="13.815041689272675"/>
<rect x="242.09999999999997" y="1339.128147186465" fill="#0000ff " width="59.3" height="65.91025533277184"/>
<rect x="242.09999999999997" y="1405.1506409648516" fill="#808080 " width="59.3" height="5.504278391375465"/>
<rect x="242.09999999999997" y="1410.710518127857" fill="#F4A500" width="59.3" height="211.27766593707474"/>
<rect x="242.09999999999997" y="1621.9940383119326" fill="#808080 " width="59.3" height="8.90363343329841"/>
<rect x="242.09999999999997" y="1630.8999855982358" fill="#F4A500" width="59.3" height="22.21047609526545"/>
<rect x="418.3" y="341.8441190919634" fill="#D92414" width="59.3" height="11.309302066942621"/>
<rect x="418.3" y="353.22847007533437" fill="#808080 " width="59.3" height="2.3665438258686144"/>
<rect x="418.3" y="355.69567664632734" fill="#F4A500" width="59.3" height="9.319164673921032"/>
<rect x="418.3" y="365.0618597585132" fill="#808080 " width="59.3" height="0.09768840731830508"/>
<rect x="418.3" y="365.3179515714457" fill="#0000ff " width="59.3" height="12.879261131680892"/>
<rect x="418.3" y="378.4002046192444" fill="#808080 " width="59.3" height="1.4512577575176735"/>
<rect x="418.3" y="379.9775132195883" fill="#0000ff " width="59.3" height="40.3720945410073"/>
<rect x="418.3" y="420.49258178884077" fill="#808080 " width="59.3" height="2.4883456146861818"/>
<rect x="418.3" y="423.07053596908185" fill="#D92414" width="59.3" height="61.385479101029105"/>
<rect x="418.3" y="484.4835011382296" fill="#808080 " width="59.3" height="2.128683110292087"/>
<rect x="418.3" y="486.6843916100817" fill="#F4A500" width="59.3" height="11.914174822518845"/>
<rect x="418.3" y="498.6442172066063" fill="#808080 " width="59.3" height="6.943067115679781"/>
<rect x="418.3" y="505.68239674061164" fill="#F4A500" width="59.3" height="12.886816480840082"/>
<rect x="418.3" y="518.5796897952418" fill="#808080 " width="59.3" height="6.297171071479113"/>
<rect x="418.3" y="524.9003236118251" fill="#D92414" width="59.3" height="41.57946323757366"/>
<rect x="418.3" y="566.5040330138359" fill="#808080 " width="59.3" height="6.161174786613799"/>
<rect x="418.3" y="572.6740113092239" fill="#F4A500" width="59.3" height="20.69883505873551"/>
<rect x="418.3" y="593.4331895740295" fill="#808080 " width="59.3" height="4.415065876628205"/>
<rect x="418.3" y="597.85580416067" fill="#0000ff " width="59.3" height="150.76166123655793"/>
<rect x="418.3" y="748.6299337150847" fill="#808080 " width="59.3" height="2.3093674928642827"/>
<rect x="418.3" y="750.9599489547725" fill="#D92414" width="59.3" height="32.39970073087176"/>
<rect x="418.3" y="783.3621260874336" fill="#808080 " width="59.3" height="2.308225559599464"/>
<rect x="418.3" y="785.6760082001822" fill="#F4A500" width="59.3" height="206.6030277802369"/>
<rect x="418.3" y="992.2994380788075" fill="#808080 " width="59.3" height="1.511527932972058"/>
<rect x="418.3" y="993.855149534323" fill="#D92414" width="59.3" height="337.17621845767667"/>
<rect x="418.3" y="1331.0479326634868" fill="#808080 " width="59.3" height="6.703134986273994"/>
<rect x="418.3" y="1337.795437068417" fill="#F4A500" width="59.3" height="152.51312793808245"/>
<rect x="418.3" y="1490.7303832040643" fill="#808080 " width="59.3" height="1.3305514279368253"/>
<rect x="418.3" y="1492.0756403423593" fill="#0000ff " width="59.3" height="18.740539014191427"/>
<rect x="418.3" y="1510.8814355313184" fill="#808080 " width="59.3" height="1.7778639495534208"/>
<rect x="418.3" y="1512.699028135853" fill="#D92414" width="59.3" height="141.88627705810904"/>
<rect x="596.3000000000001" y="518.3376541113838" fill="#D92414" width="59.3" height="33.7582201828433"/>
<rect x="596.3000000000001" y="552.1018102624081" fill="#808080 " width="59.3" height="0.630135470785909"/>
<rect x="596.3000000000001" y="552.7378995628641" fill="#0000ff " width="59.3" height="7.557898552057502"/>
<rect x="596.3000000000001" y="560.3481620468693" fill="#808080 " width="59.3" height="1.607819794729572"/>
<rect x="596.3000000000001" y="561.9670797801039" fill="#D92414" width="59.3" height="562.771412736799"/>
<rect x="596.3000000000001" y="1124.8481799209135" fill="#808080 " width="59.3" height="3.0234678291999444"/>
<rect x="596.3000000000001" y="1127.875934507476" fill="#D92414" width="59.3" height="306.967192897113"/>
<rect x="596.3000000000001" y="1434.865335189258" fill="#808080 " width="59.3" height="0.6279861382751051"/>
<rect x="596.3000000000001" y="1435.5056933855876" fill="#F4A500" width="59.3" height="30.890885582910073"/>
<rect x="596.3000000000001" y="1466.4289618480727" fill="#808080 " width="59.3" height="11.263329939321011"/>
<rect x="596.3000000000001" y="1477.7242162220841" fill="#F4A500" width="59.3" height="52.28494844342379"/>
<rect x="596.3000000000001" y="1530.0385289534406" fill="#808080 " width="59.3" height="0.27203643145298884"/>
<rect x="596.3000000000001" y="1530.4992065241586" fill="#D92414" width="59.3" height="8.643954483654852"/>
<rect x="596.3000000000001" y="1539.4075765372886" fill="#808080 " width="59.3" height="5.678137587149649"/>
<rect x="596.3000000000001" y="1545.139774897842" fill="#F4A500" width="59.3" height="85.79822211981286"/>
<rect x="596.3000000000001" y="1630.9911587627785" fill="#808080 " width="59.3" height="2.2352581806749185"/>
<rect x="596.3000000000001" y="1633.3350267042938" fill="#D92414" width="59.3" height="20.98898215125473"/>
<rect x="776.1" y="461.25194070914745" fill="#808080 " width="59.3" height="5.815689170720037"/>
<rect x="776.1" y="467.18452048655263" fill="#D92414" width="59.3" height="9.0161401094634"/>
<rect x="776.1" y="476.22973296448293" fill="#808080 " width="59.3" height="1.087270909043271"/>
<rect x="776.1" y="477.4768061151945" fill="#F4A500" width="59.3" height="197.89030765232297"/>
<rect x="776.1" y="675.4077529883327" fill="#808080 " width="59.3" height="1.552772308980451"/>
<rect x="776.1" y="677.1206908610142" fill="#F4A500" width="59.3" height="24.726039472292115"/>
<rect x="776.1" y="701.8499738081796" fill="#808080 " width="59.3" height="1.8168215505977514"/>
<rect x="776.1" y="703.695808274548" fill="#D92414" width="59.3" height="13.201035216155901"/>
<rect x="776.1" y="716.9343977771692" fill="#808080 " width="59.3" height="5.169081646291204"/>
<rect x="776.1" y="722.1558242195822" fill="#F4A500" width="59.3" height="93.8388872563873"/>
<rect x="776.1" y="815.995550419572" fill="#808080 " width="59.3" height="4.920391017872191"/>
<rect x="776.1" y="821.0801563903453" fill="#F4A500" width="59.3" height="56.52954589955533"/>
<rect x="776.1" y="877.6189306695301" fill="#808080 " width="59.3" height="8.91576414062581"/>
<rect x="776.1" y="886.5402371226176" fill="#0000ff " width="59.3" height="10.053840681543363"/>
<rect x="776.1" y="896.5945666374412" fill="#808080 " width="59.3" height="14.464398405640338"/>
<rect x="776.1" y="911.1440616689824" fill="#D92414" width="59.3" height="50.6635267185311"/>
<rect x="776.1" y="961.87227952689" fill="#808080 " width="59.3" height="0.4800078578224998"/>
<rect x="776.1" y="962.4310754189557" fill="#0000ff " width="59.3" height="14.306267445322248"/>
<rect x="776.1" y="976.7827250890831" fill="#808080 " width="59.3" height="5.114854181454916"/>
<rect x="776.1" y="981.9291156229717" fill="#0000ff " width="59.3" height="46.96392415377238"/>
<rect x="776.1" y="1028.9483836310987" fill="#808080 " width="59.3" height="7.5886874783254825"/>
<rect x="776.1" y="1036.5389471722838" fill="#F4A500" width="59.3" height="250.02764028750255"/>
<rect x="776.1" y="1286.5707887836547" fill="#808080 " width="59.3" height="1.694355602175392"/>
<rect x="776.1" y="1288.2873863000832" fill="#F4A500" width="59.3" height="50.042232830994976"/>
<rect x="776.1" y="1338.336687396077" fill="#808080 " width="59.3" height="3.0005115212503597"/>
<rect x="776.1" y="1341.477679032714" fill="#D92414" width="59.3" height="88.79258863956522"/>
<rect x="776.1" y="1430.339622545384" fill="#808080 " width="59.3" height="8.404484164575251"/>
<rect x="776.1" y="1438.829731804271" fill="#F4A500" width="59.3" height="126.7327032860577"/>
<rect x="776.1" y="1565.6262608626823" fill="#808080 " width="59.3" height="3.9201126151547214"/>
<rect x="776.1" y="1569.5799246160882" fill="#D92414" width="59.3" height="55.14111405472363"/>
<rect x="776.1" y="1625.013863017415" fill="#808080 " width="59.3" height="3.9648606778664544"/>
<rect x="776.1" y="1630.5124381121857" fill="#0000ff " width="59.3" height="11.792224308220284"/>
<rect x="776.1" y="1642.3175042027963" fill="#808080 " width="59.3" height="1.299345282426657"/>
<rect x="776.1" y="1643.7406564222388" fill="#D92414" width="59.3" height="10.580419818095834"/>
<rect x="953.1" y="525.564608374317" fill="#D92414" width="59.3" height="7.725220685563591"/>
<rect x="953.1" y="533.3719782022469" fill="#808080 " width="59.3" height="0.38096830128933235"/>
<rect x="953.1" y="533.8948290520788" fill="#F4A500" width="59.3" height="103.2808980438876"/>
<rect x="953.1" y="637.1829234137518" fill="#808080 " width="59.3" height="4.290480380666878"/>
<rect x="953.1" y="641.5656529158827" fill="#0000ff " width="59.3" height="12.00948365932031"/>
<rect x="953.1" y="653.588120372825" fill="#808080 " width="59.3" height="0.7393290527712679"/>
<rect x="953.1" y="654.3542967177754" fill="#D92414" width="59.3" height="118.55825077519327"/>
<rect x="953.1" y="772.9207954785186" fill="#808080 " width="59.3" height="0.8047044250054398"/>
<rect x="953.1" y="773.739647811376" fill="#F4A500" width="59.3" height="176.69978912610884"/>
<rect x="953.1" y="950.4517725373652" fill="#808080 " width="59.3" height="7.013281294510477"/>
<rect x="953.1" y="957.4699748433025" fill="#D92414" width="59.3" height="485.06190701605493"/>
<rect x="953.1" y="1442.5659453121098" fill="#808080 " width="59.3" height="5.184464123197245"/>
<rect x="953.1" y="1447.7525259993618" fill="#F4A500" width="59.3" height="105.33521527242249"/>
<rect x="953.1" y="1553.092662283211" fill="#808080 " width="59.3" height="6.079611975957505"/>
<rect x="953.1" y="1559.1797285331982" fill="#F4A500" width="59.3" height="38.146853797509266"/>
<rect x="953.1" y="1597.3700975648158" fill="#808080 " width="59.3" height="1.7404307792487543"/>
<rect x="953.1" y="1599.1129756212526" fill="#D92414" width="59.3" height="29.70659163170012"/>
<rect x="953.1" y="1628.9205670439296" fill="#0000ff " width="59.3" height="24.575550908091373"/>
<rect x="953.1" y="1653.5004039942316" fill="#808080 " width="59.3" height="1.136627968593757"/>
<rect x="1138.9" y="609.0602269795367" fill="#808080 " width="59.3" height="0.0900723289349239"/>
<rect x="1138.9" y="613.9888434308386" fill="#F4A500" width="59.3" height="3.65659822402806"/>
<rect x="1138.9" y="618.7907899100547" fill="#808080 " width="59.3" height="6.781832897515294"/>
<rect x="1138.9" y="625.6752805130706" fill="#F4A500" width="59.3" height="3.204939864299348"/>
<rect x="1138.9" y="628.9198853769433" fill="#808080 " width="59.3" height="1.069566121087746"/>
<rect x="1138.9" y="630.0373048911439" fill="#0000ff " width="59.3" height="8.612952529329721"/>
<rect x="1138.9" y="638.7583784432071" fill="#808080 " width="59.3" height="1.7958318683373626"/>
<rect x="1138.9" y="640.6279519295697" fill="#F4A500" width="59.3" height="118.12775964128843"/>
<rect x="1138.9" y="758.7943431477743" fill="#808080 " width="59.3" height="9.72864747833151"/>
<rect x="1138.9" y="768.5910846222203" fill="#D92414" width="59.3" height="24.525054857347897"/>
<rect x="1138.9" y="793.2305400259646" fill="#808080 " width="59.3" height="2.8277405943771328"/>
<rect x="1138.9" y="796.0589454336437" fill="#F4A500" width="59.3" height="22.76750570350086"/>
<rect x="1138.9" y="818.8544983597103" fill="#808080 " width="59.3" height="7.856849171216169"/>
<rect x="1138.9" y="826.7250453178685" fill="#D92414" width="59.3" height="503.21640851035676"/>
<rect x="1138.9" y="1330.0283074076096" fill="#808080 " width="59.3" height="14.933358919196166"/>
<rect x="1138.9" y="1345.1298311806227" fill="#F4A500" width="59.3" height="130.88882464093592"/>
<rect x="1138.9" y="1476.137058412386" fill="#808080 " width="59.3" height="4.717989116196122"/>
<rect x="1138.9" y="1481.336036661311" fill="#D92414" width="59.3" height="24.798911861538045"/>
<rect x="1138.9" y="1506.2549308680568" fill="#808080 " width="59.3" height="0.41496198192896827"/>
<rect x="1138.9" y="1507.0309325490562" fill="#0000ff " width="59.3" height="100.23310505945369"/>
<rect x="1138.9" y="1607.5035547018515" fill="#808080 " width="59.3" height="6.165465396677405"/>
<rect x="1138.9" y="1613.699147331029" fill="#F4A500" width="59.3" height="41.715797216418764"/>
<rect x="1313.6000000000001" y="694.0439784963" fill="#F4A500" width="59.3" height="13.82511358426595"/>
<rect x="1313.6000000000001" y="707.8704082510112" fill="#808080 " width="59.3" height="1.7265721325969032"/>
<rect x="1313.6000000000001" y="709.5988822499015" fill="#D92414" width="59.3" height="87.67121235845788"/>
<rect x="1313.6000000000001" y="797.337666799017" fill="#808080 " width="59.3" height="0.812794477593684"/>
<rect x="1313.6000000000001" y="798.1738759488312" fill="#0000ff " width="59.3" height="19.262641448866447"/>
<rect x="1313.6000000000001" y="817.4474942592108" fill="#808080 " width="59.3" height="0.7340216764472274"/>
<rect x="1313.6000000000001" y="818.2792152678066" fill="#D92414" width="59.3" height="30.769695902453407"/>
<rect x="1313.6000000000001" y="849.0503457960453" fill="#808080 " width="59.3" height="6.594132385894653"/>
<rect x="1313.6000000000001" y="856.1179639187559" fill="#F4A500" width="59.3" height="234.6306846582831"/>
<rect x="1313.6000000000001" y="1091.0622130239083" fill="#808080 " width="59.3" height="7.827206410056135"/>
<rect x="1313.6000000000001" y="1098.9513584151164" fill="#D92414" width="59.3" height="87.82511216861747"/>
<rect x="1313.6000000000001" y="1186.812151964504" fill="#808080 " width="59.3" height="2.928624019364463"/>
<rect x="1313.6000000000001" y="1190.0214756547207" fill="#0000ff " width="59.3" height="171.7135848589894"/>
<rect x="1313.6000000000001" y="1361.8582803907916" fill="#808080 " width="59.3" height="1.9077166709726043"/>
<rect x="1313.6000000000001" y="1363.9694441083343" fill="#F4A500" width="59.3" height="115.28516586951935"/>
<rect x="1313.6000000000001" y="1479.4385842826866" fill="#808080 " width="59.3" height="3.2470977819946256"/>
<rect x="1313.6000000000001" y="1482.7972801567314" fill="#0000ff " width="59.3" height="4.432941029729363"/>
<rect x="1313.6000000000001" y="1487.4007179059345" fill="#808080 " width="59.3" height="5.014826564413511"/>
<rect x="1313.6000000000001" y="1492.51304637693" fill="#F4A500" width="59.3" height="46.94067271805352"/>
<rect x="1313.6000000000001" y="1539.4745277497227" fill="#808080 " width="59.3" height="2.566848249086661"/>
<rect x="1313.6000000000001" y="1542.1057827995462" fill="#D92414" width="59.3" height="113.30645496473164"/>
<rect x="1495.2" y="724.7073393861523" fill="#D92414" width="59.3" height="295.67861172922"/>
<rect x="1495.2" y="1192.6914400344822" fill="#808080 " width="59.3" height="0.0"/>
<rect x="1495.2" y="1193.0177592951482" fill="#D92414" width="59.3" height="87.44145616857088"/>
<rect x="1495.2" y="1280.4654299377514" fill="#808080 " width="59.3" height="9.40578457016602"/>
<rect x="1495.2" y="1289.8771782919148" fill="#F4A500" width="59.3" height="313.8066085172875"/>
<rect x="1495.2" y="1603.7030305679634" fill="#808080 " width="59.3" height="0.8504461533833592"/>
<rect x="1495.2" y="1604.5836914677047" fill="#D92414" width="59.3" height="46.884149355453246"/>
<rect x="1495.2" y="1651.9721763973002" fill="#808080 " width="59.3" height="2.652419321218872"/>
<rect x="1674.5" y="767.5974278536854" fill="#F4A500" width="59.3" height="18.748509564119374"/>
<rect x="1674.5" y="786.3926009010811" fill="#808080 " width="59.3" height="2.0925858798408363"/>
<rect x="1674.5" y="788.5358006814297" fill="#D92414" width="59.3" height="4.312228202263146"/>
<rect x="1674.5" y="792.8532654832786" fill="#808080 " width="59.3" height="6.37876232727243"/>
<rect x="1674.5" y="799.2539191591954" fill="#F4A500" width="59.3" height="67.78129166685204"/>
<rect x="1674.5" y="867.1474171121595" fill="#808080 " width="59.3" height="9.33273602820094"/>
<rect x="1674.5" y="876.5038097086647" fill="#D92414" width="59.3" height="12.019301918201094"/>
<rect x="1674.5" y="888.5562833197306" fill="#808080 " width="59.3" height="5.017325180826134"/>
<rect x="1674.5" y="893.6409493338266" fill="#0000ff " width="59.3" height="43.66899483126643"/>
<rect x="1674.5" y="937.342046226714" fill="#808080 " width="59.3" height="1.0116217946679171"/>
<rect x="1674.5" y="938.3713005315161" fill="#F4A500" width="59.3" height="20.562512283289237"/>
<rect x="1674.5" y="958.95569103914" fill="#808080 " width="59.3" height="2.0940098674474825"/>
<rect x="1674.5" y="961.066755947093" fill="#D92414" width="59.3" height="92.5687161197121"/>
<rect x="1674.5" y="1053.6587283436622" fill="#808080 " width="59.3" height="1.5991315201259795"/>
<rect x="1674.5" y="1055.2687661651812" fill="#F4A500" width="59.3" height="61.230010288062886"/>
<rect x="1674.5" y="1116.5349536130393" fill="#808080 " width="59.3" height="3.4447244528371925"/>
<rect x="1674.5" y="1120.0235395090235" fill="#D92414" width="59.3" height="53.04223247932134"/>
<rect x="1674.5" y="1173.0868561919401" fill="#808080 " width="59.3" height="1.9099873584446527"/>
<rect x="1674.5" y="1175.1353837639879" fill="#0000ff " width="59.3" height="22.674876497906496"/>
<rect x="1674.5" y="1197.8538723431564" fill="#808080 " width="59.3" height="4.289083482038791"/>
<rect x="1674.5" y="1202.1693160013056" fill="#F4A500" width="59.3" height="71.19803509132606"/>
<rect x="1674.5" y="1273.4048997427944" fill="#808080 " width="59.3" height="2.855895734250396"/>
<rect x="1674.5" y="1276.2842748671674" fill="#D92414" width="59.3" height="35.092921194592236"/>
<rect x="1674.5" y="1311.3830429417485" fill="#808080 " width="59.3" height="4.314511832157677"/>
<rect x="1674.5" y="1315.7089204261397" fill="#0000ff " width="59.3" height="41.41740793893996"/>
<rect x="1674.5" y="1357.1775000487514" fill="#808080 " width="59.3" height="5.493691689261027"/>
<rect x="1674.5" y="1362.6924924927184" fill="#F4A500" width="59.3" height="59.15163803566918"/>
<rect x="1674.5" y="1421.8743689380258" fill="#808080 " width="59.3" height="1.6056083669820964"/>
<rect x="1674.5" y="1423.4874712858689" fill="#D92414" width="59.3" height="14.47131014454908"/>
<rect x="1674.5" y="1437.9623446805122" fill="#808080 " width="59.3" height="3.839720240891438"/>
<rect x="1674.5" y="1441.8264236402788" fill="#F4A500" width="59.3" height="135.65568718699126"/>
<rect x="1674.5" y="1577.5279934141167" fill="#808080 " width="59.3" height="2.8289055912724734"/>
<rect x="1674.5" y="1580.359274505452" fill="#D92414" width="59.3" height="51.97691257135705"/>
<rect x="1674.5" y="1632.4100441298642" fill="#808080 " width="59.3" height="2.5158645553822225"/>
<rect x="1674.5" y="1634.9381996013171" fill="#0000ff " width="59.3" height="5.4067628237060035"/>
<rect x="1674.5" y="1640.4061807677997" fill="#808080 " width="59.3" height="2.122640549142716"/>
<rect x="1674.5" y="1642.5335263819838" fill="#F4A500" width="59.3" height="12.807344534313415"/>
<rect x="1852.2" y="767.9077501681475" fill="#808080 " width="59.3" height="5.700166174201547"/>
<rect x="1852.2" y="775.2848155743831" fill="#D92414" width="59.3" height="125.1446025864411"/>
<rect x="1852.2" y="900.4692745333863" fill="#808080 " width="59.3" height="2.8638878852336234"/>
<rect x="1852.2" y="903.337108528895" fill="#F4A500" width="59.3" height="159.34369574872963"/>
<rect x="1852.2" y="1062.7863413170369" fill="#808080 " width="59.3" height="1.5642143968814253"/>
<rect x="1852.2" y="1064.5532632484199" fill="#0000ff " width="59.3" height="3.3133689502808465"/>
<rect x="1852.2" y="1067.954948650034" fill="#808080 " width="59.3" height="4.600525561299605"/>
<rect x="1852.2" y="1072.619619913753" fill="#D92414" width="59.3" height="167.0771495918019"/>
<rect x="1852.2" y="1240.0856491208174" fill="#808080 " width="59.3" height="3.0868266462042016"/>
<rect x="1852.2" y="1243.287598099339" fill="#F4A500" width="59.3" height="98.4228416056601"/>
<rect x="1852.2" y="1341.7673322063952" fill="#808080 " width="59.3" height="1.4914715760829722"/>
<rect x="1852.2" y="1343.4583425706653" fill="#D92414" width="59.3" height="95.39446218877322"/>
<rect x="1852.2" y="1438.9132546891292" fill="#808080 " width="59.3" height="2.5984576196307216"/>
<rect x="1852.2" y="1441.5378989337078" fill="#0000ff " width="59.3" height="102.2305745079741"/>
<rect x="1852.2" y="1543.7905229092794" fill="#808080 " width="59.3" height="1.1132971848559237"/>
<rect x="1852.2" y="1544.9399214034972" fill="#F4A500" width="59.3" height="110.6246230218992"/>
<rect x="2036.3" y="771.0765166477472" fill="#D92414" width="59.3" height="64.89593383941258"/>
<rect x="2036.3" y="836.1260692312201" fill="#808080 " width="59.3" height="3.22351718516947"/>
<rect x="2036.3" y="839.3854352043354" fill="#0000ff " width="59.3" height="14.679522458012258"/>
<rect x="2036.3" y="854.1014818430475" fill="#808080 " width="59.3" height="1.8505033096468253"/>
<rect x="2036.3" y="855.9906215911251" fill="#F4A500" width="59.3" height="110.1127503588948"/>
<rect x="2036.3" y="966.1392406024585" fill="#808080 " width="59.3" height="3.7514756739155644"/>
<rect x="2036.3" y="969.8936827072938" fill="#D92414" width="59.3" height="607.8708733268214"/>
<rect x="2036.3" y="1578.0253900671335" fill="#808080 " width="59.3" height="2.7590522368025177"/>
<rect x="2036.3" y="1580.799082435105" fill="#F4A500" width="59.3" height="61.86248012103226"/>
<rect x="2036.3" y="1642.7841198550086" fill="#808080 " width="59.3" height="10.452451098282836"/>
<rect x="2036.3" y="1653.428303037473" fill="#F4A500" width="59.3" height="2.0358853776407386"/>
<rect x="70.00000000000001" y="2197.2602789802386" fill="#F4A500" width="59.3" height="179.61495944364896"/>
<rect x="70.00000000000001" y="2376.8782317847035" fill="#808080 " width="59.3" height="3.0444142477948617"/>
<rect x="70.00000000000001" y="2380.1226291426656" fill="#D92414" width="59.3" height="30.42031532585287"/>
<rect x="70.00000000000001" y="2410.5484855119844" fill="#808080 " width="59.3" height="2.3311229729704337"/>
<rect x="70.00000000000001" y="2412.8915287129157" fill="#F4A500" width="59.3" height="101.682597735321"/>
<rect x="70.00000000000001" y="2514.8115664800825" fill="#808080 " width="59.3" height="4.595134796443915"/>
<rect x="70.00000000000001" y="2519.4572558147543" fill="#D92414" width="59.3" height="60.602698378303444"/>
<rect x="70.00000000000001" y="2580.117027605951" fill="#808080 " width="59.3" height="4.249574571920618"/>
<rect x="70.00000000000001" y="2584.3939149323405" fill="#0000ff " width="59.3" height="71.84649331398964"/>
<rect x="70.00000000000001" y="2656.2459359859704" fill="#808080 " width="59.3" height="3.7788852133714954"/>
<rect x="70.00000000000001" y="2660.1071785332624" fill="#D92414" width="59.3" height="39.50767317388318"/>
<rect x="70.00000000000001" y="2699.6239049606356" fill="#808080 " width="59.3" height="0.8193826340599344"/>
<rect x="70.00000000000001" y="2700.457130225492" fill="#F4A500" width="59.3" height="65.84835034730168"/>
<rect x="70.00000000000001" y="2766.4329112686914" fill="#808080 " width="59.3" height="2.2770362689799413"/>
<rect x="70.00000000000001" y="2768.7327436432643" fill="#D92414" width="59.3" height="65.63719867533416"/>
<rect x="242.3" y="2257.2363187900014" fill="#F4A500" width="59.3" height="72.08257050938457"/>
<rect x="242.3" y="2329.473066764888" fill="#808080 " width="59.3" height="7.179984758202039"/>
<rect x="242.3" y="2336.7325592471097" fill="#0000ff " width="59.3" height="26.9950188272814"/>
<rect x="242.3" y="2363.8502289064304" fill="#808080 " width="59.3" height="2.610251073269609"/>
<rect x="242.3" y="2366.6526170005013" fill="#D92414" width="59.3" height="95.97979190222887"/>
<rect x="242.3" y="2462.740060659785" fill="#808080 " width="59.3" height="4.76928052789043"/>
<rect x="242.3" y="2467.5906365728256" fill="#F4A500" width="59.3" height="158.12634912827752"/>
<rect x="242.3" y="2625.745674671731" fill="#808080 " width="59.3" height="3.511876904176745"/>
<rect x="242.3" y="2629.2630408253262" fill="#D92414" width="59.3" height="14.357590398617447"/>
<rect x="242.3" y="2643.662790786062" fill="#808080 " width="59.3" height="3.850921125512059"/>
<rect x="242.3" y="2647.533861311376" fill="#F4A500" width="59.3" height="186.59830168252233"/>
<rect x="242.3" y="2834.4154507955973" fill="#808080 " width="59.3" height="0.05854756340829681"/>
<rect x="418.2" y="2287.265752280043" fill="#808080 " width="59.3" height="17.218544437590396"/>
<rect x="418.2" y="2305.20313277713" fill="#D92414" width="59.3" height="8.686657762336836"/>
<rect x="418.2" y="2314.039900207343" fill="#808080 " width="59.3" height="6.64230293098916"/>
<rect x="418.2" y="2320.8014516841827" fill="#F4A500" width="59.3" height="100.83973029450337"/>
<rect x="418.2" y="2421.6667100647574" fill="#808080 " width="59.3" height="1.6730505151047055"/>
<rect x="418.2" y="2423.346822530216" fill="#D92414" width="59.3" height="140.44979754883258"/>
<rect x="418.2" y="2563.8351549211384" fill="#808080 " width="59.3" height="2.338117336786013"/>
<rect x="418.2" y="2566.188240666819" fill="#F4A500" width="59.3" height="45.95298870808273"/>
<rect x="418.2" y="2612.1422401248583" fill="#808080 " width="59.3" height="6.483409048030865"/>
<rect x="418.2" y="2618.76868359107" fill="#D92414" width="59.3" height="3.35541721895288"/>
<rect x="418.2" y="2622.207939859043" fill="#808080 " width="59.3" height="3.6114228937806274"/>
<rect x="418.2" y="2625.868590265506" fill="#F4A500" width="59.3" height="54.42544727569879"/>
<rect x="418.2" y="2680.357661591096" fill="#808080 " width="59.3" height="1.7207353041690112"/>
<rect x="418.2" y="2682.0970292727516" fill="#0000ff " width="59.3" height="4.961452352075753"/>
<rect x="418.2" y="2687.3030498659373" fill="#808080 " width="59.3" height="0.7891762768616672"/>
<rect x="418.2" y="2688.0924189832513" fill="#F4A500" width="59.3" height="11.658016596517086"/>
<rect x="418.2" y="2699.7647722699403" fill="#808080 " width="59.3" height="29.72488613243445"/>
<rect x="418.2" y="2729.517866305765" fill="#F4A500" width="59.3" height="55.014395316119476"/>
<rect x="418.2" y="2784.5361250805995" fill="#808080 " width="59.3" height="5.160191062265085"/>
<rect x="418.2" y="2789.714755679899" fill="#F4A500" width="59.3" height="22.60765706565269"/>
<rect x="418.2" y="2812.481060590692" fill="#808080 " width="59.3" height="2.194125366014646"/>
<rect x="418.2" y="2814.675312300451" fill="#D92414" width="59.3" height="19.275779681212157"/>
<rect x="597.4000000000001" y="2233.157377509515" fill="#808080 " width="59.3" height="1.0160131542830957"/>
<rect x="597.4000000000001" y="2234.5988443374968" fill="#F4A500" width="59.3" height="20.672597329771904"/>
<rect x="597.4000000000001" y="2255.4531794757936" fill="#808080 " width="59.3" height="3.407939166188637"/>
<rect x="597.4000000000001" y="2258.8661089096217" fill="#D92414" width="59.3" height="574.6074162540182"/>
<rect x="781.9000000000001" y="2291.0953781756334" fill="#F4A500" width="59.3" height="0.46528999309195695"/>
<rect x="781.9000000000001" y="2292.0319913994927" fill="#808080 " width="59.3" height="5.039637169483274"/>
<rect x="781.9000000000001" y="2297.0779366541447" fill="#F4A500" width="59.3" height="36.991020350831036"/>
<rect x="781.9000000000001" y="2334.126078358563" fill="#808080 " width="59.3" height="2.6772358110780203"/>
<rect x="781.9000000000001" y="2336.878434682292" fill="#D92414" width="59.3" height="17.611503432283747"/>
<rect x="781.9000000000001" y="2354.5043240346317" fill="#808080 " width="59.3" height="2.0545118326561322"/>
<rect x="781.9000000000001" y="2356.562623399828" fill="#F4A500" width="59.3" height="17.04293111379353"/>
<rect x="781.9000000000001" y="2373.6264027015877" fill="#808080 " width="59.3" height="1.2858304276816312"/>
<rect x="781.9000000000001" y="2374.913520219973" fill="#F4A500" width="59.3" height="8.983893113891824"/>
<rect x="781.9000000000001" y="2383.899357377116" fill="#808080 " width="59.3" height="5.30797547047419"/>
<rect x="781.9000000000001" y="2389.351842297101" fill="#D92414" width="59.3" height="88.1918103284664"/>
<rect x="781.9000000000001" y="2477.5642058552467" fill="#808080 " width="59.3" height="13.765052974184073"/>
<rect x="781.9000000000001" y="2491.3495103972264" fill="#F4A500" width="59.3" height="11.900279762808708"/>
<rect x="781.9000000000001" y="2503.2500046751525" fill="#808080 " width="59.3" height="2.401000672330298"/>
<rect x="781.9000000000001" y="2505.6512198626" fill="#D92414" width="59.3" height="315.9403183241966"/>
<rect x="781.9000000000001" y="2822.0550182085863" fill="#808080 " width="59.3" height="11.643605721322729"/>
<rect x="956.4000000000001" y="2314.366096597052" fill="#808080 " width="59.3" height="1.9907615967714438"/>
<rect x="956.4000000000001" y="2316.530559866813" fill="#F4A500" width="59.3" height="18.44045552553287"/>
<rect x="956.4000000000001" y="2335.065254523315" fill="#808080 " width="59.3" height="3.593294014409935"/>
<rect x="956.4000000000001" y="2338.715592578263" fill="#D92414" width="59.3" height="4.829588608194797"/>
<rect x="956.4000000000001" y="2343.5938958760435" fill="#808080 " width="59.3" height="3.071828590833526"/>
<rect x="956.4000000000001" y="2346.822573887338" fill="#D92414" width="59.3" height="14.025272149704868"/>
<rect x="956.4000000000001" y="2360.887931038502" fill="#808080 " width="59.3" height="2.5428280412752216"/>
<rect x="956.4000000000001" y="2363.5304042798743" fill="#F4A500" width="59.3" height="40.80372833837586"/>
<rect x="956.4000000000001" y="2404.354128399864" fill="#808080 " width="59.3" height="7.8861066773255"/>
<rect x="956.4000000000001" y="2412.2483041359246" fill="#F4A500" width="59.3" height="205.21609267785664"/>
<rect x="956.4000000000001" y="2617.5277078900117" fill="#808080 " width="59.3" height="2.186341164329974"/>
<rect x="956.4000000000001" y="2619.720262696759" fill="#D92414" width="59.3" height="214.8654855765409"/>
<rect x="1140.2" y="2438.989787678235" fill="#808080 " width="59.3" height="7.048769910350058"/>
<rect x="1140.2" y="2446.208733879289" fill="#F4A500" width="59.3" height="78.38067662350966"/>
<rect x="1140.2" y="2524.7098222541726" fill="#808080 " width="59.3" height="2.528855336476866"/>
<rect x="1140.2" y="2527.279245411679" fill="#D92414" width="59.3" height="251.49229473809822"/>
<rect x="1140.2" y="2778.7724551122415" fill="#808080 " width="59.3" height="1.7142965472617107"/>
<rect x="1140.2" y="2780.510076474679" fill="#F4A500" width="59.3" height="13.22996702987433"/>
<rect x="1140.2" y="2793.803949596089" fill="#808080 " width="59.3" height="1.059230516445723"/>
<rect x="1140.2" y="2794.9943964941863" fill="#F4A500" width="59.3" height="23.56212010952396"/>
<rect x="1140.2" y="2818.6216471303082" fill="#808080 " width="59.3" height="3.8811025821296994"/>
<rect x="1140.2" y="2822.571270982286" fill="#D92414" width="59.3" height="12.14950400212365"/>
<rect x="1315.1000000000001" y="2416.5569411898546" fill="#D92414" width="59.3" height="10.159057047050146"/>
<rect x="1315.1000000000001" y="2426.73969970577" fill="#808080 " width="59.3" height="2.8265895878368017"/>
<rect x="1315.1000000000001" y="2429.630807004845" fill="#F4A500" width="59.3" height="43.88332942274811"/>
<rect x="1315.1000000000001" y="2473.5895677147923" fill="#808080 " width="59.3" height="7.310740005001158"/>
<rect x="1315.1000000000001" y="2480.915514943788" fill="#0000ff " width="59.3" height="1.9726853503152313"/>
<rect x="1315.1000000000001" y="2482.994032736263" fill="#808080 " width="59.3" height="1.699294290630192"/>
<rect x="1315.1000000000001" y="2484.695075060071" fill="#D92414" width="59.3" height="313.673839552613"/>
<rect x="1315.1000000000001" y="2798.653199308788" fill="#808080 " width="59.3" height="2.7312985168547357"/>
<rect x="1315.1000000000001" y="2801.39765792333" fill="#F4A500" width="59.3" height="4.669375468857709"/>
<rect x="1315.1000000000001" y="2806.1332791970617" fill="#808080 " width="59.3" height="3.1878076833003774"/>
<rect x="1315.1000000000001" y="2809.3613979876723" fill="#F4A500" width="59.3" height="9.094199102204925"/>
<rect x="1315.1000000000001" y="2818.468511266547" fill="#808080 " width="59.3" height="8.562345053241927"/>
<rect x="1315.1000000000001" y="2827.2043635673294" fill="#D92414" width="59.3" height="7.044201501233147"/>
<rect x="1493.7" y="2613.361169246266" fill="#808080 " width="59.3" height="4.328155182968928"/>
<rect x="1493.7" y="2617.7088256893144" fill="#F4A500" width="59.3" height="24.914610555456235"/>
<rect x="1493.7" y="2642.631106111908" fill="#808080 " width="59.3" height="1.0811953797114882"/>
<rect x="1493.7" y="2643.7447856347912" fill="#D92414" width="59.3" height="73.78751573008833"/>
<rect x="1493.7" y="2717.5659369982004" fill="#808080 " width="59.3" height="5.530964083757112"/>
<rect x="1493.7" y="2723.1829934887664" fill="#F4A500" width="59.3" height="27.387398615766756"/>
<rect x="1493.7" y="2750.576937416963" fill="#808080 " width="59.3" height="1.5727739318774354"/>
<rect x="1493.7" y="2752.2375141562225" fill="#D92414" width="59.3" height="13.791464861911692"/>
<rect x="1493.7" y="2766.073510037784" fill="#808080 " width="59.3" height="2.290744874884922"/>
<rect x="1493.7" y="2768.4806564256996" fill="#F4A500" width="59.3" height="66.21532323932973"/>
<rect x="1677.6000000000001" y="2606.0738809621744" fill="#808080 " width="59.3" height="0.2233667798690675"/>
<rect x="1677.6000000000001" y="2606.818255279657" fill="#D92414" width="59.3" height="227.2144302204993"/>
<rect x="128.6" y="8.347256480857475" fill="#808080 " width="59.3" height="6.606095037572644"/>
<rect x="128.6" y="14.996544315530512" fill="#D92414" width="59.3" height="68.00974406398771"/>
<rect x="128.6" y="83.18122352240799" fill="#808080 " width="59.3" height="10.103895141348517"/>
<rect x="128.6" y="93.29826170021859" fill="#F4A500" width="59.3" height="25.74428111655537"/>
<rect x="128.6" y="119.08944619841087" fill="#808080 " width="59.3" height="2.702586656744984"/>
<rect x="128.6" y="121.80496347890744" fill="#D92414" width="59.3" height="274.8255986912867"/>
<rect x="128.6" y="396.6627891611151" fill="#808080 " width="59.3" height="4.823162486724527"/>
<rect x="128.6" y="401.6438074812259" fill="#D92414" width="59.3" height="6.499649718024159"/>
<rect x="128.6" y="408.145514947383" fill="#808080 " width="59.3" height="4.722173518677039"/>
<rect x="128.6" y="413.0758197328624" fill="#F4A500" width="59.3" height="561.7384895703028"/>
<rect x="128.6" y="974.8209472003682" fill="#808080 " width="59.3" height="2.583356747183416"/>
<rect x="128.6" y="977.4937429744658" fill="#F4A500" width="59.3" height="106.86391198399463"/>
<rect x="128.6" y="1084.468448100677" fill="#808080 " width="59.3" height="10.527499189259743"/>
<rect x="128.6" y="1095.0109157481297" fill="#D92414" width="59.3" height="69.91067187551766"/>
<rect x="128.6" y="1164.9439307856328" fill="#808080 " width="59.3" height="8.234782771113032"/>
<rect x="128.6" y="1173.2200942079098" fill="#F4A500" width="59.3" height="314.3250233226097"/>
<rect x="128.6" y="1487.5863388721507" fill="#808080 " width="59.3" height="5.182173156952786"/>
<rect x="128.6" y="1492.855183052884" fill="#D92414" width="59.3" height="24.62903473167262"/>
<rect x="128.6" y="1517.640307937287" fill="#808080 " width="59.3" height="5.8105430577843435"/>
<rect x="128.6" y="1523.5257331134192" fill="#F4A500" width="59.3" height="24.109167898522628"/>
<rect x="128.6" y="1547.7467163903275" fill="#808080 " width="59.3" height="2.274800733595839"/>
<rect x="128.6" y="1550.0278032125746" fill="#0000ff " width="59.3" height="49.105630154076835"/>
<rect x="128.6" y="1599.1792282194556" fill="#808080 " width="59.3" height="1.837781495436957"/>
<rect x="128.6" y="1601.1422336456285" fill="#D92414" width="59.3" height="18.054629015347473"/>
<rect x="128.6" y="1619.2914460582226" fill="#808080 " width="59.3" height="4.5800760532508775"/>
<rect x="128.6" y="1623.9535266935202" fill="#F4A500" width="59.3" height="31.781528277516372"/>
<rect x="301.4" y="43.84389601859706" fill="#D92414" width="59.3" height="374.0732693122527"/>
<rect x="301.4" y="417.9232516261463" fill="#808080 " width="59.3" height="6.819037514541606"/>
<rect x="301.4" y="424.86492334994637" fill="#0000ff " width="59.3" height="64.56197517581592"/>
<rect x="301.4" y="489.52173997915696" fill="#808080 " width="59.3" height="1.6869446994833197"/>
<rect x="301.4" y="491.20891009698454" fill="#D92414" width="59.3" height="283.8259876336113"/>
<rect x="301.4" y="775.2354935372306" fill="#808080 " width="59.3" height="15.721928393293979"/>
<rect x="301.4" y="791.1114489592044" fill="#F4A500" width="59.3" height="44.600557571338754"/>
<rect x="301.4" y="835.7162961090365" fill="#808080 " width="59.3" height="4.170411748553306"/>
<rect x="301.4" y="839.9571113104803" fill="#D92414" width="59.3" height="117.55888208642716"/>
<rect x="301.4" y="957.5773602261714" fill="#F4A500" width="59.3" height="24.739066592906056"/>
<rect x="301.4" y="982.3606021846118" fill="#808080 " width="59.3" height="7.678272573506888"/>
<rect x="301.4" y="990.1141578551685" fill="#F4A500" width="59.3" height="175.1894420731095"/>
<rect x="301.4" y="1165.3472581576104" fill="#808080 " width="59.3" height="3.5645535385488074"/>
<rect x="301.4" y="1168.9540908956208" fill="#D92414" width="59.3" height="9.796601684495272"/>
<rect x="301.4" y="1178.7779350500218" fill="#808080 " width="59.3" height="2.085597041403389"/>
<rect x="301.4" y="1180.9430384674552" fill="#F4A500" width="59.3" height="298.86726533624756"/>
<rect x="301.4" y="1479.8785525224196" fill="#808080 " width="59.3" height="5.619029588534431"/>
<rect x="301.4" y="1485.5323429456375" fill="#D92414" width="59.3" height="167.57811874786375"/>
<rect x="477.6" y="341.8441190919634" fill="#D92414" width="59.3" height="72.65734301866713"/>
<rect x="477.6" y="414.5704627642434" fill="#808080 " width="59.3" height="0.5039842794576401"/>
<rect x="477.6" y="415.219459290041" fill="#F4A500" width="59.3" height="290.58532797420975"/>
<rect x="477.6" y="705.8164256887464" fill="#808080 " width="59.3" height="0.8948043001997235"/>
<rect x="477.6" y="706.7536076635358" fill="#D92414" width="59.3" height="481.7367106867642"/>
<rect x="477.6" y="1188.5164500324533" fill="#808080 " width="59.3" height="10.505122121771706"/>
<rect x="477.6" y="1199.0986393713074" fill="#F4A500" width="59.3" height="286.8761295556267"/>
<rect x="477.6" y="1485.9886248264906" fill="#808080 " width="59.3" height="4.319940180008871"/>
<rect x="477.6" y="1490.7303832040643" fill="#F4A500" width="59.3" height="91.56458437208357"/>
<rect x="477.6" y="1582.3273201389356" fill="#808080 " width="59.3" height="2.4395478850551626"/>
<rect x="477.6" y="1584.7931324890824" fill="#D92414" width="59.3" height="5.359052976978319"/>
<rect x="477.6" y="1590.283295338816" fill="#808080 " width="59.3" height="2.966901961560552"/>
<rect x="477.6" y="1593.2601095466812" fill="#F4A500" width="59.3" height="59.390674387744866"/>
<rect x="477.6" y="1652.7800879592278" fill="#808080 " width="59.3" height="1.8052172347345277"/>
<rect x="655.6" y="518.3376541113838" fill="#808080 " width="59.3" height="10.67432352389543"/>
<rect x="655.6" y="529.5730784510413" fill="#F4A500" width="59.3" height="55.41220938526115"/>
<rect x="655.6" y="585.0850025756159" fill="#808080 " width="59.3" height="0.8114176765786851"/>
<rect x="655.6" y="585.9218966893526" fill="#D92414" width="59.3" height="27.51667764784922"/>
<rect x="655.6" y="613.5366934501637" fill="#808080 " width="59.3" height="3.633961615904397"/>
<rect x="655.6" y="617.1789249354798" fill="#F4A500" width="59.3" height="24.86467520559154"/>
<rect x="655.6" y="642.1043887420022" fill="#808080 " width="59.3" height="3.356751306468283"/>
<rect x="655.6" y="645.537706298027" fill="#D92414" width="59.3" height="25.105209924260336"/>
<rect x="655.6" y="670.6729354314837" fill="#808080 " width="59.3" height="0.4134994244125494"/>
<rect x="655.6" y="671.0952882006154" fill="#0000ff " width="59.3" height="31.47846903304429"/>
<rect x="655.6" y="702.619673168075" fill="#808080 " width="59.3" height="1.835339441739734"/>
<rect x="655.6" y="704.4669024076657" fill="#F4A500" width="59.3" height="263.2246504184924"/>
<rect x="655.6" y="967.6940474807898" fill="#808080 " width="59.3" height="7.569425166298686"/>
<rect x="655.6" y="975.2702123822748" fill="#D92414" width="59.3" height="13.872619607525792"/>
<rect x="655.6" y="989.1940111096442" fill="#808080 " width="59.3" height="8.57749188304848"/>
<rect x="655.6" y="997.7943121141584" fill="#F4A500" width="59.3" height="451.8382532211835"/>
<rect x="655.6" y="1449.7340959927046" fill="#0000ff " width="59.3" height="32.408999026001425"/>
<rect x="655.6" y="1482.1574199328923" fill="#808080 " width="59.3" height="2.5883976798928643"/>
<rect x="655.6" y="1484.782677772272" fill="#D92414" width="59.3" height="14.78080487773127"/>
<rect x="655.6" y="1499.6232352845718" fill="#808080 " width="59.3" height="4.019686424906467"/>
<rect x="655.6" y="1503.6442434596647" fill="#0000ff " width="59.3" height="65.76738382352505"/>
<rect x="655.6" y="1569.4562988672037" fill="#808080 " width="59.3" height="0.6555404619878118"/>
<rect x="655.6" y="1570.1603094565353" fill="#F4A500" width="59.3" height="84.16369939901324"/>
<rect x="835.4" y="461.25194070914745" fill="#808080 " width="59.3" height="8.439118663069106"/>
<rect x="835.4" y="470.0895047366375" fill="#D92414" width="59.3" height="8.578026584932637"/>
<rect x="835.4" y="478.74803027229433" fill="#808080 " width="59.3" height="2.898536935469121"/>
<rect x="835.4" y="481.6736313962681" fill="#F4A500" width="59.3" height="11.73398048345949"/>
<rect x="835.4" y="493.45000825800986" fill="#808080 " width="59.3" height="5.877533186531636"/>
<rect x="835.4" y="499.33166349814826" fill="#D92414" width="59.3" height="217.5651799925556"/>
<rect x="835.4" y="716.9343977771692" fill="#808080 " width="59.3" height="3.773125732456208"/>
<rect x="835.4" y="720.7185883169833" fill="#F4A500" width="59.3" height="288.05081035065814"/>
<rect x="835.4" y="1008.7776295631446" fill="#808080 " width="59.3" height="1.9769342674575228"/>
<rect x="835.4" y="1010.756169053401" fill="#0000ff " width="59.3" height="69.15600383571848"/>
<rect x="835.4" y="1079.922847951024" fill="#808080 " width="59.3" height="4.931118926617955"/>
<rect x="835.4" y="1084.8584060122953" fill="#F4A500" width="59.3" height="10.253264842335625"/>
<rect x="835.4" y="1095.1638703219396" fill="#808080 " width="59.3" height="11.009258722011623"/>
<rect x="835.4" y="1106.3738413464955" fill="#F4A500" width="59.3" height="44.82148018580631"/>
<rect x="835.4" y="1151.2516628707826" fill="#808080 " width="59.3" height="6.17294042249398"/>
<rect x="835.4" y="1158.102648082312" fill="#D92414" width="59.3" height="27.533626994207225"/>
<rect x="835.4" y="1185.678744119208" fill="#808080 " width="59.3" height="10.835068927850557"/>
<rect x="835.4" y="1196.6075963724675" fill="#F4A500" width="59.3" height="152.6633798956484"/>
<rect x="835.4" y="1349.3903110412025" fill="#808080 " width="59.3" height="0.7576387376055891"/>
<rect x="835.4" y="1350.2010146131397" fill="#0000ff " width="59.3" height="163.13676504292664"/>
<rect x="835.4" y="1513.3794758137042" fill="#808080 " width="59.3" height="1.9743249546777406"/>
<rect x="835.4" y="1515.64900982869" fill="#F4A500" width="59.3" height="84.13893544635198"/>
<rect x="835.4" y="1599.8727314257515" fill="#808080 " width="59.3" height="2.81260136596552"/>
<rect x="835.4" y="1602.7351013043342" fill="#0000ff " width="59.3" height="5.793011270027819"/>
<rect x="835.4" y="1608.5557514722636" fill="#808080 " width="59.3" height="1.4657005323929297"/>
<rect x="835.4" y="1610.0585504871174" fill="#F4A500" width="59.3" height="44.26252575321723"/>
<rect x="1012.4" y="525.564608374317" fill="#808080 " width="59.3" height="1.847409863679626"/>
<rect x="1012.4" y="527.5804173655848" fill="#D92414" width="59.3" height="41.27947442641039"/>
<rect x="1012.4" y="568.9267487590676" fill="#808080 " width="59.3" height="1.9185198016490332"/>
<rect x="1012.4" y="570.9183297061737" fill="#F4A500" width="59.3" height="68.67229114780406"/>
<rect x="1012.4" y="639.6439053540505" fill="#808080 " width="59.3" height="3.7367938382655694"/>
<rect x="1012.4" y="643.3961236528634" fill="#D92414" width="59.3" height="125.5410601615812"/>
<rect x="1012.4" y="769.176878079357" fill="#808080 " width="59.3" height="0.8832620227416896"/>
<rect x="1012.4" y="770.0725484588684" fill="#F4A500" width="59.3" height="27.27280092523938"/>
<rect x="1012.4" y="797.3942155567166" fill="#808080 " width="59.3" height="6.75753421409695"/>
<rect x="1012.4" y="804.2899217179981" fill="#D92414" width="59.3" height="326.46679011381264"/>
<rect x="1012.4" y="1130.880464686374" fill="#808080 " width="59.3" height="1.0168569001583592"/>
<rect x="1012.4" y="1131.9684976671283" fill="#F4A500" width="59.3" height="255.68173811251825"/>
<rect x="1012.4" y="1387.674364609868" fill="#808080 " width="59.3" height="1.3236859311750777"/>
<rect x="1012.4" y="1389.0619840040154" fill="#D92414" width="59.3" height="182.5691799916135"/>
<rect x="1012.4" y="1571.7079489709693" fill="#808080 " width="59.3" height="3.836212820464425"/>
<rect x="1012.4" y="1575.6638931742932" fill="#F4A500" width="59.3" height="31.88511809892225"/>
<rect x="1012.4" y="1607.5660892994304" fill="#808080 " width="59.3" height="1.5717141670522778"/>
<rect x="1012.4" y="1609.1616412691467" fill="#0000ff " width="59.3" height="5.734228407834962"/>
<rect x="1012.4" y="1615.0969697192124" fill="#808080 " width="59.3" height="0.8162463133651272"/>
<rect x="1012.4" y="1615.9566452812714" fill="#F4A500" width="59.3" height="31.27246540481451"/>
<rect x="1012.4" y="1647.3517325017322" fill="#808080 " width="59.3" height="1.2084324041438776"/>
<rect x="1012.4" y="1648.5737902869769" fill="#D92414" width="59.3" height="6.063241675848531"/>
<rect x="1198.2" y="609.0602269795367" fill="#808080 " width="59.3" height="10.06533921301073"/>
<rect x="1198.2" y="619.2135782584776" fill="#0000ff " width="59.3" height="5.8956170192280695"/>
<rect x="1198.2" y="625.57262280757" fill="#808080 " width="59.3" height="0.49942618281265894"/>
<rect x="1198.2" y="626.3730185291301" fill="#D92414" width="59.3" height="75.25285714195047"/>
<rect x="1198.2" y="701.6581816481643" fill="#808080 " width="59.3" height="1.9293211134996113"/>
<rect x="1198.2" y="703.6397663024227" fill="#F4A500" width="59.3" height="150.80151670936183"/>
<rect x="1198.2" y="854.4493002652662" fill="#808080 " width="59.3" height="6.912695801019765"/>
<rect x="1198.2" y="861.3861268144499" fill="#D92414" width="59.3" height="290.1768806176284"/>
<rect x="1198.2" y="1151.5994010236218" fill="#808080 " width="59.3" height="7.388234781135452"/>
<rect x="1198.2" y="1159.042341382496" fill="#F4A500" width="59.3" height="20.226832809321763"/>
<rect x="1198.2" y="1179.3173632827366" fill="#808080 " width="59.3" height="19.52827858683213"/>
<rect x="1198.2" y="1198.8540540616455" fill="#D92414" width="59.3" height="12.188733152169334"/>
<rect x="1198.2" y="1211.2307450735589" fill="#808080 " width="59.3" height="5.324502899085019"/>
<rect x="1198.2" y="1216.6876050605001" fill="#0000ff " width="59.3" height="31.82120970502308"/>
<rect x="1198.2" y="1248.5595841219301" fill="#808080 " width="59.3" height="3.738712540270626"/>
<rect x="1198.2" y="1252.357379476036" fill="#F4A500" width="59.3" height="7.005651181699363"/>
<rect x="1198.2" y="1259.4340932756234" fill="#808080 " width="59.3" height="4.720299506977767"/>
<rect x="1198.2" y="1264.1922805584963" fill="#0000ff " width="59.3" height="39.14199555641608"/>
<rect x="1198.2" y="1303.350448850384" fill="#808080 " width="59.3" height="4.090787133231061"/>
<rect x="1198.2" y="1307.5065851564932" fill="#F4A500" width="59.3" height="185.93037006035422"/>
<rect x="1198.2" y="1493.4395683938856" fill="#808080 " width="59.3" height="3.592058675269868"/>
<rect x="1198.2" y="1497.0331080888873" fill="#D92414" width="59.3" height="158.38183645856066"/>
<rect x="1372.9" y="694.0439784963" fill="#D92414" width="59.3" height="39.80340943623427"/>
<rect x="1372.9" y="734.1179596718106" fill="#808080 " width="59.3" height="12.047849146971373"/>
<rect x="1372.9" y="746.1702903791479" fill="#F4A500" width="59.3" height="38.22295196561352"/>
<rect x="1372.9" y="784.4312796706283" fill="#808080 " width="59.3" height="0.21398957183616574"/>
<rect x="1372.9" y="784.7573082516138" fill="#D92414" width="59.3" height="8.291623732504434"/>
<rect x="1372.9" y="793.0960640477616" fill="#808080 " width="59.3" height="3.127622409829641"/>
<rect x="1372.9" y="796.2305700290198" fill="#F4A500" width="59.3" height="89.36018150143484"/>
<rect x="1372.9" y="885.6421743097494" fill="#808080 " width="59.3" height="5.751901756293648"/>
<rect x="1372.9" y="891.396754472899" fill="#D92414" width="59.3" height="686.7864052984279"/>
<rect x="1372.9" y="1578.1985392229792" fill="#808080 " width="59.3" height="3.106794012534124"/>
<rect x="1372.9" y="1581.3301167249967" fill="#F4A500" width="59.3" height="50.36982977688331"/>
<rect x="1372.9" y="1631.7608193849715" fill="#808080 " width="59.3" height="1.596850373515963"/>
<rect x="1372.9" y="1633.4162393432998" fill="#0000ff " width="59.3" height="21.995998420977912"/>
<rect x="1554.5" y="724.7073393861523" fill="#808080 " width="59.3" height="1.4813472098132083"/>
<rect x="1554.5" y="726.2602256155081" fill="#F4A500" width="59.3" height="141.1317146369739"/>
<rect x="1554.5" y="867.3958721277722" fill="#808080 " width="59.3" height="3.5063091640341213"/>
<rect x="1554.5" y="871.2917668008506" fill="#F4A500" width="59.3" height="149.09418431452173"/>
<rect x="1554.5" y="1192.6914400344822" fill="#808080 " width="59.3" height="14.878011588005336"/>
<rect x="1554.5" y="1207.6026350666318" fill="#D92414" width="59.3" height="54.65499948655736"/>
<rect x="1554.5" y="1262.3010435119304" fill="#808080 " width="59.3" height="6.726759119676103"/>
<rect x="1554.5" y="1269.0828884683074" fill="#F4A500" width="59.3" height="50.496276102802085"/>
<rect x="1554.5" y="1319.5800155978081" fill="#808080 " width="59.3" height="1.774911838237358"/>
<rect x="1554.5" y="1321.3947211805937" fill="#D92414" width="59.3" height="100.91134182838448"/>
<rect x="1554.5" y="1422.3386197280342" fill="#808080 " width="59.3" height="12.286503348254541"/>
<rect x="1554.5" y="1434.6609057802725" fill="#D92414" width="59.3" height="217.59584338971263"/>
<rect x="1554.5" y="1652.2573956863919" fill="#808080 " width="59.3" height="2.3672000321272435"/>
<rect x="1733.8" y="767.5974278536854" fill="#F4A500" width="59.3" height="56.35051004595891"/>
<rect x="1733.8" y="824.1300311351155" fill="#808080 " width="59.3" height="1.0483567376268468"/>
<rect x="1733.8" y="825.2225971100976" fill="#D92414" width="59.3" height="29.690423771551366"/>
<rect x="1733.8" y="855.0127393870445" fill="#808080 " width="59.3" height="1.4756252033288604"/>
<rect x="1733.8" y="856.5124870716733" fill="#F4A500" width="59.3" height="25.450904245241247"/>
<rect x="1733.8" y="881.9702750173725" fill="#808080 " width="59.3" height="4.274764860113706"/>
<rect x="1733.8" y="886.3088699579009" fill="#D92414" width="59.3" height="207.8758500829311"/>
<rect x="1733.8" y="1094.2051086560114" fill="#808080 " width="59.3" height="13.75393537422542"/>
<rect x="1733.8" y="1107.9660786602567" fill="#F4A500" width="59.3" height="433.03892283504246"/>
<rect x="1733.8" y="1541.0141688256517" fill="#808080 " width="59.3" height="1.221223583351616"/>
<rect x="1733.8" y="1542.3778502290634" fill="#D92414" width="59.3" height="66.31815424423974"/>
<rect x="1733.8" y="1608.7372344923474" fill="#808080 " width="59.3" height="6.097291818458984"/>
<rect x="1733.8" y="1614.8441201812257" fill="#F4A500" width="59.3" height="7.616050065744503"/>
<rect x="1733.8" y="1622.4625588713425" fill="#808080 " width="59.3" height="4.364679506134394"/>
<rect x="1733.8" y="1626.851997387799" fill="#D92414" width="59.3" height="16.763949877738696"/>
<rect x="1733.8" y="1643.6867726030432" fill="#808080 " width="59.3" height="1.8731867939370659"/>
<rect x="1733.8" y="1645.5609502823654" fill="#F4A500" width="59.3" height="9.779920633931738"/>
<rect x="1911.5" y="767.9077501681475" fill="#D92414" width="59.3" height="11.117865953966252"/>
<rect x="1911.5" y="779.5405538677852" fill="#808080 " width="59.3" height="3.3520131620906355"/>
<rect x="1911.5" y="782.9045898199462" fill="#F4A500" width="59.3" height="18.847696490441983"/>
<rect x="1911.5" y="801.7889541731453" fill="#808080 " width="59.3" height="2.512855354329716"/>
<rect x="1911.5" y="804.3364878655191" fill="#D92414" width="59.3" height="13.155106320942316"/>
<rect x="1911.5" y="817.659781490843" fill="#808080 " width="59.3" height="3.272596869324431"/>
<rect x="1911.5" y="820.9683940277372" fill="#F4A500" width="59.3" height="61.55940593415506"/>
<rect x="1911.5" y="882.5398359276229" fill="#808080 " width="59.3" height="1.843400051890825"/>
<rect x="1911.5" y="884.4127099317192" fill="#D92414" width="59.3" height="343.19221586756595"/>
<rect x="1911.5" y="1227.6237933449079" fill="#808080 " width="59.3" height="6.920956984031818"/>
<rect x="1911.5" y="1234.5596717642873" fill="#F4A500" width="59.3" height="52.931851779657734"/>
<rect x="1911.5" y="1287.5063856888212" fill="#808080 " width="59.3" height="3.9192451036955163"/>
<rect x="1911.5" y="1291.4351831462714" fill="#D92414" width="59.3" height="102.0731121911183"/>
<rect x="1911.5" y="1393.5497064378728" fill="#808080 " width="59.3" height="1.8047097252699587"/>
<rect x="1911.5" y="1395.357235754458" fill="#0000ff " width="59.3" height="7.173982365414076"/>
<rect x="1911.5" y="1402.5585905542516" fill="#808080 " width="59.3" height="2.7005821630119726"/>
<rect x="1911.5" y="1405.293745650025" fill="#D92414" width="59.3" height="250.27079877537165"/>
<rect x="2095.6" y="771.0765166477472" fill="#F4A500" width="59.3" height="20.684154709950125"/>
<rect x="2095.6" y="791.8639534770875" fill="#808080 " width="59.3" height="1.2981710882763338"/>
<rect x="2095.6" y="793.1980792972711" fill="#D92414" width="59.3" height="1.9335832398936148"/>
<rect x="2095.6" y="795.1374894550429" fill="#808080 " width="59.3" height="1.8639118422641658"/>
<rect x="2095.6" y="797.0188952939367" fill="#F4A500" width="59.3" height="44.41621124601934"/>
<rect x="2095.6" y="841.4430324725698" fill="#808080 " width="59.3" height="7.419209267825451"/>
<rect x="2095.6" y="848.8736969312239" fill="#F4A500" width="59.3" height="100.36909084850834"/>
<rect x="2095.6" y="949.2445226121006" fill="#808080 " width="59.3" height="2.8824372228723405"/>
<rect x="2095.6" y="952.2225477741649" fill="#D92414" width="59.3" height="179.16781899277555"/>
<rect x="2095.6" y="1131.3951607311947" fill="#808080 " width="59.3" height="6.32276210359214"/>
<rect x="2095.6" y="1137.7497921026818" fill="#F4A500" width="59.3" height="135.96295113715053"/>
<rect x="2095.6" y="1273.7903471915733" fill="#808080 " width="59.3" height="0.297358213718212"/>
<rect x="2095.6" y="1274.0913737149556" fill="#0000ff " width="59.3" height="119.30816311192308"/>
<rect x="2095.6" y="1393.4927079194508" fill="#808080 " width="59.3" height="0.8622845235026944"/>
<rect x="2095.6" y="1394.4437469966338" fill="#F4A500" width="59.3" height="94.50997924907972"/>
<rect x="2095.6" y="1488.955394863106" fill="#808080 " width="59.3" height="4.641418192846686"/>
<rect x="2095.6" y="1493.6390714535644" fill="#D92414" width="59.3" height="39.06350516068528"/>
<rect x="2095.6" y="1532.7259306362453" fill="#808080 " width="59.3" height="4.6722346426249715"/>
<rect x="2095.6" y="1537.4047933979568" fill="#F4A500" width="59.3" height="13.369094977699092"/>
<rect x="2095.6" y="1550.7767289981214" fill="#808080 " width="59.3" height="1.582571031213206"/>
<rect x="2095.6" y="1552.374767847702" fill="#D92414" width="59.3" height="103.0894205674116"/>
<rect x="129.3" y="2197.2602789802386" fill="#808080 " width="59.3" height="0.0"/>
<rect x="129.3" y="2198.6068523212293" fill="#F4A500" width="59.3" height="54.05301870338005"/>
<rect x="129.3" y="2252.724454447195" fill="#808080 " width="59.3" height="2.039576281395398"/>
<rect x="129.3" y="2254.9224925982817" fill="#D92414" width="59.3" height="26.64439686564569"/>
<rect x="129.3" y="2281.56982960944" fill="#808080 " width="59.3" height="2.141896006002554"/>
<rect x="129.3" y="2283.723805489314" fill="#0000ff " width="59.3" height="32.91189574239195"/>
<rect x="129.3" y="2316.6422733216755" fill="#808080 " width="59.3" height="0.3315978592944191"/>
<rect x="129.3" y="2317.016336993081" fill="#D92414" width="59.3" height="69.10420229931998"/>
<rect x="129.3" y="2386.2653048733805" fill="#808080 " width="59.3" height="15.020751094309617"/>
<rect x="129.3" y="2401.307628121305" fill="#F4A500" width="59.3" height="220.03846133708674"/>
<rect x="129.3" y="2621.3537657659062" fill="#808080 " width="59.3" height="8.582065238447171"/>
<rect x="129.3" y="2630.2164685587322" fill="#0000ff " width="59.3" height="13.216260067584813"/>
<rect x="129.3" y="2643.4759594084144" fill="#808080 " width="59.3" height="4.4842074965122265"/>
<rect x="129.3" y="2647.9743155237175" fill="#F4A500" width="59.3" height="35.97198854895032"/>
<rect x="129.3" y="2683.9771290371605" fill="#808080 " width="59.3" height="5.43652195845857"/>
<rect x="129.3" y="2689.434398312031" fill="#D92414" width="59.3" height="16.789175449157028"/>
<rect x="129.3" y="2706.307633984817" fill="#808080 " width="59.3" height="1.0826320880534013"/>
<rect x="129.3" y="2707.443700889394" fill="#F4A500" width="59.3" height="126.92624142920431"/>
<rect x="301.6" y="2257.2363187900014" fill="#808080 " width="59.3" height="1.7760579467783657"/>
<rect x="301.6" y="2259.05181161093" fill="#D92414" width="59.3" height="5.4894554312948"/>
<rect x="301.6" y="2264.5530563018715" fill="#808080 " width="59.3" height="0.6593611970763789"/>
<rect x="301.6" y="2265.2829204615127" fill="#F4A500" width="59.3" height="81.24582241153524"/>
<rect x="301.6" y="2346.5364251640017" fill="#808080 " width="59.3" height="0.4014395758006799"/>
<rect x="301.6" y="2346.985061651871" fill="#D92414" width="59.3" height="7.84466906518648"/>
<rect x="301.6" y="2354.9937037680834" fill="#808080 " width="59.3" height="8.733874306308167"/>
<rect x="301.6" y="2363.8502289064304" fill="#D92414" width="59.3" height="166.59840750319"/>
<rect x="301.6" y="2530.8171670712327" fill="#808080 " width="59.3" height="5.374912207355521"/>
<rect x="301.6" y="2536.3892735860813" fill="#F4A500" width="59.3" height="52.871486787926585"/>
<rect x="301.6" y="2589.341497530404" fill="#808080 " width="59.3" height="17.073153984637543"/>
<rect x="301.6" y="2606.4811471926196" fill="#0000ff " width="59.3" height="120.29373106023564"/>
<rect x="301.6" y="2726.8847164058643" fill="#808080 " width="59.3" height="1.571865843113983"/>
<rect x="301.6" y="2728.5119199970486" fill="#D92414" width="59.3" height="105.62024299684936"/>
<rect x="301.6" y="2834.4154507955973" fill="#808080 " width="59.3" height="0.05854756340829681"/>
<rect x="477.5" y="2287.265752280043" fill="#808080 " width="59.3" height="19.669353744851122"/>
<rect x="477.5" y="2310.4804976879664" fill="#D92414" width="59.3" height="96.44957110696402"/>
<rect x="477.5" y="2406.944624924238" fill="#808080 " width="59.3" height="1.018330581135558"/>
<rect x="477.5" y="2407.9775116346805" fill="#F4A500" width="59.3" height="168.4660175295386"/>
<rect x="477.5" y="2576.4569216011423" fill="#808080 " width="59.3" height="1.710601205921364"/>
<rect x="477.5" y="2578.247691237821" fill="#0000ff " width="59.3" height="41.012123736699095"/>
<rect x="477.5" y="2619.3494458867776" fill="#808080 " width="59.3" height="2.7746549232453503"/>
<rect x="477.5" y="2622.207939859043" fill="#F4A500" width="59.3" height="67.23341138682673"/>
<rect x="477.5" y="2689.5484441935596" fill="#808080 " width="59.3" height="0.6996783580193551"/>
<rect x="477.5" y="2690.3676503836014" fill="#D92414" width="59.3" height="43.47659146771366"/>
<rect x="477.5" y="2733.886360865948" fill="#808080 " width="59.3" height="2.436007140135189"/>
<rect x="477.5" y="2736.3259521786263" fill="#F4A500" width="59.3" height="73.11868254943818"/>
<rect x="477.5" y="2809.4727362367225" fill="#808080 " width="59.3" height="1.5012695702014298"/>
<rect x="477.5" y="2811.0389198929433" fill="#D92414" width="59.3" height="22.9121720887199"/>
<rect x="656.7" y="2233.157377509515" fill="#F4A500" width="59.3" height="105.91033147752614"/>
<rect x="656.7" y="2339.192278876574" fill="#808080 " width="59.3" height="6.334764494348192"/>
<rect x="656.7" y="2345.5357296389266" fill="#D92414" width="59.3" height="273.6149203086195"/>
<rect x="656.7" y="2619.1878434530167" fill="#808080 " width="59.3" height="3.854021058526996"/>
<rect x="656.7" y="2623.0553675886867" fill="#F4A500" width="59.3" height="175.90763480920583"/>
<rect x="656.7" y="2798.995786054553" fill="#808080 " width="59.3" height="1.5055130436802528"/>
<rect x="656.7" y="2800.5382257444717" fill="#D92414" width="59.3" height="32.93529941916836"/>
<rect x="841.2" y="2291.0953781756334" fill="#808080 " width="59.3" height="0.17296622054429067"/>
<rect x="841.2" y="2291.441277098735" fill="#D92414" width="59.3" height="199.67794461643734"/>
<rect x="841.2" y="2491.248473776963" fill="#808080 " width="59.3" height="0.9411381521151156"/>
<rect x="841.2" y="2492.2778848998605" fill="#F4A500" width="59.3" height="14.037755317093172"/>
<rect x="841.2" y="2506.324287857621" fill="#808080 " width="59.3" height="1.257333435063515"/>
<rect x="841.2" y="2507.694509873181" fill="#D92414" width="59.3" height="24.64015158406511"/>
<rect x="841.2" y="2532.4850767760804" fill="#808080 " width="59.3" height="4.996774367601262"/>
<rect x="841.2" y="2537.5528824619087" fill="#F4A500" width="59.3" height="54.3778460120985"/>
<rect x="841.2" y="2591.9688250181257" fill="#808080 " width="59.3" height="6.496328888120388"/>
<rect x="841.2" y="2598.4662868142095" fill="#0000ff " width="59.3" height="90.06124254004641"/>
<rect x="841.2" y="2688.544241422616" fill="#808080 " width="59.3" height="3.165411885750359"/>
<rect x="841.2" y="2692.038216728548" fill="#F4A500" width="59.3" height="38.715540897055405"/>
<rect x="841.2" y="2730.8139626340026" fill="#808080 " width="59.3" height="1.6451231384215248"/>
<rect x="841.2" y="2732.57820199492" fill="#D92414" width="59.3" height="14.659219019200805"/>
<rect x="841.2" y="2747.2597037719343" fill="#808080 " width="59.3" height="4.604828433844887"/>
<rect x="841.2" y="2751.935798149915" fill="#F4A500" width="59.3" height="26.833159739349185"/>
<rect x="841.2" y="2778.789397157788" fill="#808080 " width="59.3" height="1.5694328199901406"/>
<rect x="841.2" y="2780.4653166227413" fill="#0000ff " width="59.3" height="7.572678600129279"/>
<rect x="841.2" y="2788.3725315483507" fill="#808080 " width="59.3" height="4.505849817988121"/>
<rect x="841.2" y="2792.880774550617" fill="#F4A500" width="59.3" height="1.3581153186253232"/>
<rect x="841.2" y="2794.6584546243553" fill="#808080 " width="59.3" height="1.7835054998934083"/>
<rect x="841.2" y="2796.5540576802496" fill="#F4A500" width="59.3" height="7.6289217824548246"/>
<rect x="841.2" y="2804.2612037409594" fill="#808080 " width="59.3" height="3.9030087095038652"/>
<rect x="841.2" y="2808.1660626433504" fill="#D92414" width="59.3" height="25.53256128655869"/>
<rect x="1015.7" y="2314.366096597052" fill="#F4A500" width="59.3" height="54.485988738998586"/>
<rect x="1015.7" y="2368.927610124015" fill="#808080 " width="59.3" height="1.7045602926476064"/>
<rect x="1015.7" y="2370.6406666216003" fill="#D92414" width="59.3" height="35.59633558805762"/>
<rect x="1015.7" y="2406.3643384971765" fill="#808080 " width="59.3" height="5.87589658001265"/>
<rect x="1015.7" y="2412.2483041359246" fill="#0000ff " width="59.3" height="61.99524567899731"/>
<rect x="1015.7" y="2474.365980595269" fill="#808080 " width="59.3" height="9.738439533627002"/>
<rect x="1015.7" y="2484.1096927148355" fill="#F4A500" width="59.3" height="81.34617000973188"/>
<rect x="1015.7" y="2565.532935917516" fill="#808080 " width="59.3" height="7.370234199340587"/>
<rect x="1015.7" y="2573.047318611947" fill="#0000ff " width="59.3" height="17.92486336224357"/>
<rect x="1015.7" y="2591.0742699166344" fill="#808080 " width="59.3" height="7.18989173773133"/>
<rect x="1015.7" y="2598.2654097221766" fill="#D92414" width="59.3" height="233.2368301813097"/>
<rect x="1015.7" y="2831.679772543981" fill="#808080 " width="59.3" height="2.9059757293186976"/>
<rect x="1199.5" y="2438.989787678235" fill="#808080 " width="59.3" height="3.4136374948305814"/>
<rect x="1199.5" y="2442.6091302635796" fill="#D92414" width="59.3" height="42.2915093973458"/>
<rect x="1199.5" y="2485.0009760594053" fill="#808080 " width="59.3" height="6.773722774836152"/>
<rect x="1199.5" y="2491.779004539956" fill="#F4A500" width="59.3" height="54.87241147374377"/>
<rect x="1199.5" y="2546.935417671567" fill="#808080 " width="59.3" height="0.8300862404482672"/>
<rect x="1199.5" y="2547.897742898774" fill="#D92414" width="59.3" height="101.1753854213931"/>
<rect x="1199.5" y="2649.124002924251" fill="#808080 " width="59.3" height="1.467371052196171"/>
<rect x="1199.5" y="2650.9061614301736" fill="#F4A500" width="59.3" height="133.0049381671252"/>
<rect x="1199.5" y="2783.9885484788397" fill="#808080 " width="59.3" height="2.8867133026793113"/>
<rect x="1199.5" y="2786.935837678791" fill="#0000ff " width="59.3" height="4.6652590524007"/>
<rect x="1199.5" y="2791.6208693391527" fill="#808080 " width="59.3" height="3.242310773381689"/>
<rect x="1199.5" y="2794.9943964941863" fill="#D92414" width="59.3" height="39.72637849022368"/>
<rect x="1374.4" y="2416.5569411898546" fill="#808080 " width="59.3" height="1.9410479437535777"/>
<rect x="1374.4" y="2418.560207151008" fill="#F4A500" width="59.3" height="101.58991911213107"/>
<rect x="1374.4" y="2520.1515087380476" fill="#808080 " width="59.3" height="0.2397729919562721"/>
<rect x="1374.4" y="2520.392046079112" fill="#D92414" width="59.3" height="26.638616566749477"/>
<rect x="1374.4" y="2547.053028165416" fill="#808080 " width="59.3" height="0.08156601960604348"/>
<rect x="1374.4" y="2547.1441917512143" fill="#0000ff " width="59.3" height="1.2684406681611051"/>
<rect x="1374.4" y="2548.4729295942343" fill="#808080 " width="59.3" height="0.5062583236124283"/>
<rect x="1374.4" y="2549.1718570652015" fill="#F4A500" width="59.3" height="180.346922513293"/>
<rect x="1374.4" y="2729.745565282127" fill="#808080 " width="59.3" height="5.553946721899365"/>
<rect x="1374.4" y="2735.4823576037134" fill="#D92414" width="59.3" height="98.76620746484912"/>
<rect x="1553" y="2613.361169246266" fill="#808080 " width="59.3" height="2.2774993712327785"/>
<rect x="1553" y="2615.9109522678164" fill="#F4A500" width="59.3" height="40.742098550183826"/>
<rect x="1553" y="2656.6746665102846" fill="#808080 " width="59.3" height="1.6726842204829495"/>
<rect x="1553" y="2658.372589240014" fill="#D92414" width="59.3" height="42.56187048610846"/>
<rect x="1553" y="2700.950365104682" fill="#808080 " width="59.3" height="2.755953629236018"/>
<rect x="1553" y="2703.7306347042727" fill="#F4A500" width="59.3" height="83.47050414092948"/>
<rect x="1553" y="2787.210916410684" fill="#808080 " width="59.3" height="2.476686965554393"/>
<rect x="1553" y="2789.766955188662" fill="#D92414" width="59.3" height="4.3614743248453465"/>
<rect x="1553" y="2794.1565231796167" fill="#0000ff " width="59.3" height="2.2134064867584016"/>
<rect x="1553" y="2796.387168349318" fill="#808080 " width="59.3" height="1.072299949958392"/>
<rect x="1553" y="2797.50006674438" fill="#F4A500" width="59.3" height="37.19591292064939"/>
<rect x="1736.9" y="2606.0738809621744" fill="#F4A500" width="59.3" height="122.74147491862615"/>
<rect x="1736.9" y="2728.83975961126" fill="#808080 " width="59.3" height="2.544983524468364"/>
<rect x="1736.9" y="2731.3992589158634" fill="#D92414" width="59.3" height="102.63342658429272"/>
	</g>
	<use xlink:href="#SVGID_1_"  style="overflow:visible;fill:none;stroke:#231F20;stroke-miterlimit:10;"/>
</g>
</svg>
